<svg id="Layer_1" data-name="Layer 1" xmlns="http://www.w3.org/2000/svg" viewBox="0 0 938.29 440.25"><defs><style>.cls-1{fill:#fff;}.cls-2{fill:#122143;}</style></defs><rect class="cls-1" x="-34.85" y="-39.44" width="1010.75" height="504.46"/><path id="jkk" class="cls-2" d="M111.8,280.78l10.26-10.52v48.39c0,16.17-7.88,24.15-22.7,24.15-8.61,0-16.5-3.75-21.16-10.49l6.38-6.54c3.94,5.6,8.66,8.12,14.78,8.12,8.19,0,12.44-5,12.44-14.73ZM201,270.23H189.17l-32.22,33,6.09,7.3,27.78,32.24H203l-33-39.91Zm-25.66,0H163.5l-32.22,33,6.1,7.3,27.78,32.24h12.13l-33-39.91Zm60.15,8.92a2.47,2.47,0,0,1-2-1.18l-1.38,1.65a4.29,4.29,0,0,0,3.5,1.57c2.53,0,3.87-1.3,3.87-4v-7h-6.25v2H237v5.12C237,278.55,236.47,279.15,235.47,279.15Zm7.36,1.86h-2.55l4.79-10.75h2.46L252.34,281h-2.61l-1-2.31h-5Zm1.75-4.2H248l-1.71-4.11Zm5-9.64H247l-2.08,2.21h1.88ZM256,281h-2.49V270.26h4.65c2.87,0,4.67,1.49,4.67,3.9a3.49,3.49,0,0,1-2.21,3.39L263,281h-2.67l-2.08-3H256Zm0-5h2c1.52,0,2.29-.7,2.29-1.87s-.77-1.87-2.29-1.87h-2Zm11.13-1.33,3.15,5.17h1.12l3.16-5.31,0,6.45h2.33l0-10.75h-2l-4,6.68-4-6.68h-2.05V281h2.33Zm19.55-5.32,1.6-2.21H286l-1.11,2.21Zm-2.44,11.81c3.06,0,4.87-1.75,4.87-4.91v-6H286.6v5.93c0,2-.87,2.88-2.4,2.88s-2.39-.84-2.39-2.88v-5.93h-2.49v6C279.32,279.44,281.13,281.19,284.19,281.19Zm.94-14h-2.25l-1.1,2.21h1.75Zm8.88,3.09h-2.49V281H294ZM299,281h-2.48V270.26h4.65c2.87,0,4.67,1.49,4.67,3.9s-1.8,3.88-4.67,3.88H299Zm0-5h2c1.52,0,2.29-.69,2.29-1.86s-.77-1.88-2.29-1.88h-2Zm6.65,5,4.79-10.75h2.46L317.75,281h-2.61l-.95-2.31h-5l-.95,2.31Zm4.3-4.19h3.41l-1.7-4.12ZM321.36,281h-2.49V270.26h4.65c2.88,0,4.67,1.49,4.67,3.9a3.49,3.49,0,0,1-2.21,3.39l2.41,3.46h-2.67l-2.07-3h-2.29Zm0-5h2c1.52,0,2.28-.7,2.28-1.87s-.76-1.87-2.28-1.87h-2Zm11.29-5.77h-2.49V281h2.49Zm-99.38,26.35,2.19-2.22,4.39,5.05h1.36l-5-5.88,4.65-4.87h-1.3l-6.31,6.49v-6.49h-1.14v10.75h1.14Zm9.23-7.92v6.16c0,3.08,1.67,4.68,4.42,4.68s4.41-1.6,4.41-4.68v-6.16h-1.11v6.11c0,2.55-1.19,3.72-3.3,3.72s-3.29-1.17-3.29-3.72v-6.11Zm13.82,10.75h1.14v-9.77h3.77v-1h-8.69v1h3.78Zm15.11,0h-1.2l-1.29-2.87h-6l-1.29,2.87h-1.19l4.92-10.75h1.12Zm-2.9-3.8L266,289.87l-2.58,5.77Zm7.07,3.8v-9.77h3.77v-1h-8.69v1h3.78v9.77ZM288,285.91h-1.46l-2.1,1.9h1.07Zm-2.57,2.69a5.47,5.47,0,1,1-5.65,5.46A5.41,5.41,0,0,1,285.42,288.6Zm0,1a4.46,4.46,0,1,0,4.5,4.45A4.37,4.37,0,0,0,285.42,289.61Zm16.64-.92h-1.31l-6.31,6.49v-6.49H293.3v10.75h1.14v-2.83l2.2-2.22,4.39,5.05h1.35l-5-5.88Zm4.14-1.89a.67.67,0,0,0,1.33,0,.67.67,0,0,0-1.33,0Zm2.74,0a.66.66,0,0,0,.66.66.66.66,0,1,0,0-1.32A.67.67,0,0,0,308.94,286.8Zm-.71,12.73a5.47,5.47,0,1,1,5.64-5.47A5.41,5.41,0,0,1,308.23,299.53Zm0-1a4.46,4.46,0,1,0-4.53-4.46A4.36,4.36,0,0,0,308.23,298.52Zm6.68.92h8.82v-1h-7.29l7.1-9v-.78H315v1h7l-7.13,9Zm10.76-10.75h4c2.73,0,4.39,1.38,4.39,3.68s-1.66,3.67-4.39,3.67H326.8v3.4h-1.13Zm1.13,6.36h2.86c2.15,0,3.28-1,3.28-2.68s-1.13-2.7-3.28-2.7H326.8Zm8.63-1a5.65,5.65,0,1,1,5.65,5.47A5.41,5.41,0,0,1,335.43,294.06Zm1.12,0a4.52,4.52,0,1,0,4.53-4.45A4.38,4.38,0,0,0,336.55,294.06Zm13.55-3.34,6.91,8.72H358V288.69h-1.12v8.72l-6.93-8.72H349v10.75h1.13Zm13.13,8.72h1.14v-9.77h3.77v-1h-8.69v1h3.78ZM234.82,313.62h-2.69l4.64,10.75h2.45l4.66-10.75h-2.47l-3.32,7.68Zm18.07,2v-2h-8.12v10.75h8.32v-2h-5.85v-2.48h5V318h-5v-2.33Zm2.19-2v10.75h2.48V320h4.89v4.41h2.48V313.62h-2.48v4.24h-4.89v-4.24Zm12.41,10.75H270V313.62h-2.48Zm10.32-8.81a3.46,3.46,0,0,1,2.7,1.26l1.6-1.48a5.57,5.57,0,1,0,0,7.3l-1.6-1.48a3.41,3.41,0,0,1-2.7,1.28,3.44,3.44,0,0,1,0-6.88Zm8.46-1.94h-2.49v10.75h7.88v-2h-5.39Zm14.91,2v-2h-8.12v10.75h8.32v-2h-5.85v-2.48h5V318h-5v-2.33Zm6.53,8.75h2.49V313.62h-2.49Zm14.9,0V313.62h-2.46v6.53l-5.35-6.53h-2.05v10.75h2.45v-6.52l5.36,6.52Zm7.43,0h-4.88V313.62H330c3.52,0,5.93,2.12,5.93,5.38S333.56,324.37,330,324.37Zm3.41-5.37a3.21,3.21,0,0,0-3.53-3.34h-2.28v6.67h2.28A3.21,3.21,0,0,0,333.45,319Zm14,.64v-6H345v5.93c0,2-.87,2.89-2.4,2.89s-2.39-.85-2.39-2.89v-5.93h-2.49v6c0,3.16,1.81,4.91,4.87,4.91S347.49,322.8,347.49,319.64Zm6,2.92a6.29,6.29,0,0,1-3.54-1.12l-.85,1.87a7.63,7.63,0,0,0,4.38,1.24c3.07,0,4.56-1.53,4.56-3.33,0-3.94-6.25-2.58-6.25-4.56,0-.67.57-1.23,2-1.23a6.08,6.08,0,0,1,3,.85l.77-1.89a7.21,7.21,0,0,0-3.73-.95c-3.06,0-4.53,1.52-4.53,3.35,0,4,6.24,2.61,6.24,4.62C355.56,322.07,355,322.56,353.49,322.56Zm8.33,1.81h2.48v-8.72h3.44v-2h-9.36v2h3.44Zm9.75,0h-2.49V313.62h4.66c2.87,0,4.66,1.49,4.66,3.9a3.5,3.5,0,0,1-2.21,3.4l2.41,3.45h-2.67l-2.07-3h-2.29Zm0-5h2c1.52,0,2.28-.7,2.28-1.87s-.76-1.87-2.28-1.87h-2Zm15.54-5.77-2.87,4.78-2.87-4.78h-2.64l4.16,6.91v3.84h2.49v-3.81l4.17-6.94Zm-149,25.5,2.62,3.68h-1.24L237,339.35a7.76,7.76,0,0,1-.86,0h-2.88v3.41h-1.14V332.05h4c2.74,0,4.39,1.38,4.39,3.69A3.34,3.34,0,0,1,238.09,339.12Zm1.32-3.38c0-1.72-1.14-2.7-3.29-2.7h-2.85v5.39h2.85C238.27,338.43,239.41,337.43,239.41,335.74Zm4.65,2.09h5.56v-1h-5.56V333h6.24v-1h-7.37V342.8h7.6v-1h-6.47Zm9.19-2.95c0-1.08.87-1.95,2.84-1.95a5.53,5.53,0,0,1,3,.89l.38-.91a6.06,6.06,0,0,0-3.33-1c-2.74,0-4,1.37-4,3,0,4,6.61,2.16,6.61,5.11,0,1.06-.87,1.91-2.88,1.91a5.31,5.31,0,0,1-3.55-1.31l-.44.88a5.8,5.8,0,0,0,4,1.39c2.75,0,4-1.35,4-2.93C259.87,336.05,253.25,337.83,253.25,334.88Zm9.92,2.95h5.56v-1h-5.56V333h6.23v-1H262V342.8h7.61v-1h-6.47Zm13.15-5.78,4.91,10.75H280l-1.29-2.87h-6l-1.28,2.87h-1.19l4.92-10.75Zm2,7-2.58-5.78L273.17,339Zm10.33.11,2.63,3.68h-1.24l-2.46-3.45a7.88,7.88,0,0,1-.86,0h-2.89v3.41h-1.13V332.05h4c2.73,0,4.39,1.38,4.39,3.69A3.33,3.33,0,0,1,288.66,339.12Zm1.32-3.38c0-1.72-1.13-2.7-3.28-2.7h-2.86v5.39h2.86C288.85,338.43,290,337.43,290,335.74Zm8.24-2.77a4.28,4.28,0,0,1,3.18,1.28l.72-.72a5.19,5.19,0,0,0-3.93-1.57,5.47,5.47,0,1,0,0,10.93,5.21,5.21,0,0,0,3.95-1.58l-.72-.72a4.21,4.21,0,0,1-3.18,1.29,4.46,4.46,0,1,1,0-8.91Zm13.88,3.87h-6.72v-4.79h-1.14V342.8h1.14v-5h6.72v5h1.12V332.05H312.1ZM324.85,333a4.28,4.28,0,0,1,3.18,1.28l.72-.72a5.19,5.19,0,0,0-3.93-1.57,5.47,5.47,0,1,0,0,10.93,5.21,5.21,0,0,0,3.95-1.58l-.72-.72a4.21,4.21,0,0,1-3.18,1.29,4.46,4.46,0,1,1,0-8.91Zm7.16,4.86h5.56v-1H332V333h6.23v-1h-7.37V342.8h7.6v-1H332Zm16.69,2.94-6.93-8.72h-.93V342.8H342v-8.72l6.9,8.72h.94V332.05H348.7Zm2.63-7.73h3.78v9.76h1.13V333H360v-1h-8.69Zm11.33,4.79h5.56v-1h-5.56V333h6.24v-1h-7.37V342.8h7.6v-1h-6.47Zm14.79,1.29,2.63,3.68h-1.25l-2.45-3.45a8,8,0,0,1-.86,0h-2.89v3.41H371.5V332.05h4c2.73,0,4.39,1.38,4.39,3.69A3.33,3.33,0,0,1,377.45,339.12Zm1.32-3.38c0-1.72-1.13-2.7-3.28-2.7h-2.86v5.39h2.86C377.64,338.43,378.77,337.43,378.77,335.74Zm-123.48-30H232.13v1.4h23.16Z"/><path id="sze_logo" data-name="sze logo" class="cls-2" d="M115.46,142.31c0-1.76.22-2.22,2.2-2.35,14.8-.9,27-7.08,36.21-18.74A47.34,47.34,0,0,0,164.1,93.4c.11-2.29,2-2,3.38-2,2,0,1.61,1.22,1.55,2.36a53.76,53.76,0,0,1-41,49.75,57,57,0,0,1-10.08,1.44C115.48,145.08,115.46,145,115.46,142.31Zm43.72-48.63c.12-1.25.22-2.29-1.65-2.31-1.38,0-3.15-.42-3.21,2a31.46,31.46,0,0,1-2.49,11.86c-6.45,15.3-18,23.91-34.55,25-2.35.16-1.85,2.08-1.79,3.3.09,1.73.91,1.67,2.1,1.59,2-.15,4-.33,5.93-.67,19.16-3.38,34.23-20.06,35.56-39.43C159.11,94.56,159.13,94.12,159.18,93.68Zm81.9,5.42a11.48,11.48,0,0,1,7,2.57L251,97.42a14,14,0,0,0-4.54-2.53,15.91,15.91,0,0,0-5.22-.89,10.73,10.73,0,0,0-6.65,2,6.76,6.76,0,0,0-2.66,5.72q0,3.7,2.1,5.44A16.8,16.8,0,0,0,240.7,110a12.43,12.43,0,0,1,3.84,1.4,2.16,2.16,0,0,1,1,1.86,2.2,2.2,0,0,1-.91,1.86,4.1,4.1,0,0,1-2.52.69c-2.38,0-5-1.23-7.78-3.69l-3.47,4.25A16,16,0,0,0,242,120.93a10.42,10.42,0,0,0,6.91-2.18,7,7,0,0,0,2.63-5.68,6.77,6.77,0,0,0-2-5.33A13.34,13.34,0,0,0,243.7,105a18.55,18.55,0,0,1-4.73-1.59,2.06,2.06,0,0,1-1-1.8,2.27,2.27,0,0,1,.83-1.83A3.53,3.53,0,0,1,241.08,99.1Zm35.69,21.54v-5.07H263l13.6-16.95v-4H255.42v5h13.19l-13.64,17v4Zm5.07-26v26.05H301v-5.15H287.65v-5.4h11.66v-5H287.65V99.77h13V94.59Zm16.69-6.85-5.77-2.43L288,91.91h5.33Zm14.31,25.56a7.87,7.87,0,0,1-2.2-5.83,7.47,7.47,0,0,1,2.33-5.78,8,8,0,0,1,5.61-2.14,8.45,8.45,0,0,1,6.85,3.43l3.62-4.1A13.75,13.75,0,0,0,318.32,94a13.37,13.37,0,0,0-9.71,3.87,13.75,13.75,0,0,0-.07,19.26,14.06,14.06,0,0,0,20.36-1.19l-3.73-3.84a8.57,8.57,0,0,1-7,3.39A7.26,7.26,0,0,1,312.84,113.3Zm36.81-7.83H339.29V94.59h-5.81v26.05h5.81V110.39h10.36v10.25h5.81v-26h-5.81Zm12.22-10.88v26.05h19.19v-5.15H367.68v-5.4h11.67v-5H367.68V99.77h13V94.59Zm42.59,16.77L391.68,94.59h-5.44v26.05h5.81V104.32l12.41,16.32h5.81v-26h-5.81Zm23.44-1,9-15.76h-6.29L425,104.28l-5.63-9.69h-6.29l9,15.76v10.29h5.82Zm11.81,10.29h5.81v-26h-5.81Zm-207,5.86v26h19.19V147.4H238.51V142h11.66v-5H238.51v-5.36h13V126.5Zm41.7,19.93a10,10,0,0,1-5,1.16,7,7,0,0,1-5.2-2.22,9,9,0,0,1,.09-11.85,7.65,7.65,0,0,1,5.59-2.25,8.61,8.61,0,0,1,3.19.58,11.37,11.37,0,0,1,3.22,2.1l3-4.36a14.18,14.18,0,0,0-9.75-3.69,13.18,13.18,0,0,0-9.57,3.88,13.76,13.76,0,0,0-.08,19.26,13.28,13.28,0,0,0,9.64,3.8q6.86,0,10.73-4.32v-9.24h-5.85Zm22.2-4.17,9-15.76h-6.3l-5.62,9.69-5.63-9.69h-6.3l9,15.76v10.28h5.81Zm12.23-15.76v26H328V147.4H314.63V142h11.66v-5H314.63v-5.36h13V126.5Zm43.18,5v-5H331.43v5h7.38v21h5.81v-21Zm4.66-5v26h19.19V147.4H362.47V142h11.66v-5H362.47v-5.36h13V126.5Zm48.1,26h5.81v-26h-7.82L396,140.81l-6.7-14.31h-7.87v26h5.82V136.15l7,14.23h3.47l7-14.23ZM232.07,169.11v-6.26h-1.91v6.34A5.07,5.07,0,0,0,231.5,173a5.2,5.2,0,0,0,6.9,0,5.07,5.07,0,0,0,1.34-3.77v-6.34h-1.91v6.26a3.63,3.63,0,0,1-.78,2.46,2.61,2.61,0,0,1-2.1.91,2.59,2.59,0,0,1-2.1-.91A3.63,3.63,0,0,1,232.07,169.11Zm19.14,2.19-6.57-8.45h-1.91v11.31h1.91v-8.25l6.41,8.25h2.07V162.85h-1.91Zm5,2.86h1.91V162.85h-1.91ZM271,162.85h-2.14l-3.48,8.45-3.48-8.45h-2.13l4.54,11.31h2.14Zm1.61,0v11.31h8.14v-1.79h-6.23v-3H280v-1.7h-5.42v-3h6v-1.8Zm18.5.88a6.06,6.06,0,0,0-3.71-.88h-4.2v11.31h1.91v-3.8h2.5l2.71,3.8h2.42l-3-4.11a3.28,3.28,0,0,0,2.44-3.53A3.33,3.33,0,0,0,291.13,163.73Zm-3.63,4.9h-2.37v-4h2.42a4,4,0,0,1,2.14.41,1.74,1.74,0,0,1,.6,1.53,2,2,0,0,1-.59,1.61A3.51,3.51,0,0,1,287.5,168.63Zm12.61-4a3.9,3.9,0,0,1,1.36.75l1-1.44a5.6,5.6,0,0,0-1.85-1,6.68,6.68,0,0,0-2.15-.35,4.56,4.56,0,0,0-2.82.85,2.82,2.82,0,0,0-1.14,2.41,2.72,2.72,0,0,0,1,2.33,4.32,4.32,0,0,0,1.15.66,15.24,15.24,0,0,0,1.89.55,5.49,5.49,0,0,1,1.76.66,1.2,1.2,0,0,1,.51,1,1.24,1.24,0,0,1-.55,1.05,2.39,2.39,0,0,1-1.46.4,5.35,5.35,0,0,1-3.56-1.49l-1.2,1.44a6.88,6.88,0,0,0,4.71,1.83,4.47,4.47,0,0,0,2.93-.92,3,3,0,0,0,1.12-2.4,2.81,2.81,0,0,0-.89-2.25,6.27,6.27,0,0,0-2.62-1.18,8.19,8.19,0,0,1-2.27-.78,1.17,1.17,0,0,1-.53-1,1.13,1.13,0,0,1,.53-1,2.49,2.49,0,0,1,1.37-.34A5.36,5.36,0,0,1,300.11,164.63Zm5.08,9.53h1.91V162.85h-1.91Zm12.75-9.56v-1.75h-8.77v1.75h3.43v9.56h1.91V164.6Zm6.52,5.1,4.21-6.85h-2.09L323.49,168l-3.09-5.15h-2.09l4.21,6.85v4.46h1.94Zm21.26-1.27a5.62,5.62,0,0,0-1.71-4.18,6.22,6.22,0,0,0-8.48,0,5.93,5.93,0,0,0,0,8.35,6.22,6.22,0,0,0,8.48,0A5.61,5.61,0,0,0,345.72,168.43Zm-2,0a4,4,0,0,1-1.15,2.9,4,4,0,0,1-5.68,0,4.22,4.22,0,0,1,0-5.81,4,4,0,0,1,5.68,0A4,4,0,0,1,343.76,168.43Zm11.89-3.8,0-1.78h-7.54v11.31H350V169.5h5v-1.76h-5v-3.11Zm14.52,7.14a4.92,4.92,0,0,1-2.7.69,3.8,3.8,0,0,1-2.74-1.09,4.26,4.26,0,0,1,0-5.81,4,4,0,0,1,2.88-1.11,5.26,5.26,0,0,1,1.57.22,4.06,4.06,0,0,1,1.33.79l1-1.46a5.91,5.91,0,0,0-4.06-1.42,5.76,5.76,0,0,0-4.17,1.68,6,6,0,0,0,0,8.38,5.79,5.79,0,0,0,4.2,1.65,5.9,5.9,0,0,0,4.58-1.76v-3.87h-1.91Zm8.69-2.07,4.2-6.85H381L377.89,168l-3.09-5.15h-2.09l4.21,6.85v4.46h1.94Zm16.82-1.27a5.62,5.62,0,0,0-1.71-4.18,6.22,6.22,0,0,0-8.48,0,6,6,0,0,0,0,8.35,6.22,6.22,0,0,0,8.48,0A5.61,5.61,0,0,0,395.68,168.43Zm-1.95,0a4,4,0,0,1-1.16,2.9,4,4,0,0,1-5.68,0,4.22,4.22,0,0,1,0-5.81,4,4,0,0,1,5.68,0A4,4,0,0,1,393.73,168.43Zm12.28-4.7a6.06,6.06,0,0,0-3.71-.88h-4.2v11.31H400v-3.8h2.5l2.71,3.8h2.42l-3-4.11a3.28,3.28,0,0,0,2.44-3.53A3.33,3.33,0,0,0,406,163.73Zm-3.63,4.9H400v-4h2.42a4,4,0,0,1,2.14.41,1.74,1.74,0,0,1,.6,1.53,2,2,0,0,1-.59,1.61A3.51,3.51,0,0,1,402.38,168.63ZM198.19,95.53v-4.2a.58.58,0,0,0-.59-.59H178.43a.58.58,0,0,0-.58.59v4.2a.58.58,0,0,0,.58.59H197.6A.58.58,0,0,0,198.19,95.53Zm0,9.76v-4.21a.58.58,0,0,0-.59-.58H178.43a.58.58,0,0,0-.58.58v4.21a.59.59,0,0,0,.58.59H197.6A.59.59,0,0,0,198.19,105.29Zm0,9.75v-4.2a.58.58,0,0,0-.59-.59H178.43a.58.58,0,0,0-.58.59V115a.58.58,0,0,0,.58.59H197.6A.58.58,0,0,0,198.19,115Zm0,9.76v-4.21a.58.58,0,0,0-.59-.58H178.43a.58.58,0,0,0-.58.58v4.21a.59.59,0,0,0,.58.59H197.6A.59.59,0,0,0,198.19,124.8Zm0,9.75v-4.2a.58.58,0,0,0-.59-.59H178.43a.58.58,0,0,0-.58.59v4.2a.58.58,0,0,0,.58.59H197.6A.58.58,0,0,0,198.19,134.55Zm0,9.76V140.1a.58.58,0,0,0-.59-.58H178.43a.58.58,0,0,0-.58.58v4.21a.59.59,0,0,0,.58.59H197.6A.59.59,0,0,0,198.19,144.31Zm0,9.75v-4.2a.58.58,0,0,0-.59-.59H178.43a.58.58,0,0,0-.58.59v4.2a.58.58,0,0,0,.58.59H197.6A.58.58,0,0,0,198.19,154.06Zm0,9.76v-4.21a.58.58,0,0,0-.59-.58H178.43a.58.58,0,0,0-.58.58v4.21a.59.59,0,0,0,.58.59H197.6A.59.59,0,0,0,198.19,163.82Zm0,9.76v-4.21a.58.58,0,0,0-.59-.59H178.43a.58.58,0,0,0-.58.59v4.21a.58.58,0,0,0,.58.58H197.6A.58.58,0,0,0,198.19,173.58Zm-29.93-19.52v-4.2a.58.58,0,0,0-.58-.59H95a.58.58,0,0,0-.59.59v4.2a.58.58,0,0,0,.59.59h72.66A.58.58,0,0,0,168.26,154.06Zm0,9.76v-4.21a.58.58,0,0,0-.58-.58H117.37a.59.59,0,0,0-.59.58v4.21a.6.6,0,0,0,.59.59h50.31A.59.59,0,0,0,168.26,163.82Zm0,9.76v-4.21a.58.58,0,0,0-.58-.59H95a.58.58,0,0,0-.59.59v4.21a.58.58,0,0,0,.59.58h72.66A.58.58,0,0,0,168.26,173.58Zm274.55,0v-4.21a.58.58,0,0,0-.59-.59H416.31a.58.58,0,0,0-.58.59v4.21a.58.58,0,0,0,.58.58h25.91A.58.58,0,0,0,442.81,173.58Zm-50.32-14.06-1.34-.64-1.42,2.72h1.37ZM390,159.4l-1.3-.52-1.42,2.72h1.36Z"/><path id="sztaki" class="cls-2" d="M672,134.7a4.16,4.16,0,0,0-.88-1.83,4.23,4.23,0,0,0-1.66-1.17,4.17,4.17,0,0,0-2-.23,4.12,4.12,0,0,0-1.87.77,4,4,0,0,0-1.63,3.58,4.13,4.13,0,0,0,2.15,3.28c-2.45,16.91-17.28,35.21-40.43,36.37a43.13,43.13,0,0,1-40.2-22.86h19a15.1,15.1,0,0,0,2.23-.15,5.35,5.35,0,0,0,3.32-2c1-1.15,2-2.28,3-3.38l1.3-1.42,20.57-22.82q1.68-1.87,3.37-3.73l.22-.24c.63-.7,1.29-1.36,2-2a5.08,5.08,0,0,1,3.46-1.08h23.1l-.81-1.78c-.08-.21-.17-.41-.26-.59a46.48,46.48,0,0,0-79.53-9.08,45.18,45.18,0,0,0-8.14,17.2c-.29,1.27-.51,2.56-.72,3.8l-.17,1.09a4.05,4.05,0,0,0-1.58,1,4,4,0,0,0-1,1.59c0,.13-.09.28-.13.42l-.08.28v1.15l.08.18v0a3.86,3.86,0,0,0,.84,1.78,3.92,3.92,0,0,0,1.58,1.18,4,4,0,0,0,2,.3,4.17,4.17,0,0,0,1.86-.66,4.09,4.09,0,0,0,1.82-3.37,4.16,4.16,0,0,0-.47-1.92,4,4,0,0,0-1.32-1.46l-.2-.16a42.56,42.56,0,0,1,12-24.44,43.07,43.07,0,0,1,55.6-5.09,43,43,0,0,1,13.29,15.12H644.32a11.22,11.22,0,0,0-2.76.34,7.31,7.31,0,0,0-3.3,1.56c-.59.54-1.19,1.13-1.78,1.74-1,1.06-2,2.14-2.91,3.21l-1,1.13-6.17,6.84-16.62,18.45-.7.78c-.59.64-1.18,1.31-1.78,2a1.57,1.57,0,0,1-1,.66,15.69,15.69,0,0,1-2,.14H580.06l.75,1.59c.05.12.1.24.15.34a46.65,46.65,0,0,0,22,23,45.87,45.87,0,0,0,17.51,4.72l.94.07.46,0h3.49l.2,0h.15l1.39-.12c1-.08,2-.16,3.06-.29a43.29,43.29,0,0,0,8.9-2.16,46.65,46.65,0,0,0,29.5-31.88,41.85,41.85,0,0,0,1.07-5.21,4.12,4.12,0,0,0,1.45-1,3.85,3.85,0,0,0,.87-1.52,4.38,4.38,0,0,0,.13-.43l.07-.27v-1.14Zm48.19,5.75a9.43,9.43,0,0,1-3.68,7.91q-3.69,2.83-10,2.83-6.82,0-10.51-1.78V145.1a28.12,28.12,0,0,0,5.15,1.58,27,27,0,0,0,5.52.59q4.47,0,6.72-1.69a5.57,5.57,0,0,0,2.26-4.72,6.06,6.06,0,0,0-.8-3.27,7.54,7.54,0,0,0-2.68-2.37,38.8,38.8,0,0,0-5.71-2.45q-5.34-1.91-7.66-4.54a9.78,9.78,0,0,1-2.29-6.83,8.54,8.54,0,0,1,3.33-7.06,13.89,13.89,0,0,1,8.83-2.63,26.1,26.1,0,0,1,10.53,2.1l-1.39,3.89a23.93,23.93,0,0,0-9.25-2,8.94,8.94,0,0,0-5.54,1.52,5,5,0,0,0-1.53,1.87,4.9,4.9,0,0,0-.47,2.36,6.53,6.53,0,0,0,.73,3.27,7.1,7.1,0,0,0,2.47,2.34,30.69,30.69,0,0,0,5.34,2.37q6,2.16,8.31,4.62a9.15,9.15,0,0,1,2.3,6.39Zm30.1,10.22H723.9v-3.51l20.38-30.86H724.53v-4h25.18v3.49l-20.38,30.86h21Zm20,0h-4.47V116.25H753.62v-4h28.79v4H770.25Zm37.52,0L803,138.45H787.6l-4.75,12.22h-4.51l15.17-38.58h3.76l15.1,38.58Zm-6.17-16.23-4.47-11.87q-.87-2.26-1.78-5.54a49.52,49.52,0,0,1-1.65,5.54l-4.52,11.87Zm43.32,16.23h-5.25l-14-18.63-4,3.57v15h-4.46V112.27h4.46v19l17.42-19h5.28L828.92,129Zm4.8,0v-38.4h4.47v38.4Z"/><path id="zone" class="cls-2" d="M662.12,284.38a4.74,4.74,0,1,1-4.74-4.75A4.74,4.74,0,0,1,662.12,284.38Zm-53.33,4.74a4.75,4.75,0,1,0-4.75-4.74A4.74,4.74,0,0,0,608.79,289.12Zm-24.3,24.16a4.75,4.75,0,1,0-4.74-4.75A4.75,4.75,0,0,0,584.49,313.28Zm0-24.16a4.75,4.75,0,1,0-4.74-4.74A4.74,4.74,0,0,0,584.49,289.12Zm72.89,40.28a4.73,4.73,0,0,0-3.94,2.11H637a4.73,4.73,0,0,0-7.88,0H612.73a4.74,4.74,0,0,0-7.89,0h-14l18-18.23a4.76,4.76,0,0,0,4.66-4.72l19.22-19.45h.33a4.74,4.74,0,0,0,4.74-4.74c0-.13,0-.26,0-.39l19.52-19.75h.06a4.75,4.75,0,1,0-4-7.25H637.1a4.73,4.73,0,0,0-8,0H612.81a4.74,4.74,0,0,0-8,0H588.51a4.74,4.74,0,1,0,0,5h16.23a4.74,4.74,0,0,0,8.07,0h16.23a4.73,4.73,0,0,0,8.06,0H652.5l-17.73,17.95a4.7,4.7,0,0,0-1.69-.31,4.75,4.75,0,0,0-4.74,4.75,4.81,4.81,0,0,0,.33,1.74l-17.89,18.11a4.74,4.74,0,0,0-6.27,6.35l-18.77,19a4.74,4.74,0,1,0,2.85,6.94h16.09a4.74,4.74,0,0,0,8.21,0H629a4.73,4.73,0,0,0,8.2,0h16.1a4.74,4.74,0,1,0,4.1-7.11Zm0-25.61a4.75,4.75,0,1,0,4.74,4.74A4.74,4.74,0,0,0,657.38,303.79Zm-24.3,0a4.75,4.75,0,1,0,4.74,4.74A4.74,4.74,0,0,0,633.08,303.79Zm140.41-6.31c0,11.49-8,16.5-15.48,16.5-8.41,0-14.89-6.16-14.89-16,0-10.4,6.8-16.5,15.41-16.5C767.45,281.49,773.49,288,773.49,297.48Zm-24.66.32c0,6.81,3.92,11.94,9.44,11.94s9.44-5.07,9.44-12.07c0-5.26-2.63-11.94-9.31-11.94S748.83,291.89,748.83,297.8Zm31.79-7.19c0-3.21-.07-5.84-.26-8.41h5l.32,5.13h.13a11.42,11.42,0,0,1,10.27-5.84c4.3,0,11,2.57,11,13.23v18.55h-5.65V295.36c0-5-1.86-9.18-7.19-9.18a8.27,8.27,0,0,0-8,8.41v18.68h-5.65Zm38.78,8.15c.13,7.64,5,10.79,10.66,10.79a20.59,20.59,0,0,0,8.6-1.6l1,4a25.11,25.11,0,0,1-10.33,1.93c-9.57,0-15.29-6.3-15.29-15.67s5.53-16.76,14.58-16.76c10.14,0,12.84,8.93,12.84,14.64a22,22,0,0,1-.19,2.63Zm16.56-4c.07-3.6-1.47-9.18-7.83-9.18-5.71,0-8.22,5.26-8.67,9.18ZM735.8,283l-9.29,18.38H737.2v11.91H708l9.24-18.44h-9.6V283Z"/></svg>