<svg id="Layer_1" data-name="Layer 1" xmlns="http://www.w3.org/2000/svg" viewBox="0 0 694.67 580.67"><defs><style>.cls-1{fill:#666;}.cls-2{fill:#fff;}.cls-3{fill:#e5ba40;}.cls-4,.cls-7{fill:none;stroke-linecap:round;stroke-linejoin:round;stroke-width:5px;}.cls-4{stroke:#8ccfb3;}.cls-5{fill:#8ccfb3;}.cls-6{fill:#e57873;}.cls-7{stroke:#e57873;}</style></defs><path class="cls-1" d="M83.7,467.49v-40a24,24,0,0,0,.8-4.38c.06-17.17,1.91-34.19,3.92-51.22a581.62,581.62,0,0,1,22-103.36c4.92-15.95,12.33-30.64,25.4-41.67,18.72-15.79,40.77-21.71,64.86-21.68,15.86,0,29.33,4.26,38.91,18.08a40.38,40.38,0,0,0,24.84,16.49c10.75,2.48,21.76,4.35,32.59,4.29,43.44-.25,86.94,2.53,130.31-1.83,15.48-1.56,29.08-6.66,37.9-20.79,5.3-8.48,13.54-13.36,23.21-15a92.83,92.83,0,0,1,36.71.89c24.81,5.66,45.83,16.9,58.58,40.23A122.13,122.13,0,0,1,593,269a549.31,549.31,0,0,1,25.55,146.07C619.67,444,620.26,473,614,501.65c-4.06,18.45-10.17,35.6-25.86,47.52-8.09,6.15-17.33,11.05-27.53,10.2-11.74-1-22.27-7.54-30.32-15.27A113.21,113.21,0,0,1,506,510.77c-6.35-13.53-12.55-27.35-22.09-39-6.92-8.48-11-7.74-17.69-2.42-1.44,1.13-2.92,2.23-4.46,3.21C444.42,483.45,426,485.9,407,478.29c-13.22-5.3-24.3-13.84-31.13-26.89-1.8-3.45-4-5.89-8.44-5.77-10.15.26-20.33.48-30.47.12-4.8-.17-7.4,1.78-9.4,5.69-11,21.54-30.44,29.52-52.82,31.13-14.23,1-26.9-5.11-38.33-13.51-6.64-4.88-9.57-4.55-15.26,1.56-4.69,5.05-8,11-11.21,17.08-7.06,13.42-13.86,27-22.48,39.5-11.51,16.68-26,29.36-46.72,33.28h-1c-16.33-2-28.9-10.42-38.36-23.38C93.24,526,90.15,512.8,87.52,499.54,85.42,489,85.16,478.15,83.7,467.49Z"/><circle cx="271.56" cy="394.78" r="37.78"/><circle cx="435.11" cy="394.78" r="37.78"/><circle cx="469.56" cy="311" r="20.22"/><circle cx="513.56" cy="349.22" r="20.22"/><circle cx="554" cy="308.78" r="20.22"/><circle cx="510" cy="271.44" r="20.22"/><rect x="149.33" y="296.11" width="84.44" height="26.67" rx="6.44"/><rect x="149.33" y="296.11" width="84.44" height="26.67" rx="6.44" transform="translate(-117.89 501) rotate(-90)"/><path class="cls-2" d="M472.79,299.37v23.41h-5.42V303.71h-4.68v-4.34Z"/><path class="cls-2" d="M523,357.92v4.41H505.33v-3.51l9-8.53a10,10,0,0,0,1.94-2.35,4.35,4.35,0,0,0,.5-2,2.58,2.58,0,0,0-1-2.16,4.42,4.42,0,0,0-2.79-.75,6.54,6.54,0,0,0-2.77.58,5.33,5.33,0,0,0-2.08,1.76l-3.94-2.54a9.26,9.26,0,0,1,3.77-3.2,12.79,12.79,0,0,1,5.52-1.15,11.54,11.54,0,0,1,4.57.85,7.09,7.09,0,0,1,3,2.41,6.2,6.2,0,0,1,1.09,3.66,8.23,8.23,0,0,1-.8,3.58,13.84,13.84,0,0,1-3.11,3.81L513,357.92Z"/><path class="cls-2" d="M562.73,308.26a6.28,6.28,0,0,1,1.64,4.43,6.93,6.93,0,0,1-1.07,3.76,7.42,7.42,0,0,1-3.26,2.76,12.51,12.51,0,0,1-5.37,1,18.14,18.14,0,0,1-4.86-.66,12.52,12.52,0,0,1-4.07-1.85l2.11-4.15a10.2,10.2,0,0,0,3.09,1.56,12.23,12.23,0,0,0,3.6.55,5.65,5.65,0,0,0,3.21-.79,2.51,2.51,0,0,0,1.17-2.22q0-2.88-4.38-2.88h-2.47v-3.58l4.81-5.45h-10v-4.35H563.3V300L558,306A7.8,7.8,0,0,1,562.73,308.26Z"/><path class="cls-2" d="M520.3,278h-3.82V283H511.2V278H498.59v-3.65l11-14.84h5.68l-10.23,14.08h6.29v-4.39h5.11v4.39h3.82Z"/><rect class="cls-3" x="320.3" y="274.74" width="66.37" height="43.39" rx="18.37"/><rect x="281.19" y="275.96" width="31.11" height="16.89" rx="6.67"/><rect x="290.07" y="314.33" width="31.11" height="16.89" rx="6.67"/><rect x="394.37" y="276.33" width="31.11" height="16.89" rx="6.67" transform="translate(819.85 569.56) rotate(-180)"/><rect x="385.48" y="314.7" width="31.11" height="16.89" rx="6.67" transform="translate(802.07 646.3) rotate(-180)"/><polyline class="cls-4" points="469.56 290.78 469.56 239.22 605.93 239.22 605.93 70.33"/><polyline class="cls-4" points="498.59 204.96 498.59 169.89 580.44 169.89 580.44 70.33"/><polyline class="cls-4" points="533.78 208.52 533.78 185.89 592.89 185.89 592.89 70.33"/><path class="cls-5" d="M423.37,34.87a6.89,6.89,0,0,1-2.34-1.1l1-2.29a7,7,0,0,0,2,1,7.61,7.61,0,0,0,2.33.37,3.69,3.69,0,0,0,1.92-.38,1.16,1.16,0,0,0,.62-1,1,1,0,0,0-.37-.78,2.72,2.72,0,0,0-.93-.49c-.39-.13-.9-.27-1.56-.42a21.68,21.68,0,0,1-2.46-.71A4,4,0,0,1,422,27.89a3.07,3.07,0,0,1-.69-2.1,3.68,3.68,0,0,1,.62-2.08,4.28,4.28,0,0,1,1.87-1.48,7.72,7.72,0,0,1,3.06-.54,10.1,10.1,0,0,1,2.46.3,7.4,7.4,0,0,1,2.1.86l-.94,2.32a7.31,7.31,0,0,0-3.64-1,3.39,3.39,0,0,0-1.89.42,1.25,1.25,0,0,0-.61,1.09,1.06,1.06,0,0,0,.7,1,10.87,10.87,0,0,0,2.15.65,23.53,23.53,0,0,1,2.47.71,4.14,4.14,0,0,1,1.64,1.13,3,3,0,0,1,.69,2.09,3.6,3.6,0,0,1-.63,2.06,4.2,4.2,0,0,1-1.89,1.47,7.58,7.58,0,0,1-3.06.55A10.5,10.5,0,0,1,423.37,34.87Z"/><path class="cls-5" d="M436.59,24.4h-4.21V21.91h11.47V24.4h-4.21V35.07h-3.05Z"/><path class="cls-5" d="M453.49,32.25h-6.11l-1.17,2.82h-3.12L449,21.91h3l5.88,13.16h-3.2Zm-1-2.31-2.09-5-2.08,5Z"/><path class="cls-5" d="M467.6,35.07l-2.53-3.66h-2.81v3.66h-3V21.91h5.69a7.29,7.29,0,0,1,3,.59,4.69,4.69,0,0,1,2,6.72,4.44,4.44,0,0,1-2,1.62l2.95,4.23ZM466.83,25a3.15,3.15,0,0,0-2.08-.59h-2.49V29h2.49a3.15,3.15,0,0,0,2.08-.6,2.36,2.36,0,0,0,0-3.39Z"/><path class="cls-5" d="M475.57,24.4h-4.21V21.91h11.47V24.4h-4.21V35.07h-3.05Z"/><path class="cls-5" d="M498.51,22.5a4.71,4.71,0,0,1,2,6.72,4.37,4.37,0,0,1-2,1.65,7.45,7.45,0,0,1-3,.57h-2.66v3.63h-3V21.91h5.7A7.28,7.28,0,0,1,498.51,22.5Zm-1.12,5.87a2,2,0,0,0,.72-1.68,2.07,2.07,0,0,0-.72-1.7,3.15,3.15,0,0,0-2.08-.59h-2.49V29h2.49A3.15,3.15,0,0,0,497.39,28.37Z"/><path class="cls-5" d="M504.75,33.74a6,6,0,0,1-1.57-4.46V21.91h3.05v7.26c0,2.36,1,3.53,2.93,3.53a2.75,2.75,0,0,0,2.18-.85,4,4,0,0,0,.75-2.68V21.91h3v7.37a6,6,0,0,1-1.57,4.46,7,7,0,0,1-8.78,0Z"/><path class="cls-5" d="M529.53,29.42a3.29,3.29,0,0,1,.64,2.06,3.05,3.05,0,0,1-1.34,2.66,6.9,6.9,0,0,1-3.92.93H518.1V21.91h6.43a6.26,6.26,0,0,1,3.7.93,2.91,2.91,0,0,1,1.28,2.5,3.22,3.22,0,0,1-.46,1.71,3.18,3.18,0,0,1-1.28,1.18A3.49,3.49,0,0,1,529.53,29.42Zm-8.4-5.21v3.1h3a3,3,0,0,0,1.71-.4,1.45,1.45,0,0,0,0-2.32,3.19,3.19,0,0,0-1.71-.38Zm5.37,8.17a1.36,1.36,0,0,0,.61-1.22c0-1.09-.81-1.63-2.43-1.63h-3.55v3.25h3.55A3.32,3.32,0,0,0,526.5,32.38Z"/><path class="cls-5" d="M532.48,21.91h3V32.59h6.59v2.48h-9.64Z"/><path class="cls-5" d="M543.83,21.91h3V35.07h-3Z"/><path class="cls-5" d="M551.31,34.87a6.71,6.71,0,0,1-2.34-1.1l1-2.29a6.75,6.75,0,0,0,2,1,7.56,7.56,0,0,0,2.33.37,3.71,3.71,0,0,0,1.92-.38,1.18,1.18,0,0,0,.62-1,1,1,0,0,0-.37-.78,2.78,2.78,0,0,0-.94-.49c-.38-.13-.9-.27-1.55-.42a21.68,21.68,0,0,1-2.46-.71,4,4,0,0,1-1.65-1.15,3.12,3.12,0,0,1-.68-2.1,3.68,3.68,0,0,1,.62-2.08,4.22,4.22,0,0,1,1.87-1.48,7.67,7.67,0,0,1,3-.54,10.25,10.25,0,0,1,2.47.3,7.4,7.4,0,0,1,2.1.86l-.94,2.32a7.32,7.32,0,0,0-3.65-1,3.39,3.39,0,0,0-1.89.42,1.27,1.27,0,0,0-.61,1.09,1.07,1.07,0,0,0,.71,1,10.87,10.87,0,0,0,2.15.65,24,24,0,0,1,2.46.71,4.17,4.17,0,0,1,1.65,1.13,3,3,0,0,1,.68,2.09,3.6,3.6,0,0,1-.63,2.06,4.17,4.17,0,0,1-1.88,1.47,7.59,7.59,0,0,1-3.07.55A10.43,10.43,0,0,1,551.31,34.87Z"/><path class="cls-5" d="M574.06,21.91V35.07h-3V29.68h-6v5.39h-3V21.91h3V27.1h6V21.91Z"/><path class="cls-5" d="M577.18,21.91h3V35.07h-3Z"/><path class="cls-5" d="M595.41,21.91V35.07h-2.5l-6.56-8v8h-3V21.91h2.52l6.54,8v-8Z"/><path class="cls-5" d="M607.42,28.29h2.78v5.33a7.7,7.7,0,0,1-2.48,1.24,9.61,9.61,0,0,1-2.84.44,7.58,7.58,0,0,1-3.68-.88A6.51,6.51,0,0,1,598.63,32a7.07,7.07,0,0,1,0-7,6.46,6.46,0,0,1,2.59-2.43,7.85,7.85,0,0,1,3.72-.87,8,8,0,0,1,3.13.58A6.16,6.16,0,0,1,610.44,24l-2,1.81a4.53,4.53,0,0,0-3.4-1.49,4.66,4.66,0,0,0-2.24.53,3.74,3.74,0,0,0-1.52,1.48,4.33,4.33,0,0,0-.55,2.2,4.26,4.26,0,0,0,.55,2.18,3.82,3.82,0,0,0,1.51,1.5,4.57,4.57,0,0,0,2.21.53,4.88,4.88,0,0,0,2.37-.56Z"/><path class="cls-5" d="M562.84,44.47V57.63h-3.05V46.91h-2.63V44.47Z"/><path class="cls-5" d="M574.51,52.19h-3.27v3.2h-2.43v-3.2h-3.25V49.9h3.25V46.71h2.43V49.9h3.27Z"/><path class="cls-5" d="M585.09,49.88a4.09,4.09,0,0,1,1.64,1.44,3.89,3.89,0,0,1,.6,2.15,4.07,4.07,0,0,1-.66,2.31,4.3,4.3,0,0,1-1.8,1.54,5.92,5.92,0,0,1-2.52.53A5.58,5.58,0,0,1,578,56.16a6.88,6.88,0,0,1-1.56-4.83,8,8,0,0,1,.85-3.83,5.71,5.71,0,0,1,2.36-2.43,7.19,7.19,0,0,1,3.5-.83,8.34,8.34,0,0,1,2,.24,5.42,5.42,0,0,1,1.65.67l-1.13,2.23a4.29,4.29,0,0,0-2.46-.66,3.58,3.58,0,0,0-2.65,1,4.1,4.1,0,0,0-1.05,2.84,4.37,4.37,0,0,1,3.25-1.17A5.1,5.1,0,0,1,585.09,49.88Zm-1.32,5.17a1.81,1.81,0,0,0,.61-1.43,1.85,1.85,0,0,0-.61-1.44,2.75,2.75,0,0,0-3.27,0,1.83,1.83,0,0,0-.64,1.42,1.77,1.77,0,0,0,.63,1.41,2.42,2.42,0,0,0,1.69.55A2.37,2.37,0,0,0,583.77,55.05Z"/><path class="cls-5" d="M597.91,52.19h-3.27v3.2h-2.43v-3.2H589V49.9h3.25V46.71h2.43V49.9h3.27Z"/><path class="cls-5" d="M610.28,52a3.19,3.19,0,0,1,.52,1.82,3.42,3.42,0,0,1-.69,2.13,4.46,4.46,0,0,1-2,1.41,8.72,8.72,0,0,1-5.82,0,4.36,4.36,0,0,1-1.93-1.41,3.42,3.42,0,0,1-.69-2.13,3.19,3.19,0,0,1,.52-1.82,3.69,3.69,0,0,1,1.47-1.28,3.21,3.21,0,0,1-1.12-1.14,3,3,0,0,1-.4-1.57,3.24,3.24,0,0,1,.64-2,4.14,4.14,0,0,1,1.79-1.31,7.14,7.14,0,0,1,2.63-.46,7.3,7.3,0,0,1,2.66.46A4.08,4.08,0,0,1,609.69,46a3.18,3.18,0,0,1,.64,2,3.13,3.13,0,0,1-.39,1.57,3.22,3.22,0,0,1-1.15,1.14A3.62,3.62,0,0,1,610.28,52Zm-3.23,3.11a1.66,1.66,0,0,0,.67-1.38,1.63,1.63,0,0,0-.67-1.38,3,3,0,0,0-1.81-.5,2.93,2.93,0,0,0-1.79.5,1.78,1.78,0,0,0,0,2.77,2.86,2.86,0,0,0,1.79.5A2.9,2.9,0,0,0,607.05,55.1Zm-3.29-8.18a1.47,1.47,0,0,0-.55,1.21,1.44,1.44,0,0,0,.54,1.19,2.34,2.34,0,0,0,1.49.43,2.39,2.39,0,0,0,1.5-.43,1.41,1.41,0,0,0,.57-1.19,1.46,1.46,0,0,0-.57-1.21,2.39,2.39,0,0,0-1.5-.44A2.33,2.33,0,0,0,603.76,46.92Z"/><path class="cls-6" d="M68.91,39a7.08,7.08,0,0,1-2.34-1.1l1-2.29a7.18,7.18,0,0,0,2,1A7.53,7.53,0,0,0,72,37a3.66,3.66,0,0,0,1.91-.39,1.14,1.14,0,0,0,.62-1,1,1,0,0,0-.36-.78,2.89,2.89,0,0,0-.94-.5c-.39-.12-.9-.26-1.55-.41a21.1,21.1,0,0,1-2.47-.72A4.06,4.06,0,0,1,67.52,32a3.1,3.1,0,0,1-.69-2.11,3.71,3.71,0,0,1,.62-2.08,4.2,4.2,0,0,1,1.87-1.47,7.71,7.71,0,0,1,3.06-.55,10.1,10.1,0,0,1,2.46.3A7.31,7.31,0,0,1,77,27L76,29.29a7.36,7.36,0,0,0-3.65-1,3.49,3.49,0,0,0-1.89.41,1.26,1.26,0,0,0-.61,1.09,1.07,1.07,0,0,0,.7,1,10.91,10.91,0,0,0,2.16.64,21.45,21.45,0,0,1,2.46.72,4,4,0,0,1,1.64,1.13,3,3,0,0,1,.69,2.08,3.6,3.6,0,0,1-.63,2.06A4.29,4.29,0,0,1,75,38.88a7.76,7.76,0,0,1-3.06.54A10.85,10.85,0,0,1,68.91,39Z"/><path class="cls-6" d="M82.13,28.52H77.92V26H89.39v2.48H85.18V39.2H82.13Z"/><path class="cls-6" d="M93.51,38.54A6.58,6.58,0,0,1,90,32.62a6.55,6.55,0,0,1,3.5-5.92,7.7,7.7,0,0,1,3.7-.89,7.62,7.62,0,0,1,3.68.89,6.53,6.53,0,0,1,3.51,5.92,6.56,6.56,0,0,1-3.51,5.92,7.61,7.61,0,0,1-3.68.88A7.69,7.69,0,0,1,93.51,38.54Zm5.8-2.25a3.79,3.79,0,0,0,1.48-1.49,4.75,4.75,0,0,0,0-4.36,3.88,3.88,0,0,0-1.48-1.5,4.45,4.45,0,0,0-4.21,0,3.79,3.79,0,0,0-1.47,1.5,4.67,4.67,0,0,0,0,4.36,3.7,3.7,0,0,0,1.47,1.49,4.37,4.37,0,0,0,4.21,0Z"/><path class="cls-6" d="M115.43,26.62a4.46,4.46,0,0,1,2,1.66,4.92,4.92,0,0,1,0,5.06,4.46,4.46,0,0,1-2,1.66,7.46,7.46,0,0,1-3,.57h-2.65V39.2h-3V26h5.69A7.3,7.3,0,0,1,115.43,26.62Zm-1.12,5.88a2.38,2.38,0,0,0,0-3.39,3.23,3.23,0,0,0-2.09-.59h-2.48v4.57h2.48A3.23,3.23,0,0,0,114.31,32.5Z"/><path class="cls-6" d="M134.5,26.62a4.35,4.35,0,0,1,2.68,4.19,4.59,4.59,0,0,1-.69,2.53,4.54,4.54,0,0,1-2,1.66,7.41,7.41,0,0,1-3,.57h-2.65V39.2h-3V26h5.7A7.25,7.25,0,0,1,134.5,26.62Zm-1.11,5.88a2.38,2.38,0,0,0,0-3.39,3.25,3.25,0,0,0-2.09-.59h-2.48v4.57h2.48A3.25,3.25,0,0,0,133.39,32.5Z"/><path class="cls-6" d="M140.74,37.86a6,6,0,0,1-1.57-4.45V26h3.05v7.25q0,3.54,2.93,3.54a2.75,2.75,0,0,0,2.18-.86,4,4,0,0,0,.75-2.68V26h3v7.37a6,6,0,0,1-1.57,4.45,7,7,0,0,1-8.78,0Z"/><path class="cls-6" d="M165.53,33.55a3.32,3.32,0,0,1,.63,2.06,3,3,0,0,1-1.34,2.66,6.88,6.88,0,0,1-3.92.93h-6.8V26h6.43a6.32,6.32,0,0,1,3.69.92,2.91,2.91,0,0,1,1.29,2.5,3.26,3.26,0,0,1-.46,1.71,3.2,3.2,0,0,1-1.29,1.18A3.51,3.51,0,0,1,165.53,33.55Zm-8.41-5.22v3.1h3a3.09,3.09,0,0,0,1.71-.39,1.31,1.31,0,0,0,.58-1.17,1.27,1.27,0,0,0-.58-1.15,3.09,3.09,0,0,0-1.71-.39Zm5.37,8.18a1.34,1.34,0,0,0,.61-1.22c0-1.09-.81-1.64-2.42-1.64h-3.56V36.9h3.56A3.4,3.4,0,0,0,162.49,36.51Z"/><path class="cls-6" d="M168.48,26h3V36.71h6.6V39.2h-9.64Z"/><path class="cls-6" d="M179.83,26h3V39.2h-3Z"/><path class="cls-6" d="M187.3,39A7.08,7.08,0,0,1,185,37.9l1-2.29a7.25,7.25,0,0,0,2,1,7.62,7.62,0,0,0,2.33.38,3.68,3.68,0,0,0,1.92-.39,1.14,1.14,0,0,0,.62-1,1,1,0,0,0-.36-.78,2.89,2.89,0,0,0-.94-.5c-.39-.12-.9-.26-1.56-.41a21.45,21.45,0,0,1-2.46-.72A4.06,4.06,0,0,1,185.91,32a3.1,3.1,0,0,1-.69-2.11,3.71,3.71,0,0,1,.62-2.08,4.2,4.2,0,0,1,1.87-1.47,7.71,7.71,0,0,1,3.06-.55,10.1,10.1,0,0,1,2.46.3,7.13,7.13,0,0,1,2.1.87l-.94,2.31a7.3,7.3,0,0,0-3.64-1,3.49,3.49,0,0,0-1.89.41,1.26,1.26,0,0,0-.61,1.09,1.07,1.07,0,0,0,.7,1,11,11,0,0,0,2.15.64,21.1,21.1,0,0,1,2.47.72,4,4,0,0,1,1.64,1.13,3,3,0,0,1,.69,2.08,3.6,3.6,0,0,1-.63,2.06,4.29,4.29,0,0,1-1.89,1.48,7.76,7.76,0,0,1-3.06.54A10.85,10.85,0,0,1,187.3,39Z"/><path class="cls-6" d="M210.05,26V39.2h-3V33.8h-6v5.4H198V26H201v5.19h6V26Z"/><path class="cls-6" d="M213.17,26h3.05V39.2h-3.05Z"/><path class="cls-6" d="M231.4,26V39.2h-2.5l-6.56-8v8h-3V26h2.52l6.54,8V26Z"/><path class="cls-6" d="M243.41,32.41h2.78v5.34A7.91,7.91,0,0,1,243.71,39a9.55,9.55,0,0,1-2.84.43,7.72,7.72,0,0,1-3.68-.87,6.54,6.54,0,0,1-2.57-2.43,7.07,7.07,0,0,1,0-7,6.5,6.5,0,0,1,2.59-2.42,7.74,7.74,0,0,1,3.72-.88,8.13,8.13,0,0,1,3.14.59,6.13,6.13,0,0,1,2.37,1.69l-2,1.8a4.51,4.51,0,0,0-3.4-1.48,4.69,4.69,0,0,0-2.24.52,3.76,3.76,0,0,0-1.52,1.49,4.71,4.71,0,0,0,0,4.38,3.8,3.8,0,0,0,1.51,1.49,4.49,4.49,0,0,0,2.21.54,4.89,4.89,0,0,0,2.37-.57Z"/><path class="cls-6" d="M75.39,54.65a3.63,3.63,0,0,1,1.33,3,4.08,4.08,0,0,1-.6,2.18,4.15,4.15,0,0,1-1.83,1.58,6.92,6.92,0,0,1-3,.6,10.45,10.45,0,0,1-2.73-.37,7.22,7.22,0,0,1-2.29-1l1.2-2.33a6.11,6.11,0,0,0,1.73.87,6.59,6.59,0,0,0,2,.31A3.17,3.17,0,0,0,73,59a1.44,1.44,0,0,0,.66-1.26A1.42,1.42,0,0,0,73,56.43,4.73,4.73,0,0,0,70.57,56H67.21l.68-7.41h8V51H70.42l-.2,2.5h1.07A6.3,6.3,0,0,1,75.39,54.65Z"/><path class="cls-6" d="M87.34,56.32H84.07v3.19H81.64V56.32H78.39V54h3.25v-3.2h2.43V54h3.27Z"/><path class="cls-6" d="M97.92,54a3.91,3.91,0,0,1,1.63,1.43,3.82,3.82,0,0,1,.61,2.16,4.11,4.11,0,0,1-.66,2.31,4.35,4.35,0,0,1-1.8,1.53,5.78,5.78,0,0,1-2.52.54,5.59,5.59,0,0,1-4.33-1.7,6.84,6.84,0,0,1-1.56-4.83,8,8,0,0,1,.85-3.83,5.77,5.77,0,0,1,2.36-2.43,7.18,7.18,0,0,1,3.5-.82,8.87,8.87,0,0,1,2,.23,5.42,5.42,0,0,1,1.65.67l-1.13,2.24a4.29,4.29,0,0,0-2.46-.66,3.54,3.54,0,0,0-2.65,1,4,4,0,0,0-1.05,2.83,4.41,4.41,0,0,1,3.25-1.16A5.1,5.1,0,0,1,97.92,54Zm-1.33,5.17a1.8,1.8,0,0,0,.62-1.43,1.82,1.82,0,0,0-.62-1.44A2.33,2.33,0,0,0,95,55.77a2.42,2.42,0,0,0-1.64.56,1.9,1.9,0,0,0,0,2.83,2.51,2.51,0,0,0,1.7.54A2.32,2.32,0,0,0,96.59,59.18Z"/><path class="cls-6" d="M110.74,56.32h-3.27v3.19H105V56.32h-3.25V54H105v-3.2h2.43V54h3.27Z"/><path class="cls-6" d="M122.73,48.59v2l-4.89,11.18h-3.31l4.72-10.68h-4.36v2.15h-2.71V48.59Z"/><path class="cls-6" d="M132.52,56.32h-3.27v3.19h-2.42V56.32h-3.25V54h3.25v-3.2h2.42V54h3.27Z"/><path class="cls-6" d="M144.9,56.11a3.31,3.31,0,0,1,.52,1.82,3.46,3.46,0,0,1-.7,2.14,4.4,4.4,0,0,1-2,1.41,7.92,7.92,0,0,1-2.91.5,7.83,7.83,0,0,1-2.9-.5A4.34,4.34,0,0,1,135,60.07a3.44,3.44,0,0,1-.68-2.14,3.3,3.3,0,0,1,.51-1.82,3.89,3.89,0,0,1,1.48-1.28,3.22,3.22,0,0,1-1.13-1.13,3.13,3.13,0,0,1-.39-1.57,3.27,3.27,0,0,1,.63-2,4.19,4.19,0,0,1,1.79-1.3,6.94,6.94,0,0,1,2.63-.46,7.1,7.1,0,0,1,2.66.46,4.16,4.16,0,0,1,1.8,1.3,3.27,3.27,0,0,1,.64,2,3,3,0,0,1-1.55,2.7A3.88,3.88,0,0,1,144.9,56.11Zm-3.23,3.11a1.65,1.65,0,0,0,.66-1.38,1.63,1.63,0,0,0-.66-1.37,2.94,2.94,0,0,0-1.82-.51,2.83,2.83,0,0,0-1.78.51,1.63,1.63,0,0,0-.66,1.37,1.66,1.66,0,0,0,.66,1.39,2.83,2.83,0,0,0,1.78.51A2.87,2.87,0,0,0,141.67,59.22Zm-3.29-8.17a1.46,1.46,0,0,0-.56,1.21,1.41,1.41,0,0,0,.55,1.18,2.29,2.29,0,0,0,1.48.44,2.42,2.42,0,0,0,1.51-.44,1.42,1.42,0,0,0,.56-1.18,1.46,1.46,0,0,0-.56-1.21,2.36,2.36,0,0,0-1.51-.45A2.26,2.26,0,0,0,138.38,51.05Z"/><polyline class="cls-7" points="69.97 70.33 69.97 187.07 163.85 187.07 163.85 210.89"/><polyline class="cls-7" points="83.7 70.33 83.7 175.81 200.59 175.81 200.59 207.67"/><polyline class="cls-7" points="96.3 70.33 96.3 159.81 489.78 159.81 489.78 206.38"/><polyline class="cls-7" points="108.15 70.33 108.15 149.15 526.52 149.15 526.52 208.52"/></svg>