<svg id="Layer_1" data-name="Layer 1" xmlns="http://www.w3.org/2000/svg" viewBox="0 0 694.67 580.67"><defs><style>.cls-1{fill:#303030;}.cls-2{fill:#010101;}.cls-3{fill:#191919;}.cls-4{fill:#506bb3;}.cls-5{fill:#c7c6c5;}.cls-6{fill:#445fac;}.cls-7{fill:#516db4;}.cls-8{fill:#f3f7fb;}</style></defs><path class="cls-1" d="M628.5,533.27H51.77V228.41H628.5ZM340,259.74H405.9c2.6,0,3.24-.64,3.25-3.25V236.72c0-2.95-.56-3.5-3.58-3.5H275a13.22,13.22,0,0,0-1.41,0c-1.94.23-2.49.85-2.49,2.81q0,10.44,0,20.89a3.65,3.65,0,0,0,.18,1.38c.58,1.47,1.84,1.4,3.06,1.4ZM198.14,273v0H62.21c-2,0-2,0-2,2V520.88c0,.89,0,1.78,0,2.68s.28,1.37,1.22,1.23a41,41,0,0,1,6,0H331.05c1.32,0,2.64,0,3.95,0,.82,0,1.07-.3,1.05-1.07,0-1.84,0-3.67,0-5.51v-243c0-2.19,0-2.19-2-2.19Zm284,251.81h0q68.16,0,136.33,0c1.17,0,1.61-.28,1.61-1.56q0-124,0-248.09c0-2.17,0-2.17-2.18-2.17H347.59c-.6,0-1.21.1-1.8.12-1.29,0-1.3.73-1.3,1.72q0,123.76,0,247.52c0,2.77-.26,2.41,2.4,2.41ZM214.6,246a12.23,12.23,0,0,0,.24,3.36,3.9,3.9,0,0,0,3.79,3,3.73,3.73,0,0,0,3.87-3.05,15.91,15.91,0,0,0,0-6.3,3.61,3.61,0,0,0-3.68-3.06,3.67,3.67,0,0,0-4,2.84A12.52,12.52,0,0,0,214.6,246Zm-108.16.09c0,.94.09,1.88.17,2.81a3.43,3.43,0,0,0,.26.95,3.81,3.81,0,0,0,3.59,2.5,3.69,3.69,0,0,0,3.63-2.2,12.73,12.73,0,0,0,.06-7.91,3.59,3.59,0,0,0-3.8-2.33,3.67,3.67,0,0,0-3.52,2.54A12.79,12.79,0,0,0,106.44,246.09Zm9.7.1c0,.8-.06,1.6,0,2.39a4,4,0,0,0,3.7,3.75A3.76,3.76,0,0,0,124,249a14,14,0,0,0-.16-6.4,3.58,3.58,0,0,0-3.79-2.71,3.72,3.72,0,0,0-3.74,2.8A11.68,11.68,0,0,0,116.14,246.19Zm108.11-.14a23.73,23.73,0,0,0,0,2.53,3.92,3.92,0,0,0,3.69,3.75,3.76,3.76,0,0,0,4.14-3,14.31,14.31,0,0,0-.14-6.82,3.5,3.5,0,0,0-3.46-2.56,3.76,3.76,0,0,0-3.92,2.36A9.55,9.55,0,0,0,224.25,246.05Zm-14.79-6v0a18.54,18.54,0,0,1-2.11,0c-1.07-.14-1.4.35-1.46,1.32-.06,1.17-.22,2.34-.37,3.5-.18,1.46.64,2.12,2.07,1.63a4.57,4.57,0,0,1,.9-.36c1-.13,1.86.06,2.13,1.11s.41,2.26-.74,2.89a1.54,1.54,0,0,1-2.31-.84c-.52-1-1.58-.62-2.23-.4s-.06,1,.12,1.43a3.07,3.07,0,0,0,1.6,1.51,4.46,4.46,0,0,0,4.89-.42,4.87,4.87,0,0,0,.91-5.23c-.67-1.48-2.13-2.17-4.3-1.82-.85.14-.68-.22-.68-.71,0-1,.23-1.65,1.43-1.55.79.07,1.6,0,2.39,0s1.2-.08,1.22-1-.46-1.06-1.21-1S210.21,240,209.46,240Zm377.87,4.41a3.32,3.32,0,0,1,3.06-2.43c1.07-.08.82-.76.85-1.38,0-.87-.61-.69-1.08-.65a5.43,5.43,0,0,0-4.76,3.23,9.31,9.31,0,0,0-.56,5.53,4.09,4.09,0,0,0,5.2,3.43c2.28-.54,3.52-3,2.84-5.48q-.95-3.52-5.12-2.21A1.69,1.69,0,0,1,587.33,244.45Zm-487.46,0c-.23-2.24-.11-2.38,1.89-2.38.66,0,1.32,0,2,0,.83.07,1.05-.32,1-1.08s-.24-1-1-1c-1.64.05-3.29,0-4.93,0-.67,0-1,.13-1,.93,0,1.21-.25,2.42-.36,3.64-.19,1.88.52,2.4,2.31,1.68,1.06-.43,2-.41,2.66.71.52,1,.21,2.71-.55,3.08-1.13.54-1.88.22-2.5-.95-.44-.84-1.5-.48-2.16-.26s-.1.92.07,1.33c1.06,2.46,5.32,2.89,7,.74a4.8,4.8,0,0,0,.26-5.19C103.34,244,101.66,244,99.87,244.46Zm360.81,5.7c1.29-1.67,2.74-2.83,3.75-4.35a3.76,3.76,0,0,0,.4-4.23c-.86-1.52-2.34-1.72-3.91-1.65a3.69,3.69,0,0,0-3.46,2.44c-.19.47-.65,1.29,0,1.43s1.76.76,2.21-.62A1.6,1.6,0,0,1,462,242a1.73,1.73,0,0,1,.6,2.46,7.49,7.49,0,0,1-1.57,2.13c-1.07,1.13-2.11,2.28-3.21,3.37a1.74,1.74,0,0,0-.34,1.84c.17.57.81.28,1.24.29,2,0,4,0,6.06,0,.83,0,.89-.38.9-1s-.11-1-.92-1C463.5,250.22,462.24,250.16,460.68,250.16Zm117.7,0c1.3-1.63,2.68-2.78,3.69-4.25a3.89,3.89,0,0,0,.46-4.35c-.82-1.52-2.29-1.66-3.78-1.64a3.71,3.71,0,0,0-3.53,2.36c-.2.45-.83,1.31,0,1.52.64.15,1.81.78,2.18-.65A1.51,1.51,0,0,1,579.6,242c1.09.42,1.16,1.42.77,2.38a7.65,7.65,0,0,1-1.65,2.27c-1.06,1.12-2.11,2.26-3.2,3.36a1.74,1.74,0,0,0-.31,1.85c.16.55.81.25,1.24.26,2,0,3.95,0,5.92,0,.81,0,1-.25,1-1s-.37-1-1.09-1C581.11,250.19,579.9,250.16,578.38,250.16Zm-94.69-6.26c0-.85,0-1.69,0-2.54,0-.45.3-1.19-.47-1.26s-1.66-.44-2.2.4c-1.57,2.4-3.13,4.8-4.57,7.27-.66,1.12-.13,1.78,1.2,1.79a18.55,18.55,0,0,0,2.11,0c1.13-.13,1.72.22,1.51,1.45-.16.93.26,1.17,1.16,1.17s1.4-.16,1.28-1.23c-.07-.61-.31-1.47.9-1.42.65,0,.46-.58.48-1s.15-1-.52-.92c-1,.06-.89-.55-.87-1.18C483.7,245.59,483.69,244.74,483.69,243.9Zm88.91,0c0-.85,0-1.7,0-2.54,0-.44.34-1.19-.45-1.25s-1.68-.42-2.22.4c-1.55,2.36-3.09,4.72-4.52,7.15-.68,1.15-.14,1.91,1.17,1.92a16.49,16.49,0,0,0,2.11,0c1.14-.14,1.71.23,1.5,1.43s.45,1.15,1.31,1.19,1.21-.36,1.13-1.22-.18-1.49,1-1.48c.52,0,.3-.68.34-1.08s.06-.77-.4-.74c-1.26.07-1-.8-1-1.5S572.61,244.63,572.6,243.88Zm-98.51,0c0-.85,0-1.69,0-2.53,0-.46.32-1.22-.44-1.27s-1.64-.49-2.19.36c-1.56,2.4-3.13,4.79-4.59,7.24-.67,1.13-.16,1.85,1.11,1.86a21.14,21.14,0,0,0,2.39,0c1.11-.13,1.46.37,1.29,1.36s.28,1.25,1.24,1.26,1.34-.25,1.23-1.25c-.06-.61-.35-1.47.9-1.38.61,0,.45-.63.45-1s.2-.92-.36-.89c-1.26.07-1-.79-1-1.49S474.09,244.65,474.09,243.9Zm-20.42,2.26h0c0-1.74,0-3.48,0-5.21,0-.37.18-1.1-.7-.77-1.36.51-2.74,1-4.09,1.51-.86.34-.54,1.18-.43,1.72s.68.11,1,.05a2,2,0,0,0,.68-.2c.9-.44,1.12-.09,1.1.81,0,2.34,0,4.69,0,7,0,1,.39,1.07,1.17,1s1.39.06,1.33-1C453.61,249.45,453.67,247.8,453.67,246.16Zm-360.51,0h0c0-1.74,0-3.48,0-5.21,0-.69-.17-1-.9-.68-1.27.48-2.55.92-3.83,1.37-.28.1-.55.22-.55.56s-.14,1,.08,1.37.77,0,1.16-.15c1.59-.49,1.58-.49,1.58,1.15,0,2.16.06,4.32,0,6.48,0,1,.41,1.15,1.24,1.12s1.35.06,1.26-1.08C93.06,249.43,93.16,247.78,93.16,246.14Zm468.62,0h0c0-1.6,0-3.2,0-4.79,0-1-.06-1.56-1.26-1a10.76,10.76,0,0,1-2.78,1c-1.17.22-1.52.94-1.21,1.87s1.16.19,1.59,0c1.16-.43,1.25.06,1.23,1,0,2.3,0,4.61,0,6.9,0,1.07.55,1,1.22,1s1.32.15,1.27-.94C561.72,249.5,561.78,247.81,561.78,246.12Zm-360.49,0c0-1.55,0-3.11,0-4.65,0-1.18-.21-1.69-1.47-1.06a11.49,11.49,0,0,1-2.65,1,1.35,1.35,0,0,0-1.12,2c.33.86,1.07.09,1.52-.06,1-.35,1.31-.14,1.28.94-.06,2.2,0,4.42,0,6.62,0,.9.11,1.33,1.19,1.34s1.34-.41,1.3-1.4C201.24,249.23,201.29,247.68,201.29,246.13Z"/><path class="cls-2" d="M628.5,533.27V228.41q19.83,0,39.67,0c.84,0,1,.17,1,1q0,151.44,0,302.88c0,.84-.17,1-1,1Q648.33,533.25,628.5,533.27Zm14-225.27h0c0,1.55,0,3.1,0,4.65,0,1,.38,1.62,1.49,1.62h9.57c1.09,0,1.51-.6,1.52-1.59,0-3.1,0-6.2,0-9.3,0-1-.39-1.61-1.48-1.6h-9.58c-1.07,0-1.51.55-1.5,1.59C642.57,304.9,642.55,306.45,642.55,308Zm6.24,85.24a12.4,12.4,0,1,0-12.36-12.39A12.48,12.48,0,0,0,648.79,393.24Zm5.08,60.43h0c0-1.74,0-3.48,0-5.22,0-1.56-.53-1.83-1.91-1q-4.43,2.59-8.86,5.21c-1.33.78-1.33,1.26,0,2.05,3,1.77,6,3.52,9,5.27,1.24.72,1.76.42,1.78-1.06C653.89,457.15,653.87,455.41,653.87,453.67Z"/><path class="cls-2" d="M51.77,228.41V533.27c-8.43,0-16.85,0-25.27,0-.84,0-1-.17-1-1q0-151.44,0-302.88c0-.84.17-1,1-1C34.92,228.43,43.34,228.41,51.77,228.41Z"/><path class="cls-3" d="M340,259.74H274.37c-1.22,0-2.48.07-3.06-1.4a3.65,3.65,0,0,1-.18-1.38q0-10.44,0-20.89c0-2,.55-2.58,2.49-2.81a13.22,13.22,0,0,1,1.41,0H405.57c3,0,3.58.55,3.58,3.5v19.76c0,2.61-.65,3.25-3.25,3.25Zm-17.2-14.17.21-.06c.74,1.89,1.49,3.78,2.21,5.68.2.55.32,1,1.1,1s.8-.52,1-1c.78-2,1.54-4,2.39-6.17,0,2.3,0,4.31,0,6.32,0,.77.4.79,1,.81s.94-.09.93-.83c0-2.87,0-5.73,0-8.6,0-.3.14-.64-.3-.84a2,2,0,0,0-2.49,1c-.8,2.12-1.59,4.25-2.46,6.59-.26-.61-.43-1-.58-1.37-.69-1.8-1.43-3.58-2-5.41-.4-1.22-1.31-.81-2.08-.84-1,0-.64.74-.64,1.23,0,2.72,0,5.45,0,8.17,0,.84.38.87,1,.89s.86-.23.84-.88C322.76,249.37,322.79,247.47,322.79,245.57Zm20.89-.45c.48.71.75,1.08,1,1.46,1.06,1.66,2.14,3.3,3.14,5,.5.85,1.24.59,1.87.52s.39-.76.4-1.17c0-2.64,0-5.27,0-7.91,0-.62.09-1.22-.87-1.22s-1.07.41-1.05,1.22c.05,1.83,0,3.67,0,5.51a56.69,56.69,0,0,1-4.07-6.05c-.49-.83-1.17-.67-1.83-.6s-.43.74-.43,1.13c0,2.73,0,5.45,0,8.18,0,.74.21,1,.95,1s.94-.25.93-1C343.65,249.32,343.68,247.44,343.68,245.12Zm15.84.81h.06c0-1,0-2.07,0-3.1,0-.7-.15-1-.93-1s-1,.23-.95,1c0,1.93,0,3.85,0,5.78,0,1.61-.68,2.22-2.1,2.18s-1.87-.62-1.89-2.23q0-3,0-5.91c0-.67-.33-.81-.88-.77s-1-.08-1,.76c.05,2.2,0,4.41.06,6.62.09,1.9,1.68,3.11,3.84,3.11a3.5,3.5,0,0,0,3.77-3C359.59,248.19,359.52,247.06,359.52,245.93Zm-25.86,1h0c0,1.41,0,2.82,0,4.23,0,.54-.05,1,.76,1,1.79,0,3.58,0,5.36,0,.56,0,.72-.23.73-.75s-.24-.74-.76-.73c-.89,0-1.79-.07-2.67,0-1.17.13-1.59-.14-1.6-1.47s.41-1.81,1.72-1.63c.6.09,1.22,0,1.83,0s.74-.22.74-.76-.18-.76-.73-.74a16.61,16.61,0,0,0-2.12,0c-1.49.25-1.35-.67-1.42-1.66-.08-1.17.54-1.16,1.37-1.12s1.78,0,2.68,0c.53,0,.89-.05.9-.74s-.3-.79-.86-.79c-1.65,0-3.29,0-4.94,0-.7,0-1,.21-1,1C333.7,244.17,333.66,245.54,333.66,246.9Z"/><path class="cls-4" d="M198.14,273H334.06c2,0,2,0,2,2.19v243c0,1.84,0,3.67,0,5.51,0,.77-.23,1.1-1.05,1.07-1.31,0-2.63,0-3.95,0H67.39a41,41,0,0,0-6,0c-.94.14-1.25-.36-1.22-1.23s0-1.79,0-2.68V275c0-2,0-2,2-2H198.14Zm.28,249.27H331.09c2.24,0,2.29,0,2.29-2q0-118.11,0-236.24c0-2.15-.09-4.31-.15-6.45,0-1.76-.77-1.73-1.89-1.71-2,0-3.94.2-5.91.2H69.52a26.6,26.6,0,0,1-4.37-.13,1.23,1.23,0,0,0-1.57,1.34c0,.94,0,1.88,0,2.82q0,120,0,239.91c0,2.21.06,2.26,2.16,2.26Z"/><path class="cls-4" d="M482.13,524.8H346.92c-2.66,0-2.4.36-2.4-2.41q0-123.76,0-247.52c0-1,0-1.68,1.3-1.72.59,0,1.2-.12,1.8-.12H617.86c2.18,0,2.18,0,2.18,2.17q0,124,0,248.09c0,1.28-.44,1.56-1.61,1.56q-68.18,0-136.33,0Zm.49-2.23h0q66.33,0,132.67,0c2,0,2.47-.43,2.47-2.37q0-120.32,0-240.63c0-.7,0-1.41,0-2.12,0-1.65-.4-2-2.11-2.07-1.45,0-2.91,0-4.37,0H352c-1,0-2.07-.05-3.1,0s-1.78.54-1.61,1.79a8.4,8.4,0,0,1,.05,1.12V520.07c0,2.33.17,2.5,2.48,2.5Z"/><path class="cls-5" d="M214.6,246a12.52,12.52,0,0,1,.25-3.23,3.67,3.67,0,0,1,4-2.84,3.61,3.61,0,0,1,3.68,3.06,15.91,15.91,0,0,1,0,6.3,3.73,3.73,0,0,1-3.87,3.05,3.9,3.9,0,0,1-3.79-3A12.23,12.23,0,0,1,214.6,246Zm5.72.26a10.22,10.22,0,0,0-.29-3.35,1.4,1.4,0,0,0-1.51-1,1.26,1.26,0,0,0-1.28,1.1,17.69,17.69,0,0,0-.05,6,1.38,1.38,0,0,0,1.45,1.27,1.49,1.49,0,0,0,1.5-1.24A16.65,16.65,0,0,0,220.32,246.26Z"/><path class="cls-5" d="M106.44,246.09a12.79,12.79,0,0,1,.39-3.64,3.67,3.67,0,0,1,3.52-2.54,3.59,3.59,0,0,1,3.8,2.33,12.73,12.73,0,0,1-.06,7.91,3.69,3.69,0,0,1-3.63,2.2,3.81,3.81,0,0,1-3.59-2.5,3.43,3.43,0,0,1-.26-.95C106.53,248,106.49,247,106.44,246.09Zm5.77.08a14.48,14.48,0,0,0-.18-2.94c-.21-.73-.55-1.3-1.42-1.32a1.44,1.44,0,0,0-1.55,1.33,18.86,18.86,0,0,0,0,5.76,1.45,1.45,0,0,0,1.43,1.32,1.48,1.48,0,0,0,1.52-1.21A12.58,12.58,0,0,0,112.21,246.17Z"/><path class="cls-5" d="M116.14,246.19a11.68,11.68,0,0,1,.2-3.49,3.72,3.72,0,0,1,3.74-2.8,3.58,3.58,0,0,1,3.79,2.71A14,14,0,0,1,124,249a3.76,3.76,0,0,1-4.18,3.32,4,4,0,0,1-3.7-3.75C116.08,247.79,116.14,247,116.14,246.19Zm5.66.07a12.13,12.13,0,0,0-.26-3.34,1.35,1.35,0,0,0-1.34-1,1.29,1.29,0,0,0-1.46,1,15.76,15.76,0,0,0,0,6.27,1.37,1.37,0,0,0,1.44,1.11,1.45,1.45,0,0,0,1.41-1.14A12.55,12.55,0,0,0,121.8,246.26Z"/><path class="cls-5" d="M224.25,246.05a9.55,9.55,0,0,1,.33-3.76,3.76,3.76,0,0,1,3.92-2.36,3.5,3.5,0,0,1,3.46,2.56,14.31,14.31,0,0,1,.14,6.82,3.76,3.76,0,0,1-4.14,3,3.92,3.92,0,0,1-3.69-3.75A23.73,23.73,0,0,1,224.25,246.05Zm5.63.13a10.46,10.46,0,0,0-.15-3.06c-.24-.71-.62-1.25-1.49-1.22a1.41,1.41,0,0,0-1.44,1.28,18.25,18.25,0,0,0-.08,5.57c.11.91.58,1.6,1.64,1.54s1.39-.87,1.5-1.73A21,21,0,0,0,229.88,246.18Z"/><path class="cls-5" d="M209.46,240c.75,0,1.5,0,2.25,0s1.23,0,1.21,1-.46,1.07-1.22,1-1.6.06-2.39,0c-1.2-.1-1.43.58-1.43,1.55,0,.49-.17.85.68.71,2.17-.35,3.63.34,4.3,1.82a4.87,4.87,0,0,1-.91,5.23,4.46,4.46,0,0,1-4.89.42,3.07,3.07,0,0,1-1.6-1.51c-.18-.46-.78-1.21-.12-1.43s1.71-.62,2.23.4a1.54,1.54,0,0,0,2.31.84c1.15-.63,1-1.84.74-2.89s-1.17-1.24-2.13-1.11a4.57,4.57,0,0,0-.9.36c-1.43.49-2.25-.17-2.07-1.63.15-1.16.31-2.33.37-3.5.06-1,.39-1.46,1.46-1.32a18.54,18.54,0,0,0,2.11,0Z"/><path class="cls-5" d="M587.33,244.45a1.69,1.69,0,0,0,.43,0q4.17-1.32,5.12,2.21c.68,2.53-.56,4.94-2.84,5.48a4.09,4.09,0,0,1-5.2-3.43,9.31,9.31,0,0,1,.56-5.53,5.43,5.43,0,0,1,4.76-3.23c.47,0,1.11-.22,1.08.65,0,.62.22,1.3-.85,1.38A3.32,3.32,0,0,0,587.33,244.45Zm-.17,3.4c0,1.48.67,2.44,1.73,2.48a2,2,0,0,0,1.75-2.13c0-1.26-.82-2.27-1.85-2.19A1.58,1.58,0,0,0,587.16,247.85Z"/><path class="cls-5" d="M99.87,244.46c1.79-.49,3.47-.43,4.62,1.28a4.8,4.8,0,0,1-.26,5.19c-1.63,2.15-5.89,1.72-7-.74-.17-.41-.67-1.14-.07-1.33s1.72-.58,2.16.26c.62,1.17,1.37,1.49,2.5.95.76-.37,1.07-2.12.55-3.08-.62-1.12-1.6-1.14-2.66-.71-1.79.72-2.5.2-2.31-1.68.11-1.22.32-2.43.36-3.64,0-.8.38-.94,1-.93,1.64,0,3.29,0,4.93,0,.75,0,1,.3,1,1s-.21,1.15-1,1.08c-.66-.05-1.32,0-2,0C99.76,242.08,99.64,242.22,99.87,244.46Z"/><path class="cls-5" d="M460.68,250.16c1.56,0,2.82.06,4.08,0,.81,0,.92.32.92,1s-.07,1-.9,1c-2-.06-4,0-6.06,0-.43,0-1.07.28-1.24-.29a1.74,1.74,0,0,1,.34-1.84c1.1-1.09,2.14-2.24,3.21-3.37a7.49,7.49,0,0,0,1.57-2.13A1.73,1.73,0,0,0,462,242a1.6,1.6,0,0,0-2.29,1.15c-.45,1.38-1.54.75-2.21.62s-.23-1,0-1.43a3.69,3.69,0,0,1,3.46-2.44c1.57-.07,3.05.13,3.91,1.65a3.76,3.76,0,0,1-.4,4.23C463.42,247.33,462,248.49,460.68,250.16Z"/><path class="cls-5" d="M578.38,250.16c1.52,0,2.73,0,3.94,0,.72,0,1.12.08,1.09,1s-.23,1-1,1c-2-.06-4,0-5.92,0-.43,0-1.08.29-1.24-.26a1.74,1.74,0,0,1,.31-1.85c1.09-1.1,2.14-2.24,3.2-3.36a7.65,7.65,0,0,0,1.65-2.27c.39-1,.32-2-.77-2.38a1.51,1.51,0,0,0-2.17,1.15c-.37,1.43-1.54.8-2.18.65-.86-.21-.23-1.07,0-1.52a3.71,3.71,0,0,1,3.53-2.36c1.49,0,3,.12,3.78,1.64a3.89,3.89,0,0,1-.46,4.35C581.06,247.38,579.68,248.53,578.38,250.16Z"/><path class="cls-5" d="M483.69,243.9c0,.84,0,1.69,0,2.54,0,.63-.1,1.24.87,1.18.67,0,.53.53.52.92s.17,1-.48,1c-1.21,0-1,.81-.9,1.42.12,1.07-.35,1.22-1.28,1.23s-1.32-.24-1.16-1.17c.21-1.23-.38-1.58-1.51-1.45a18.55,18.55,0,0,1-2.11,0c-1.33,0-1.86-.67-1.2-1.79,1.44-2.47,3-4.87,4.57-7.27.54-.84,1.47-.47,2.2-.4s.44.81.47,1.26C483.72,242.21,483.69,243.05,483.69,243.9Zm-2.45.21a9.8,9.8,0,0,0-2.36,3.36c2.34.29,2.35.29,2.36-1.85C481.25,245.12,481.24,244.61,481.24,244.11Z"/><path class="cls-5" d="M572.61,243.88c0,.75,0,1.51,0,2.26s-.28,1.57,1,1.5c.46,0,.43.42.4.74s.18,1.09-.34,1.08c-1.21,0-1.1.73-1,1.48s-.14,1.27-1.13,1.22-1.51-.07-1.31-1.19-.36-1.57-1.5-1.43a16.49,16.49,0,0,1-2.11,0c-1.31,0-1.85-.77-1.17-1.92,1.43-2.43,3-4.79,4.52-7.15.54-.82,1.47-.46,2.22-.4s.42.81.45,1.25C572.65,242.18,572.6,243,572.61,243.88Zm-5,3.72h1.85c.42,0,.73-.07.73-.59,0-1,0-2,0-2.95l-.31,0Z"/><path class="cls-5" d="M474.09,243.9c0,.75,0,1.5,0,2.25s-.25,1.56,1,1.49c.56,0,.37.58.36.89s.16,1-.45,1c-1.25-.09-1,.77-.9,1.38.11,1-.25,1.27-1.23,1.25s-1.41-.23-1.24-1.26-.18-1.49-1.29-1.36a21.14,21.14,0,0,1-2.39,0c-1.27,0-1.78-.73-1.11-1.86,1.46-2.45,3-4.84,4.59-7.24.55-.85,1.47-.4,2.19-.36s.42.81.44,1.27C474.12,242.21,474.09,243.05,474.09,243.9Zm-2.44.07-.24-.11c-.52.81-1.06,1.61-1.54,2.44-.2.35-.69.68-.46,1.1s.77.13,1.16.19c.76.13,1.13-.16,1.09-1S471.65,244.85,471.65,244Z"/><path class="cls-5" d="M453.67,246.16c0,1.64-.06,3.29,0,4.93.06,1.11-.59,1-1.33,1s-1.2-.07-1.17-1c.07-2.35,0-4.7,0-7,0-.9-.2-1.25-1.1-.81a2,2,0,0,1-.68.2c-.35.06-.9.58-1-.05s-.43-1.38.43-1.72c1.35-.54,2.73-1,4.09-1.51.88-.33.69.4.7.77,0,1.73,0,3.47,0,5.21Z"/><path class="cls-5" d="M93.16,246.14c0,1.64-.1,3.29,0,4.93.09,1.14-.52,1-1.26,1.08s-1.28-.09-1.24-1.12c.09-2.16,0-4.32,0-6.48,0-1.64,0-1.64-1.58-1.15-.39.12-.9.52-1.16.15s-.08-.91-.08-1.37.27-.46.55-.56c1.28-.45,2.56-.89,3.83-1.37.73-.28.91,0,.9.68,0,1.73,0,3.47,0,5.21Z"/><path class="cls-5" d="M561.78,246.12c0,1.69-.06,3.38,0,5.07.05,1.09-.62.93-1.27.94s-1.26.11-1.22-1c.08-2.29,0-4.6,0-6.9,0-.94-.07-1.43-1.23-1-.43.16-1.25,1-1.59,0s0-1.65,1.21-1.87a10.76,10.76,0,0,0,2.78-1c1.2-.6,1.29,0,1.26,1-.06,1.59,0,3.19,0,4.79Z"/><path class="cls-5" d="M201.29,246.13c0,1.55,0,3.1,0,4.65,0,1-.18,1.4-1.3,1.4s-1.21-.44-1.19-1.34c.05-2.2,0-4.42,0-6.62,0-1.08-.26-1.29-1.28-.94-.45.15-1.19.92-1.52.06a1.35,1.35,0,0,1,1.12-2,11.49,11.49,0,0,0,2.65-1c1.26-.63,1.51-.12,1.47,1.06C201.25,243,201.29,244.58,201.29,246.13Z"/><path class="cls-5" d="M642.55,308c0-1.55,0-3.1,0-4.64,0-1,.43-1.59,1.5-1.59h9.58c1.09,0,1.48.59,1.48,1.6,0,3.1,0,6.2,0,9.3,0,1-.43,1.59-1.52,1.59H644c-1.11,0-1.48-.64-1.49-1.62,0-1.55,0-3.1,0-4.65Z"/><path class="cls-5" d="M648.79,393.24a12.4,12.4,0,1,1,12.44-12.33A12.47,12.47,0,0,1,648.79,393.24ZM660,380.88A11.15,11.15,0,1,0,648.74,392,11.18,11.18,0,0,0,660,380.88Z"/><path class="cls-5" d="M653.87,453.67c0,1.74,0,3.48,0,5.22,0,1.48-.54,1.78-1.78,1.06-3-1.75-6-3.5-9-5.27-1.33-.79-1.33-1.27,0-2.05q4.42-2.62,8.86-5.21c1.38-.8,1.89-.53,1.91,1,0,1.74,0,3.48,0,5.22Z"/><path class="cls-5" d="M322.79,245.57c0,1.9,0,3.8,0,5.71,0,.65-.14.91-.84.88s-1,0-1-.89c.05-2.72,0-5.45,0-8.17,0-.49-.31-1.27.64-1.23.77,0,1.68-.38,2.08.84.59,1.83,1.33,3.61,2,5.41.15.38.32.76.58,1.37.87-2.34,1.66-4.47,2.46-6.59a2,2,0,0,1,2.49-1c.44.2.3.54.3.84,0,2.87,0,5.73,0,8.6,0,.74-.31.84-.93.83s-1,0-1-.81c0-2,0-4,0-6.32-.85,2.2-1.61,4.19-2.39,6.17-.17.45-.22,1-1,1s-.9-.43-1.1-1c-.72-1.9-1.47-3.79-2.21-5.68Z"/><path class="cls-5" d="M343.68,245.12c0,2.32,0,4.2,0,6.08,0,.72-.17,1-.93,1s-1-.24-.95-1c0-2.73,0-5.45,0-8.18,0-.39-.33-1,.43-1.13s1.34-.23,1.83.6a56.69,56.69,0,0,0,4.07,6.05c0-1.84,0-3.68,0-5.51,0-.81.13-1.22,1.05-1.22s.87.6.87,1.22c0,2.64,0,5.27,0,7.91,0,.41.26,1.09-.4,1.17s-1.37.33-1.87-.52c-1-1.7-2.08-3.34-3.14-5C344.43,246.2,344.16,245.83,343.68,245.12Z"/><path class="cls-5" d="M359.52,245.93c0,1.13.07,2.26,0,3.38a3.5,3.5,0,0,1-3.77,3c-2.16,0-3.75-1.21-3.84-3.11-.1-2.21,0-4.42-.06-6.62,0-.84.52-.73,1-.76s.89.1.88.77q0,3,0,5.91c0,1.61.54,2.19,1.89,2.23s2.06-.57,2.1-2.18c0-1.93,0-3.85,0-5.78,0-.74.22-1,.95-1s1,.31.93,1c-.05,1,0,2.07,0,3.1Z"/><path class="cls-5" d="M333.66,246.9c0-1.36,0-2.73,0-4.09,0-.76.27-1,1-1,1.65,0,3.29,0,4.94,0,.56,0,.86.14.86.79s-.37.75-.9.74c-.9,0-1.79,0-2.68,0s-1.45-.05-1.37,1.12c.07,1-.07,1.91,1.42,1.66a16.61,16.61,0,0,1,2.12,0c.55,0,.73.21.73.74s-.18.78-.74.76-1.23.07-1.83,0c-1.31-.18-1.73.21-1.72,1.63s.43,1.6,1.6,1.47c.88-.09,1.78,0,2.67,0,.52,0,.77.16.76.73s-.17.76-.73.75c-1.78,0-3.57,0-5.36,0-.81,0-.76-.48-.76-1,0-1.41,0-2.82,0-4.23Z"/><path class="cls-1" d="M198.42,522.26H65.75c-2.1,0-2.16,0-2.16-2.26q0-120,0-239.91c0-.94,0-1.88,0-2.82a1.23,1.23,0,0,1,1.57-1.34,26.6,26.6,0,0,0,4.37.13H325.4c2,0,3.94-.16,5.91-.2,1.12,0,1.85-.05,1.89,1.71.06,2.14.15,4.3.15,6.45q0,118.13,0,236.24c0,1.94-.05,2-2.29,2H198.42Zm-18.57-123.6c-.31,9.71,8,18,17.17,18.33a18.09,18.09,0,1,0,1.89-36.13C188.75,380.48,179.72,388.08,179.85,398.66Z"/><path class="cls-1" d="M482.62,522.57H349.81c-2.31,0-2.48-.17-2.48-2.5V278.31a8.4,8.4,0,0,0-.05-1.12c-.17-1.25.53-1.73,1.61-1.79s2.07,0,3.1,0H611.27c1.46,0,2.92,0,4.37,0,1.71,0,2.09.42,2.11,2.07,0,.71,0,1.42,0,2.12q0,120.32,0,240.63c0,1.94-.43,2.38-2.47,2.37q-66.33,0-132.67,0ZM402.88,382.85a18.14,18.14,0,1,0,17.28-18.14A18.23,18.23,0,0,0,402.88,382.85Z"/><path class="cls-1" d="M220.32,246.26a16.65,16.65,0,0,1-.18,2.81,1.49,1.49,0,0,1-1.5,1.24,1.38,1.38,0,0,1-1.45-1.27,17.69,17.69,0,0,1,.05-6,1.26,1.26,0,0,1,1.28-1.1,1.4,1.4,0,0,1,1.51,1A10.22,10.22,0,0,1,220.32,246.26Z"/><path class="cls-1" d="M112.21,246.17a12.58,12.58,0,0,1-.2,2.94,1.48,1.48,0,0,1-1.52,1.21,1.45,1.45,0,0,1-1.43-1.32,18.86,18.86,0,0,1,0-5.76,1.44,1.44,0,0,1,1.55-1.33c.87,0,1.21.59,1.42,1.32A14.48,14.48,0,0,1,112.21,246.17Z"/><path class="cls-1" d="M121.8,246.27a12.51,12.51,0,0,1-.22,2.92,1.45,1.45,0,0,1-1.41,1.14,1.37,1.37,0,0,1-1.44-1.11,15.76,15.76,0,0,1,0-6.27,1.29,1.29,0,0,1,1.46-1,1.35,1.35,0,0,1,1.34,1A12.17,12.17,0,0,1,121.8,246.27Z"/><path class="cls-1" d="M229.88,246.18a21,21,0,0,1,0,2.38c-.11.86-.43,1.67-1.5,1.73s-1.53-.63-1.64-1.54a18.25,18.25,0,0,1,.08-5.57,1.41,1.41,0,0,1,1.44-1.28c.87,0,1.25.51,1.49,1.22A10.46,10.46,0,0,1,229.88,246.18Z"/><path class="cls-1" d="M587.16,247.86a1.58,1.58,0,0,1,1.63-1.85c1-.08,1.85.93,1.85,2.19a2,2,0,0,1-1.75,2.13C587.83,250.29,587.16,249.33,587.16,247.86Z"/><path class="cls-1" d="M481.24,244.11c0,.5,0,1,0,1.51,0,2.14,0,2.14-2.36,1.85A9.8,9.8,0,0,1,481.24,244.11Z"/><path class="cls-1" d="M567.58,247.6l2.26-3.58.31,0c0,1,0,2,0,2.95,0,.52-.31.59-.73.59Z"/><path class="cls-1" d="M471.65,244c0,.88,0,1.77,0,2.65s-.33,1.1-1.09,1c-.39-.06-.93.23-1.16-.19s.26-.75.46-1.1c.48-.83,1-1.63,1.54-2.44Z"/><path class="cls-2" d="M660,380.88a11.15,11.15,0,1,1-11.14-11.23A11.21,11.21,0,0,1,660,380.88Zm-17,0a5.89,5.89,0,1,0,5.87-5.95A6,6,0,0,0,642.94,380.9Z"/><path class="cls-4" d="M179.85,398.66c-.13-10.58,8.9-18.18,19.06-17.8A18.09,18.09,0,1,1,197,417C187.81,416.62,179.54,408.37,179.85,398.66Zm5.92-.47a12.31,12.31,0,1,0,24.58,1.17c.23-7.16-4.9-12.21-11.48-12.81S185.77,391.41,185.77,398.19Z"/><path class="cls-4" d="M402.88,382.85A18.14,18.14,0,1,1,421.29,401,18.11,18.11,0,0,1,402.88,382.85ZM421,370.61c-6.35-.52-12,5.53-12.31,11.29a12.37,12.37,0,1,0,24.7,1C433.48,376.61,428,370.17,421,370.61Z"/><path class="cls-5" d="M642.94,380.9a5.89,5.89,0,1,1,6,5.84A6,6,0,0,1,642.94,380.9Z"/><path class="cls-1" d="M185.77,398.19c0-6.78,6.62-12.22,13.1-11.64s11.71,5.65,11.48,12.81a12.31,12.31,0,1,1-24.58-1.17Z"/><path class="cls-1" d="M421,370.61c7-.44,12.46,6,12.39,12.27a12.37,12.37,0,1,1-24.7-1C409,376.14,414.67,370.09,421,370.61Z"/><path class="cls-6" d="M425.89,180.87c0,.68-.51,1-.93,1.37a87.47,87.47,0,0,1-10,7.54c-3.09,2.06-6.37,3.78-9.63,5.54a70.63,70.63,0,0,1-11.86,4.88,83.22,83.22,0,0,1-8.69,2.38c-2.82.57-5.69.78-8.5,1.28a88.85,88.85,0,0,1-16.61.94c-1.8,0-3.53-.47-5.31-.61-3-.22-6-.65-9-1.16A48.14,48.14,0,0,1,334.8,200a15.23,15.23,0,0,0-3.91-1.18,13,13,0,0,1-3.3-1.35,90.4,90.4,0,0,1-13.29-7,111.7,111.7,0,0,1-11.23-8.37,1.39,1.39,0,0,1-.66-1.23c3.66-.24,7.32-.09,11-.1q23.85,0,47.7,0c.85,0,1.49.08,1.48-1.21q-.06-33.23,0-66.45c0-.42.18-.91-.29-1.23s-1.12-.23-1.69-.23H320.22a3,3,0,0,1-1.82-.28c-1.78-1.19-3.52-2.42-5.31-3.59a31.85,31.85,0,0,0-4.95-3.08c-1.66-.68-2.7-2-4.26-2.76-.84-.39-1.79-.88-2.87-1.44l1.05-.19a15.44,15.44,0,0,0,6.35.14,5.42,5.42,0,0,0,4.7-5.35c.07-.8.06-1.6.06-2.41,0-5.21,0-10.42,0-15.63,1.48,1.21,2.9,2.52,4.48,3.59,1.14.77,1.9,2.11,3.42,2.31-4.18,3-5.3,11-2.09,15,.11.14.23.27.35.4,2.56,2.58,5.72,2.62,9,2a6.48,6.48,0,0,0,5.32-5.18,13.49,13.49,0,0,0-1-10.12c.63-.06.75.49,1.05.86s.5,1,1.15,1.22c1.14.34,1.6,1.5,2.43,2.21.49.41.75.57,1.28.42,1.46,2.81,2.34,5.87,3.59,8.78a1.25,1.25,0,0,1,0,.91c-.94,3-2.06,3.77-5.21,3.32-.65-.09-1,.07-1,.65,0,1-1.14,1.92-.23,3,0,0,.08,0,.12,0a7.2,7.2,0,0,0,9-3A50.32,50.32,0,0,0,347,98.29l5.85-14.53c.17-.41.63-1-.27-1.07a31.44,31.44,0,0,0-3.22,0,1,1,0,0,0-.92.82c-.64,1.86-1.28,3.71-2,5.53a25.39,25.39,0,0,1-1.87,4.51c-.68-1.72-1.3-3.25-1.88-4.79S341.5,85.62,341,84a1.74,1.74,0,0,0-1.76-1.48c-.17-.44-.21-.92-.7-1.23a43.41,43.41,0,0,1-5.86-5.14c-2.31-2.14-4.68-4.21-7-6.36-.36-.34-1-.46-.95-1.14a22,22,0,0,0,14.56,1.07,9.68,9.68,0,0,0,7.49-7.08,24.7,24.7,0,0,0,1-7c0-5.68,0-11.35,0-17,0-1.15.06-2.31.09-3.47.79,0,1.27.79,1.66,1.17a29.85,29.85,0,0,0,3.12,2.41c.5.38,1.08,1.19,1.61.92s.11-1.22.24-1.86c.17-.87-.44-1.81.26-2.63a27.26,27.26,0,0,1,0,4.78q0,14.4,0,28.79c0,.35-.05.72.26,1h.67c4.87-.12,9.74.27,14.59-.3,5.12-.61,8.9-3,10.78-8a18.43,18.43,0,0,0,1.18-5.62c.35-6.49.45-12.93-4.7-18,.3,0,.72,0,.88.18,1.93,2.09,4.65,3,6.91,4.54.94.66,1.73,1.75,3.08,1.72,0,8.13.05,16.27,0,24.4,0,.85.21,1.08,1,1.06,1.65,0,3.31-.06,5,0,1,0,1.21-.34,1.19-1.25-.05-2.72,0-5.45-.05-8.18,0-1.13.36-1.44,1.46-1.44a54.34,54.34,0,0,0,7.76-.2c4.89-.71,7.72-3.17,8.73-7.94a16.79,16.79,0,0,0-1.38-11.82,1.42,1.42,0,0,1,.89.23q2.1,1.5,4.21,3c2.6,1.81,5.29,3.51,7.79,5.44,1.51,1.16,3.2,2,4.7,3.16,2.26,1.74,4.73,3.22,7.11,4.82.24.16.4.61.74.42s-.05-.57.06-.86a12.13,12.13,0,0,1,2.24,3.14,14.24,14.24,0,0,0,1.6,2.44,84.9,84.9,0,0,1,6.74,12c1.26,3,2.46,6,3.65,9a77.45,77.45,0,0,1,3.32,11.42c.71,3.15.95,6.41,1.36,9.63a86,86,0,0,1,.27,15.38,84.73,84.73,0,0,1-1.27,10.59c-.73,4.21-1.93,8.28-3,12.36a37.07,37.07,0,0,1-3.88,9.58c-1.21,2-2.05,4.18-3.15,6.25A82.2,82.2,0,0,1,437.45,169c-1,1.32-2.07,2.64-3.13,3.93a1.75,1.75,0,0,1-1.25.71,6.63,6.63,0,0,1-.12-2.13q0-29,0-58.07c0-1.08-.17-1.57-1.44-1.57q-32.92.08-65.85,0c-1.27,0-1.65.29-1.64,1.61q.06,32.73,0,65.44c0,1.86,0,1.86,1.77,1.86h57.94C424.47,180.77,425.18,180.83,425.89,180.87ZM381.78,97.26c-.08-1.67-1.37-.84-2-.8-1.52.11-2.2-.3-2.22-1.84,0-2.27,0-4.54,0-6.82,0-.86.29-1.25,1.17-1.17.39,0,.83.05,1-.48h.65c.05.24.21.43.46.4a1.09,1.09,0,0,0,1-1.33c-.18-.92.73-2.16-.73-2.74-.05,0-.15.08-.23.12l-.88,0a7.78,7.78,0,0,0-2.72-.16,6.56,6.56,0,0,1,0-2.21c0-2.6,0-2.6-2.61-2.58-1.78,0-1.78,0-1.78,1.72,0,.71-.05,1.43,0,2.14.08.86-.22,1.28-1.11,1.17s-1.22.29-1.14,1.16a6,6,0,0,1,0,1.2c-.08.82.28,1.19,1.08,1.07,1-.14,1.25.34,1.18,1.23a19,19,0,0,0,0,2c.11,2.62-.28,5.26.28,7.87a3.91,3.91,0,0,0,2.9,3.16,9.16,9.16,0,0,0,4.5.19c1.92-.39,1.91-.26,1.43-2.1A9.45,9.45,0,0,1,381.78,97.26Zm34.83-8.13-.33-.12c0-3.55,0-7.11,0-10.67,0-3.18,0-3.14-3.18-3.13-1,0-1.19.34-1.18,1.24.05,4,0,8,0,11.93,0,3.53,0,7.06,0,10.58,0,.89.19,1.26,1.17,1.27,3.19,0,3.19.06,3.19-3.13a7.64,7.64,0,0,0,0-1.07,2.75,2.75,0,0,1,1.09-2.44c.48-.48.72-.52,1.09.08a29.82,29.82,0,0,1,2.44,3.83c1.06,2.49,2.9,3.09,5.33,2.72.33,0,.79.14,1-.23s-.18-.65-.38-.94c-1.84-2.68-3.65-5.39-5.55-8a1.28,1.28,0,0,1,.13-2c1.63-1.72,3.2-3.48,4.77-5.25.26-.3.78-.5.61-1.16-1,0-2,0-3.05,0a2.76,2.76,0,0,0-2.54,1.13C419.74,85.61,418.15,87.35,416.61,89.13ZM362.1,100.72c.51,0,1.28-.06,2-.19,3.48-.6,5.41-3,4.93-6.28-.38-2.66-2.45-3.66-4.67-4.4-1.36-.45-2.74-.8-4.1-1.23a1.36,1.36,0,0,1-1.1-1.35,1.48,1.48,0,0,1,1.25-1.4c1.56-.28,3.16-.39,4.43.79a1.19,1.19,0,0,0,1.92,0,5,5,0,0,1,1.1-.77c1.17-.61.82-1.21.06-1.89-2.41-2.14-7.93-2.58-10.63-.82a4.89,4.89,0,0,0-2,2.24c-1.28,3.14.22,6.08,3.81,7.28,1.52.51,3.07.92,4.6,1.4a1.34,1.34,0,0,1,1.09,1.35,1.45,1.45,0,0,1-1.19,1.43c-1.64.44-3.4.56-4.74-.54a1.79,1.79,0,0,0-2.71.1,4.81,4.81,0,0,1-.87.63c-.85.43-.66.84-.1,1.4C357.05,100.32,359.4,100.64,362.1,100.72Zm35.73-9.27c0-.54.05-1.08.1-1.61.38-3.67,3.72-5.21,6.73-3,.64.45,1,.49,1.61,0a11.8,11.8,0,0,1,1.65-1.14c.57-.36.55-.72.14-1.19a6.92,6.92,0,0,0-3.54-2c-4.19-1.16-8.37.35-10.1,3.73a12.41,12.41,0,0,0-1,6.67c.2,3,1.14,5.6,4,6.92a9.82,9.82,0,0,0,9.74-.43c1.85-1.16,1.8-1.49.08-2.7-.18-.13-.36-.26-.53-.41-.68-.63-1.21-.65-2.06,0a4.16,4.16,0,0,1-6.71-3.11C397.88,92.52,397.86,92,397.83,91.45Zm-8.53-.08V85.61c0-3,0-2.93-3-3-1.11,0-1.48.3-1.46,1.43.06,4.38,0,8.76,0,13.14,0,3.11,0,3.07,3.16,3,.91,0,1.25-.28,1.23-1.22C389.26,96.46,389.29,93.91,389.3,91.37Zm-2.07-15.79c-1.78,0-2.51.6-2.55,2.17S385.42,80,387,80s2.45-.66,2.48-2.1S388.79,75.6,387.23,75.58Z"/><path class="cls-7" d="M437.68,55.1c-.11.29.28.68-.06.86s-.5-.26-.74-.42c-2.38-1.6-4.85-3.08-7.11-4.82-1.5-1.16-3.19-2-4.7-3.16-2.5-1.93-5.19-3.63-7.79-5.44q-2.11-1.47-4.21-3a1.42,1.42,0,0,0-.89-.23A12.07,12.07,0,0,0,403,34.84c-4.41-.07-8.82,0-13.23-.07-1,0-1.28.4-1.26,1.37,0,2.71,0,5.43,0,8.15-1.35,0-2.14-1.06-3.08-1.72-2.26-1.58-5-2.45-6.91-4.54-.16-.18-.58-.13-.88-.18a18.28,18.28,0,0,0-9.41-3c-4.05-.27-8.1-.07-12.15-.12a1.54,1.54,0,0,0-1.22.42c-.7.82-.09,1.76-.26,2.63-.13.64.32,1.58-.24,1.86s-1.11-.54-1.61-.92a29.85,29.85,0,0,1-3.12-2.41c-.39-.38-.87-1.15-1.66-1.17l-1-.5c-1.92,0-3.83,0-5.75,0-.59,0-1.08,0-1.08.81q0,4.73,0,9.46c.24-2.57.23-5.15.24-7.72,0-.52-.15-1.08.27-1.53v.06c0,3.21.05,6.42.06,9.63,0,.34.07.77-.36.92s-.49-.3-.73-.47a48.9,48.9,0,0,1-4-3.18c-1-.91-2.11-1.77-3.18-2.62a72.7,72.7,0,0,0-6.08-4.86,1.33,1.33,0,0,0-1.19-.43h-4.91a1.58,1.58,0,0,0-1.21.42c-.13,0-.23-.4-.38-.1a2.05,2.05,0,0,0,0,.79q0,10.64,0,21.28a2,2,0,0,0,.22,1.33c0-7.14,0-14.09,0-21a3.39,3.39,0,0,1,.17-1.7c0,.53.12,1.06.12,1.59q0,9.25,0,18.51a26.87,26.87,0,0,0,.33,4c.54,3.69,2,6.84,5.31,8.84,0,.68.59.8.95,1.14,2.29,2.15,4.66,4.22,7,6.36a43.41,43.41,0,0,0,5.86,5.14c.49.31.53.79.7,1.23a5.09,5.09,0,0,1-2,.12c-1.17-.06-1.21.41-.84,1.35a39.87,39.87,0,0,1,2.14,5.83c-.53.15-.79,0-1.28-.42-.83-.71-1.29-1.87-2.43-2.21-.65-.19-.81-.78-1.15-1.22s-.42-.92-1.05-.86a8.32,8.32,0,0,0-6.71-3,17.2,17.2,0,0,0-4.84.85c-1.52-.2-2.28-1.54-3.42-2.31-1.58-1.07-3-2.38-4.48-3.59-1.12,0-2.24,0-3.35-.09s-1.49.28-1.47,1.42c.05,4.69,0,9.38,0,14.07a3.38,3.38,0,0,1-.21,1.83V77.48a1.43,1.43,0,0,0-.41,1c0,5.81.62,11.63-.45,17.41-.95.9-2.08.53-3.12.32-2.34-.47-2.33-.51-3.08,1.71a1.12,1.12,0,0,1-.08.26c-.69,1.19-.33,1.87,1,2.06l-1.05.19c1.08.56,2,1,2.87,1.44,1.56.73,2.6,2.08,4.26,2.76a31.85,31.85,0,0,1,4.95,3.08c1.79,1.17,3.53,2.4,5.31,3.59a3,3,0,0,0,1.82.28h40.34c.57,0,1.17-.17,1.69.23-.44,0-.89,0-1.34,0l-65.13,0c-2.37,0-2.11-.33-2.12,2.17q0,26.81,0,53.61a20.25,20.25,0,0,1-.13,4.4c-1.39-.75-2-2.17-3-3.31a30.12,30.12,0,0,1-3.09-4.27,1.56,1.56,0,0,0-.3-1.13c-1.5-2.08-2.74-4.33-4.1-6.49-.66-1-.57-2.6-2-3.14a65.36,65.36,0,0,1-4.07-9.09,104.3,104.3,0,0,1-3.54-11.94,91.59,91.59,0,0,1-2.31-22.37,81.73,81.73,0,0,1,2.3-19.06c.71-2.79,1.31-5.61,2.28-8.33.3-.07.4-.29.5-.56,1.07-2.75,2.19-5.48,3.23-8.24.51-1.36,1.47-2.54,1.6-4a82.14,82.14,0,0,1,7.05-11.89,97.14,97.14,0,0,1,6.25-7.81,70.64,70.64,0,0,1,6.4-6.55,97.18,97.18,0,0,1,23.94-16.18,89,89,0,0,1,10.89-4.3,97.71,97.71,0,0,1,12.26-3.08,61.39,61.39,0,0,1,10.75-1.16c4.24-.07,8.49-.09,12.73.07a66.14,66.14,0,0,1,11.36,1.61,86.38,86.38,0,0,1,18,5.65,90.88,90.88,0,0,1,16.63,9.29c.24,1.23,1.57,1.18,2.27,1.91a9.42,9.42,0,0,0,3.05,2.09,7.42,7.42,0,0,1,1.64,1.37c.14.56.64.83,1,1.19,2.21,2.16,4.47,4.26,6.55,6.54,1.18,1.29,2.46,2.51,3.69,3.76A14.31,14.31,0,0,1,437.68,55.1Z"/><path class="cls-8" d="M425.89,180.87c-.71,0-1.42-.1-2.13-.1H365.82c-1.78,0-1.77,0-1.77-1.86q0-32.72,0-65.44c0-1.32.37-1.61,1.64-1.61q32.93.06,65.85,0c1.27,0,1.44.49,1.44,1.57q0,29,0,58.07a6.63,6.63,0,0,0,.12,2.13c-.13,1-.81,1.5-1.73,2.14v-4q0-28.5,0-57c0-1-.16-1.32-1.22-1.32q-31.65,0-63.31,0c-.93,0-1.24.29-1.24,1.23q0,31.59,0,63.17c0,1.07.29,1.37,1.35,1.37q27.63,0,55.26,0h5.63A3,3,0,0,1,425.89,180.87Z"/><path class="cls-8" d="M293.52,172.07a20.25,20.25,0,0,0,.13-4.4q0-26.8,0-53.61c0-2.5-.25-2.16,2.12-2.17l65.13,0c.45,0,.9,0,1.34,0,.47.32.29.81.29,1.23q0,33.22,0,66.45c0,1.29-.63,1.21-1.48,1.21q-23.85,0-47.7,0c-3.66,0-7.32-.14-11,.1-1-.07-1.49-.83-2.09-1.52a3.3,3.3,0,0,1,1.65-.17q28.69,0,57.4,0c1.29,0,1.63-.3,1.63-1.59q-.06-31.51,0-63c0-.87-.2-1.15-1.1-1.15q-31.78,0-63.58,0c-.93,0-1.09.31-1.09,1.17q0,29,0,57.93c0,.45.34,1.15-.21,1.32s-.75-.59-1.06-1A4,4,0,0,1,293.52,172.07Z"/><path class="cls-7" d="M321.15,144.07c-3.56.42-6.95-3.67-6.76-6.9a7.07,7.07,0,0,1,7.2-6.66,6.81,6.81,0,0,1,6.6,7.09C328.16,140.35,325.38,144.47,321.15,144.07Zm.07-11.3c-2.28-.31-4.65,2-4.51,4.83a4.8,4.8,0,0,0,4.72,4.35c2.27,0,4.64-2.26,4.58-4.45C326,134.7,324,132.58,321.22,132.77Z"/><path class="cls-7" d="M402.29,158.07a6.5,6.5,0,0,1,6.89-6.73,6.63,6.63,0,0,1,6.71,6.76,6.93,6.93,0,0,1-6.68,6.87A6.79,6.79,0,0,1,402.29,158.07Zm10.22,3.24,0,0a.51.51,0,0,0,.48-.54l0,0c.72-.21.5-.8.52-1.3.72-3.78-1.84-6-4.85-5.8a4.59,4.59,0,0,0-4.16,3.46,4.86,4.86,0,0,0,1.76,4.71,4.65,4.65,0,0,0,4.88.55c.37,0,.69-.05.77-.49l0,0A.52.52,0,0,0,412.51,161.31Z"/><path class="cls-6" d="M435.51,52.61c-1.23-1.25-2.51-2.47-3.69-3.76-2.08-2.28-4.34-4.38-6.55-6.54-.37-.36-.87-.63-1-1.19a14.27,14.27,0,0,1,4.54,3.67c1.64,1.83,3.55,3.39,5.08,5.32A7.66,7.66,0,0,1,435.51,52.61Z"/><path class="cls-6" d="M281.06,153.73c1.42.54,1.33,2.1,2,3.14,1.36,2.16,2.6,4.41,4.1,6.49a1.56,1.56,0,0,1,.3,1.13,1.16,1.16,0,0,1-.86-.56c-1.72-2.94-3.61-5.78-5.18-8.81A2.84,2.84,0,0,1,281.06,153.73Z"/><path class="cls-6" d="M281.05,70.1c-.13,1.5-1.09,2.68-1.6,4-1,2.76-2.16,5.49-3.23,8.24-.1.27-.2.49-.5.56"/><path class="cls-6" d="M422.62,39.75a9.42,9.42,0,0,1-3.05-2.09c-.7-.73-2-.68-2.27-1.91,1.42.17,2.18,1.39,3.24,2.13C421.28,38.4,422.4,38.61,422.62,39.75Z"/><path class="cls-8" d="M354.81,35.18a1.54,1.54,0,0,1,1.22-.42c4.05.05,8.1-.15,12.15.12a18.28,18.28,0,0,1,9.41,3c5.15,5.06,5.05,11.5,4.7,18a18.43,18.43,0,0,1-1.18,5.62c-1.88,5-5.66,7.37-10.78,8-4.85.57-9.72.18-14.59.3h-.67c0-.66-.08-1.33-.08-2q0-13,0-26.07a3.55,3.55,0,0,0-.15-1.71A27.26,27.26,0,0,0,354.81,35.18ZM362.26,63a19.24,19.24,0,0,0,7.67-.32,5.84,5.84,0,0,0,4.61-4.85,27.88,27.88,0,0,0,0-11.18,5.5,5.5,0,0,0-3.29-4.29,17.23,17.23,0,0,0-9.06-.81c-.26.2-.16.48-.16.74q0,9.85,0,19.7C362.07,62.3,361.93,62.69,362.26,63Z"/><path class="cls-8" d="M319,35.17a1.58,1.58,0,0,1,1.21-.42h4.91a1.33,1.33,0,0,1,1.19.43c-.08,7.31-.22,14.63.06,22,.19,5.15,2.75,7.26,7.88,6.95h.27c3.65-.32,5.44-2.11,5.84-5.82a1.7,1.7,0,0,0,.19-1.15,40.56,40.56,0,0,0,.16-6.52c0-4.94-.09-9.88-.14-14.82V35.7c.1-.77.58-1,1.3-1,1.67,0,3.34,0,5-.08l1,.5c0,1.16-.09,2.32-.09,3.47,0,5.68,0,11.35,0,17a24.7,24.7,0,0,1-1,7,9.68,9.68,0,0,1-7.49,7.08,22,22,0,0,1-14.56-1.07c-3.33-2-4.77-5.15-5.31-8.84a26.87,26.87,0,0,1-.33-4q0-9.26,0-18.51c0-.53-.08-1.06-.12-1.59Z"/><path class="cls-8" d="M388.46,44.29c0-2.72.06-5.44,0-8.15,0-1,.25-1.38,1.26-1.37,4.41,0,8.82,0,13.23.07a12.07,12.07,0,0,1,9.22,4.08,16.79,16.79,0,0,1,1.38,11.82c-1,4.77-3.84,7.23-8.73,7.94a54.34,54.34,0,0,1-7.76.2c-1.1,0-1.49.31-1.46,1.44.08,2.73,0,5.46.05,8.18,0,.91-.23,1.29-1.19,1.25-1.65-.06-3.31,0-5,0-.82,0-1-.21-1-1.06C388.51,60.56,388.48,52.42,388.46,44.29Zm17.86.05c-.53-1.93-2-2.77-3.8-3.11a38.14,38.14,0,0,0-6.14-.25c-.73,0-.76.46-.76,1,0,3.26,0,6.51,0,9.77,0,.66.17,1,.89,1a39.72,39.72,0,0,0,6.54-.35,3.6,3.6,0,0,0,3.23-2.92A8.86,8.86,0,0,0,406.32,44.34Z"/><path class="cls-8" d="M416.61,89.13c1.54-1.78,3.13-3.52,4.59-5.36a2.76,2.76,0,0,1,2.54-1.13c1,.06,2,0,3.05,0,.17.66-.35.86-.61,1.16-1.57,1.77-3.14,3.53-4.77,5.25a1.28,1.28,0,0,0-.13,2c1.9,2.64,3.71,5.35,5.55,8,.2.29.56.59.38.94s-.65.18-1,.23c-2.43.37-4.27-.23-5.33-2.72a29.82,29.82,0,0,0-2.44-3.83c-.37-.6-.61-.56-1.09-.08A2.75,2.75,0,0,0,416.28,96a7.64,7.64,0,0,1,0,1.07c0,3.19,0,3.15-3.19,3.13-1,0-1.18-.38-1.17-1.27,0-3.52,0-7,0-10.58,0-4,0-7.95,0-11.93,0-.9.21-1.24,1.18-1.24,3.18,0,3.18,0,3.18,3.13,0,3.56,0,7.12,0,10.67Z"/><path class="cls-8" d="M321.1,82.94a17.2,17.2,0,0,1,4.84-.85,8.32,8.32,0,0,1,6.71,3,13.49,13.49,0,0,1,1,10.12,6.48,6.48,0,0,1-5.32,5.18c-3.25.59-6.41.55-9-2-.12-.13-.24-.26-.35-.4C315.8,94,316.92,85.93,321.1,82.94Zm8.6,8.43a24,24,0,0,0-.33-2.58,3.26,3.26,0,0,0-3.6-2.87,3.38,3.38,0,0,0-3.72,2.76,11,11,0,0,0,0,5.43,3.45,3.45,0,0,0,3.82,2.82,3.35,3.35,0,0,0,3.55-3C329.57,93.14,329.59,92.29,329.7,91.37Z"/><path class="cls-8" d="M338.56,89.83A39.87,39.87,0,0,0,336.42,84c-.37-.94-.33-1.41.84-1.35a5.09,5.09,0,0,0,2-.12A1.74,1.74,0,0,1,341,84c.5,1.61,1.1,3.2,1.69,4.78s1.2,3.07,1.88,4.79a25.39,25.39,0,0,0,1.87-4.51c.72-1.82,1.36-3.67,2-5.53a1,1,0,0,1,.92-.82,31.44,31.44,0,0,1,3.22,0c.9.06.44.66.27,1.07L347,98.29a50.32,50.32,0,0,1-2.28,5.28,7.2,7.2,0,0,1-9,3s-.1,0-.12,0c-.91-1.07.23-2,.23-3,0-.58.39-.74,1-.65,3.15.45,4.27-.29,5.21-3.32a1.25,1.25,0,0,0,0-.91C340.9,95.7,340,92.64,338.56,89.83Z"/><path class="cls-8" d="M362.1,100.72c-2.7-.08-5.05-.4-6.92-2.24-.56-.56-.75-1,.1-1.4a4.81,4.81,0,0,0,.87-.63,1.79,1.79,0,0,1,2.71-.1c1.34,1.1,3.1,1,4.74.54a1.45,1.45,0,0,0,1.19-1.43,1.34,1.34,0,0,0-1.09-1.35c-1.53-.48-3.08-.89-4.6-1.4-3.59-1.2-5.09-4.14-3.81-7.28a4.89,4.89,0,0,1,2-2.24c2.7-1.76,8.22-1.32,10.63.82.76.68,1.11,1.28-.06,1.89a5,5,0,0,0-1.1.77,1.19,1.19,0,0,1-1.92,0c-1.27-1.18-2.87-1.07-4.43-.79a1.48,1.48,0,0,0-1.25,1.4,1.36,1.36,0,0,0,1.1,1.35c1.36.43,2.74.78,4.1,1.23,2.22.74,4.29,1.74,4.67,4.4.48,3.26-1.45,5.68-4.93,6.28C363.38,100.66,362.61,100.67,362.1,100.72Z"/><path class="cls-8" d="M397.83,91.45c0,.53.05,1.07.11,1.6a4.16,4.16,0,0,0,6.71,3.11c.85-.61,1.38-.59,2.06,0,.17.15.35.28.53.41,1.72,1.21,1.77,1.54-.08,2.7a9.82,9.82,0,0,1-9.74.43c-2.88-1.32-3.82-3.94-4-6.92a12.41,12.41,0,0,1,1-6.67c1.73-3.38,5.91-4.89,10.1-3.73a6.92,6.92,0,0,1,3.54,2c.41.47.43.83-.14,1.19a11.8,11.8,0,0,0-1.65,1.14c-.57.51-1,.47-1.61,0-3-2.17-6.35-.63-6.73,3C397.88,90.37,397.86,90.91,397.83,91.45Z"/><path class="cls-8" d="M302.06,100.29c-1.35-.19-1.71-.87-1-2.06a1.12,1.12,0,0,0,.08-.26c.75-2.22.74-2.18,3.08-1.71,1,.21,2.17.58,3.12-.32a2,2,0,0,0,.86-1.67,3.38,3.38,0,0,0,.21-1.83c0-4.69,0-9.38,0-14.07,0-1.14.38-1.51,1.47-1.42s2.23.07,3.35.09c0,5.21,0,10.42,0,15.63,0,.81,0,1.61-.06,2.41a5.42,5.42,0,0,1-4.7,5.35A15.44,15.44,0,0,1,302.06,100.29Z"/><path class="cls-8" d="M380,82.59l.88,0c.79,1.45.56,3.09-.51,3.55h-.65c-.22,0-.44-.06-.66-.07-1.87,0-1.87,0-1.87,1.9,0,2.18,0,4.37,0,6.55s.9,2.9,3,2.5c.56-.1,1.13-.39,1.58.23a9.45,9.45,0,0,0,.16,1.19c.48,1.84.49,1.71-1.43,2.1a9.16,9.16,0,0,1-4.5-.19,3.91,3.91,0,0,1-2.9-3.16c-.56-2.61-.17-5.25-.28-7.87a19,19,0,0,1,0-2c.07-.89-.19-1.37-1.18-1.23-.8.12-1.16-.25-1.08-1.07a6,6,0,0,0,0-1.2c-.08-.87.25-1.27,1.14-1.16s1.19-.31,1.11-1.17c-.06-.71,0-1.43,0-2.14,0-1.72,0-1.72,1.78-1.72,2.61,0,2.58,0,2.61,2.58a6.56,6.56,0,0,0,0,2.21A3.71,3.71,0,0,0,380,82.59Z"/><path class="cls-8" d="M389.3,91.37c0,2.54,0,5.09,0,7.64,0,.94-.32,1.21-1.23,1.22-3.17,0-3.16.08-3.16-3,0-4.38,0-8.76,0-13.14,0-1.13.35-1.44,1.46-1.43,3,.05,3,0,3,3Z"/><path class="cls-8" d="M387.23,75.58c1.56,0,2.33.78,2.29,2.29S388.69,80,387,80s-2.4-.75-2.36-2.22S385.45,75.57,387.23,75.58Z"/><path class="cls-7" d="M381.78,97.26c-.45-.62-1-.33-1.58-.23-2.13.4-3-.31-3-2.5s0-4.37,0-6.55c0-1.94,0-1.94,1.87-1.9.22,0,.44,0,.66.07-.14.53-.58.51-1,.48-.88-.08-1.18.31-1.17,1.17,0,2.28,0,4.55,0,6.82,0,1.54.7,1.95,2.22,1.84C380.41,96.42,381.7,95.59,381.78,97.26Z"/><path class="cls-7" d="M354.83,40a3.55,3.55,0,0,1,.15,1.71q0,13,0,26.07c0,.67.05,1.34.08,2-.31-.27-.26-.64-.26-1Q354.81,54.35,354.83,40Z"/><path class="cls-7" d="M380.34,86.16c1.07-.46,1.3-2.1.51-3.55.08,0,.18-.14.23-.12,1.46.58.55,1.82.73,2.74a1.09,1.09,0,0,1-1,1.33C380.55,86.59,380.39,86.4,380.34,86.16Z"/><path class="cls-7" d="M380,82.59a3.71,3.71,0,0,1-2.72-.16A7.78,7.78,0,0,1,380,82.59Z"/><path class="cls-6" d="M340.58,35.76c.05,4.94.13,9.88.14,14.82a40.56,40.56,0,0,1-.16,6.52s0-.08,0-.12-.1-.44-.19-.12a4.61,4.61,0,0,0,0,1.39c-.4,3.71-2.19,5.5-5.84,5.82h-.27c-5.13.31-7.69-1.8-7.88-6.95-.28-7.32-.14-14.64-.06-22A72.7,72.7,0,0,1,332.4,40c1.07.85,2.15,1.71,3.18,2.62a48.9,48.9,0,0,0,4,3.18c.24.17.35.59.73.47s.36-.58.36-.92C340.63,42.18,340.6,39,340.58,35.76Z"/><path class="cls-6" d="M319,35.17v.55a3.39,3.39,0,0,0-.17,1.7c0,7,0,13.91,0,21a2,2,0,0,1-.22-1.33q0-10.65,0-21.28a2.05,2.05,0,0,1,0-.79C318.78,34.77,318.88,35.13,319,35.17Z"/><path class="cls-6" d="M308.18,94.27a2,2,0,0,1-.86,1.67c1.07-5.78.41-11.6.45-17.41a1.43,1.43,0,0,1,.41-1Z"/><path class="cls-6" d="M346.88,34.67c-1.67,0-3.34.09-5,.08-.72,0-1.2.18-1.3,1-.42.45-.26,1-.27,1.53,0,2.57,0,5.15-.24,7.72q0-4.74,0-9.46c0-.77.49-.81,1.08-.81C343.05,34.69,345,34.68,346.88,34.67Z"/><path class="cls-1" d="M321.22,132.77c2.77-.19,4.73,1.93,4.79,4.73.06,2.19-2.31,4.45-4.58,4.45a4.8,4.8,0,0,1-4.72-4.35C316.57,134.79,318.94,132.46,321.22,132.77Z"/><path class="cls-1" d="M411.19,162.33a4.65,4.65,0,0,1-4.88-.55,4.86,4.86,0,0,1-1.76-4.71,4.59,4.59,0,0,1,4.16-3.46c3-.22,5.57,2,4.85,5.8a2.23,2.23,0,0,0-.52,1.3l0,0a.46.46,0,0,0-.48.54l0,0a.44.44,0,0,0-.51.5l0,0A.68.68,0,0,0,411.19,162.33Z"/><path class="cls-6" d="M413,160.71a2.23,2.23,0,0,1,.52-1.3C413.54,159.91,413.76,160.5,413,160.71Z"/><path class="cls-6" d="M411.19,162.33a.68.68,0,0,1,.77-.49C411.88,162.28,411.56,162.35,411.19,162.33Z"/><path class="cls-6" d="M412.54,161.28a.46.46,0,0,1,.48-.54A.51.51,0,0,1,412.54,161.28Z"/><path class="cls-6" d="M412,161.81a.44.44,0,0,1,.51-.5A.52.52,0,0,1,412,161.81Z"/><path class="cls-6" d="M362.23,41.52a17.23,17.23,0,0,1,9.06.81,5.5,5.5,0,0,1,3.29,4.29,27.88,27.88,0,0,1,0,11.18,5.84,5.84,0,0,1-4.61,4.85,19.24,19.24,0,0,1-7.67.32C362.33,55.82,362.38,48.67,362.23,41.52Z"/><path class="cls-7" d="M362.23,41.52c.15,7.15.1,14.3,0,21.45-.33-.28-.19-.67-.19-1q0-9.84,0-19.7C362.07,42,362,41.72,362.23,41.52Z"/><path class="cls-7" d="M340.37,58.25a4.61,4.61,0,0,1,0-1.39c.09-.32.16,0,.19.12s0,.08,0,.12A1.7,1.7,0,0,1,340.37,58.25Z"/><path class="cls-6" d="M406.28,49.44a3.6,3.6,0,0,1-3.23,2.92,39.72,39.72,0,0,1-6.54.35c-.72,0-.9-.32-.89-1,0-3.26,0-6.51,0-9.77,0-.52,0-1,.76-1a38.14,38.14,0,0,1,6.14.25c1.83.34,3.27,1.18,3.8,3.11C406.31,46,406.29,47.74,406.28,49.44Z"/><path class="cls-7" d="M406.28,49.44c0-1.7,0-3.4,0-5.1A8.86,8.86,0,0,1,406.28,49.44Z"/><path class="cls-6" d="M329.7,91.37c-.11.92-.13,1.77-.31,2.59a3.35,3.35,0,0,1-3.55,3A3.45,3.45,0,0,1,322,94.11a11,11,0,0,1,0-5.43,3.38,3.38,0,0,1,3.72-2.76,3.26,3.26,0,0,1,3.6,2.87A24,24,0,0,1,329.7,91.37Z"/></svg>