<svg id="Layer_1" data-name="Layer 1" xmlns="http://www.w3.org/2000/svg" viewBox="0 0 694.67 414.67"><defs><style>.cls-1{fill:#1b1f1e;}.cls-2{fill:#313534;}.cls-3{fill:#5d6160;}.cls-4{fill:#fdfdfc;}.cls-5{fill:#fff;}.cls-6{fill:#8ccfb3;}.cls-7{fill:#e57873;}.cls-8{fill:#cfd173;}.cls-9{fill:#3983ad;}.cls-10,.cls-11{fill:none;stroke-linecap:round;stroke-linejoin:round;stroke-width:5px;}.cls-10{stroke:#8ccfb3;}.cls-11{stroke:#e57873;}</style></defs><circle class="cls-1" cx="347.06" cy="211.78" r="35.8"/><path class="cls-1" d="M463.6,312.22h-1.41c0-.43,0-.86,0-1.29,1.64-8.34-.38-16.82,1.26-25.24a11,11,0,0,0-3.25,3.19c-3.22,5.2-7.3,9.72-11,14.51-2.05,2.65-5.37,4.15-6.78,7.4-1.12.46-1.9,1,0,1.37,2.44.48,5-.65,7.42.61q-.51,9.78-1,19.55c-3.07-.95-6.09-2.87-8.69,1.25-.8,1.26-2.49,0-3-1.47-.33-1-.17-2.21-.61-3.14-.68-1.47-1.75-3.2-3.49-2.88-2,.36-.9,2.08-.66,3.33a2,2,0,0,1-.14,1.15c-2.85,5.58-1.83,11.56-1.87,17.43a5.54,5.54,0,0,0-.79,3.89l-.82,0h-.85c-2.09-5.87-2.89-12-4.12-18.11-.07-.39,0-.81-.05-1.21-.78-5.81-2.52-6.75-7.34-3.69-3.59,2.28-7.21,4.38-11.47,5.1a1.43,1.43,0,0,0-1.55.53l-1.63.32c-1-.2-2.26.08-2.46-1.51-.37-2.88-2-3.23-4.63-2.69a79.11,79.11,0,0,1-12.81,1.68c-13.4.5-26.81,1-40.23,1a291.81,291.81,0,0,1-46-3.37c-6.63-1.06-6.64-1-6.36,4.11l-1.7-.57-.71-.27c-8.26-2.57-15-7.84-22.59-12.58-1.05,4.39.85,9.49-3.59,12.58-4.19-.63-1.18-5.5-4.47-7.1-1.64,3.93-4,7.23-8.45,8.53-.66.19-1.27,1.46-1.42,2.32-.54,3.05-2,3.55-4.47,1.93-.65-9-.58-17.93-.48-26.9,3.26,0,6.51,0,9.77,0,.65,0,1.42.14,1.79-.61s-.26-1.22-.78-1.62c-10.14-7.89-16.69-18.63-23.36-29.29-.56-.89-.39-2.94-2.13-2.42s-1.06,2.37-.91,3.55c.41,3.1,1.26,6.51,1.11,9.25a101.37,101.37,0,0,0,.42,15.69c.19,1.88-.06,3.61-2.5,3.86-2.41-.86-1.91-3.14-2.1-4.85-1-8.9-1.51-17.87-2.79-26.73-.88-6.07-1.75-12-.88-18.17.18-1.23-.46-2.63-.89-3.9C206,221,209.23,186.34,226,152.9c13.45-26.79,34.49-46.19,61.25-59.11a132,132,0,0,1,50.06-12.87,19.53,19.53,0,0,1,3.21.33c.86,1.9.2,3.81,0,5.71-3.33-.27-7-2.53-9.78-1.06s-5.56,1.52-8.43,2c-3.42.54-6.71,2-10.13,2.42-4.8.56-8.58,3.86-13.51,4.24-3,.24-7,1.57-8.33,4.25A16.75,16.75,0,0,0,288.76,111a52.09,52.09,0,0,1,13.84-7.07c9.66-3.26,19.07-7.72,29.62-7.12,3.75.21,6.61-.68,8.35-4.17a2.91,2.91,0,0,1,.05.72c.05,1.41-.57,2.91.61,4.15a30.35,30.35,0,0,1-.82,10.31,7.06,7.06,0,0,1-3.8.45.68.68,0,0,0-1,.39c-1.57,1.2-3.44.28-5.13.74-8.86,2.43-18,4-26.58,7.35-9.07,3.52-16.5,9.13-20.21,18.38a26.21,26.21,0,0,1-5.61,8.16c-3.57,3.88-8.82,4.89-12.85,8.06-5,4-10.42,7.38-13.8,13-1.13.28-2.82-.72-3.29.91-.22.8,1.09.69,1.81.73l-.45,1.6c-3.95-.43-3.54,3.19-4.74,5.23-.68,1.16-.78,2.63,1.21,3,.65,1.52-.34,2.75-.74,4.08-.59.11-1.4.07-1.27.94,0,.28.75.46,1.16.69a2.91,2.91,0,0,1-.25,2.41c-2,1.18-2.06,2.29.13,3.31.67,2.12.42,4.58,2.34,6.24a.78.78,0,0,0,1.17-.35l2.36-.28c.61,4.46,2.93,6.1,7.74,5.47,3.87-.1,8.32-.59,11.19-2.06,2.23-1.14,2-7,2.9-10.81.15-.65.16-1.35.33-2,.67-2.46,1.18-5,3.28-6.8,3.92-3.43,7.85-6.85,11.63-10.44,3.12-3,6.61-3.44,10.49-2.17s8,2.69,12,4l.81.37,1.62.36.91.42a5.42,5.42,0,0,1,3.13.92c-.12.68-.38,1.62-1.12,1.37-5.27-1.72-11.11-.55-16.17-2.87-8.49-3.89-9.25-1.63-15.35,3.68-7,4.94-10.36,11.72-10.72,20.21-.13,3.16,1.12,4.24,4.05,3.6,2.24-.49,4.43-1.2,6.76-.66.83,1.05,2.63,1.39,2.34,3.24l-2.16-1A8.31,8.31,0,0,0,273.23,203c-1.25,4.85-1.55,9.85-2.75,14.72-1.12,4.56-1.23,9.36-1.83,14.05-.3,2.38.87,2.6,3,3,4,.81,2.92-3.48,5.09-4.27l.45,3.73c-.28.74-.39,1.6-1.2,2a2.76,2.76,0,0,1-.64-.1c-1.38-1.8-2.8-.35-4.21-.07-5.47,2.43-11.06,4.61-16.1,7.88-1,.65-3,1.23-2.27,2.88,1.39,3,1.12,6.81,4.38,8.85,1.39,1.1,2.73,2.38,4.7,1.24,8.31-3.79,14.64-9.16,15.3-19.09a13.55,13.55,0,0,0,10.69-.1c1.41-.62,2.52-1.08,1.79-2.88a.49.49,0,0,1,.08-.56c2.17,0,4.36.15,6.51,0,9.6-.85,18.59.13,25.47,7.95,0,.42.07.84.11,1.26-7.75.93-14.47-4.23-22.18-3.65,5.14,1.79,9.95,4.59,15.6,4.66,1.7,2.22,3.36,2.31,5-.07l1.63,0c.8,1.16,1.56.13,2.34,0,1.94,1.26,3.86,2.53,4.08,5.15.84,9.64,1.91,19.27,1.54,29-13.35-.14-26.72.58-40-.71-7.57-.73-15.09,1.13-22.68.8-.95,0-2.25-1.06-2.93.22s.44,2.19,1.15,3.2c4,5.68,9.34,10,14.5,14.52a51.18,51.18,0,0,0,34.36,13,4.6,4.6,0,0,0,3.07-.76c4.75-3.59,8.47-7.68,8.75-14.15.13-2.85,1.55-5.43,4.79-6.26l1.55.31c.25.61.47,1.72.75,1.73q4.14.25,8.3.14c.74,0,.74-1,.94-1.65a76.72,76.72,0,0,1,13.64-.14c1.81,2.92,4.94,2.92,6.73,0l1.51-.45c2.08,3.32,4.1,6.51,4.26,10.76a9.07,9.07,0,0,0,6,8c6.23,2.52,12.18,1.81,18.76-.19a69.48,69.48,0,0,0,20.72-10.28c10.11-7.23,17-17.23,24.33-26.91,1-1.35,1.23-2.29-1.09-3.55-5-2.7-11-2.67-15.58-6.23-1.69-1.29-2.89-.55-3.86,1.69-1.45,3.38-1.3,7.24-3.38,10.36-1.7,2.53-1.54,4.72,1.49,6.53h-51.3c-.64-6.8,1.14-13.56.48-20.32-.69-7,1.46-12.51,7.43-16.32,3.52-2.24,6-6.38,10.29-7,5.87-.84,11.88-.75,17.84-1,.89,0,2-.27,2.47.89,2,4.78,6.08,4.21,10,3.91,2.65-1.35,3.13.86,4,2.43-.2,4.68,1.1,8.56,5.72,10.64l8.47,5.06c4,1,5.59-.33,6.26-5.08v0l.65-.74a10.44,10.44,0,0,0,1.41-1.91c2-4.51,1.87-5.85-2.71-6.85-6.62-1.43-11.53-7.14-18.68-7-.59,0-1.21-1-1.82-1.48-.41-1,.13-1.73.63-2.49,1.27,3.9,4.45,3.48,7.52,3.34,2.28-1.81,2.54-3.62,2.06-6.8-1.26-8.33-2.26-16.72-3.78-25-.34-1.88-.76-3.8-3.2-4.09l-2.34-1,1.51-1.4c.83-.57,1.57-1.49,1.39-2.33-1.36-6.32-1-13.3-6.84-17.93a111.18,111.18,0,0,1-8.55-7.36c-3.14-3-6.33-2.93-10-1.06-1.75.9-3.12,2.61-5.31,2.61-3.7-.41-7.6-2.09-10.69,1.6l-1.62,0-1.6-1.52c5.84-2,11.71-4,17.54-6,5.19-1.84,9.76-1.39,13.46,3.16a10.67,10.67,0,0,0,4.91,3.3c.52,2.74,3.14,3.54,4.85,5.17a9.65,9.65,0,0,1,3.37,5.75c.73,4.06,1.69,8.09,2.64,12.11.22.93,0,2.62,1.5,2.4,2.75-.41,5.17,1.31,7.86.87,3.22,2,6.21.91,8.92-1a6.67,6.67,0,0,1,3.51-1.5c2.27.11,1.81-2.36,3.05-3.23,2.45-.94,2.91-2.6,1.75-4.84,0-.62,0-1.23,0-1.85,2.12-5.11.12-9.74-1.57-14.46-.56-1.57-1.52-1.66-2.8-1.53l-.6-.9-.55-.82c-.41-1.74-1.68-3-2.65-4.35a.64.64,0,0,0-.49-.53c-3.67-5.35-8.95-8.8-14.28-12.21-4.81-3.08-10.39-5-14.13-9.67-2.16-2.68-2.29-6.33-4.27-9-5.81-7.92-13.7-13-22.81-16.33a112.45,112.45,0,0,0-32-6.79q-.1-5.5-.23-11l.11-3.54.1-1.5c1.53.9-.27,3.88,2.51,4,6.88.3,13.53,2.07,20.27,3.27a68.51,68.51,0,0,1,28.53,12.34,13.48,13.48,0,0,0-.06-3.72c-.95-3.12-.24-7.56-3.21-9.11-8.53-4.43-17.82-7-27.13-9.41-4.73-1.25-9.64-1-14.23-2.43-2.3-.72-4.34-2-6.77-.68,0-1.66,0-3.31,0-5,13.5-.39,26.44,2.64,38.95,7.15,49.44,17.82,79.24,52.88,89.5,104.22a117.66,117.66,0,0,1-4.88,63c-3.61,10.17-4.58,20.51-6.05,30.91-1,7-1.74,14-2.44,21a5,5,0,0,1-3.23,4.57A.63.63,0,0,0,463.6,312.22ZM276.07,276.86c5.78.1,6.06-.32,3.39-5.5-1-1.89-2.83-3.58-3.11-5.52-.45-3.17-2.22-3.43-4.7-3.69-3.71-.39-6.58,2.06-10,2.52-2.42.33-5.51.91-6.15,3.15-.78,2.76,1.81,4.79,4,6.47a2.48,2.48,0,0,0,.37.17,13.06,13.06,0,0,0,1.28.93C265.86,278.19,271.09,276.32,276.07,276.86Zm-28.47,9.82a11.14,11.14,0,0,0,2.16-1c4.21-3.14,4.31-3.91-.5-5.75-3-1.16-4-4.38-4.29-5.83-.9-5.45-4.53-9.47-6.18-14.44-2.08-6.25-4.65-12.34-7-18.49-.94-2.44,1.06-5.83.44-6.73-2.79-4,2.23-2.93,2.75-4.79.45-1.62,1.76.53,2.71,1s2.88.73,2.06-.53c-1.9-2.93.68-4.09,1.82-4.76,2.77-1.65,1.45-2.5-.11-3.68-.82-.61-2.73-1.5-2.31-1.75,2.3-1.4.55-5.44,5.4-5.5-3.17-1.41-6.14-2.24-1.07-4.77-3.74-.06-5.62-3.44-8-2.49-4.51,1.84-5.45-1.6-6.45-4-.67-1.63-1-2.56-2.8-3.19s-4.44-1.9-1-4.29a2.3,2.3,0,0,0,.5-3.3c-2.17-3,2.47-5.24.84-8.14,4.69-4.79,5.78-11.44,8.82-17.09,2.13-4,4.61-7.82,6.13-12,1.44-4,4.36-6.57,7-9.47,1.13-1.25,5.25-6.31,7.24-6.73,3.52-.74,5.09-4.35,8.36-4.58,3-.21,3.8-3.55,6.65-4.07,1-.18.2-2.4,0-3.73-.23-1.69.82-2,2.34-1.58,3.15.92,2.75-.6,2.46-3s-2.78-3.64-2.17-6.28c4.38,3.54,4.5,3.5,5.71-2.27a16.06,16.06,0,0,0,.23-4c-.11-2.2-1.52-2.73-2.93-1.31-2.75,2.75-6.3,4.24-9.52,6.08s-5,5-8.06,6.87a34.09,34.09,0,0,0-12.21,12.78c-2.84,5.23-7.8,8.93-9.67,14.58-.94,2.84-4.2,4.38-4.5,6.76a20.37,20.37,0,0,1-2.88,8.24c-1.85,3.1-.68,7.21-2.27,9.92-5.85,9.91-5.95,20.86-6.45,31.67-.2,4.46.37,9.16.27,13.58-.15,7.24,1.8,14,2.3,21,.4,5.63,4.58,9.4,5.41,14.73.81,5.15,4.43,9.39,6.16,14.21s6.85,7.1,8.22,12c.06.19.7.26,1.08.32,4,.69,4.82,2.09,3.31,5.87l-.2.33Zm212-81.52c-1.36,0-2.63,0-3.67,1.21-3.58,4.16-9.55,3.62-12.6,2.13-4.68-2.28-9.75-4.2-14.13-7.23-.78-.54-1.59-1.4-2.47-.57-1.11,1.06-.19,2.07.62,2.72,2,1.64,3.73,3.65,5.7,5.36,1.08.94,6,3.19,1.15,6.16-.5.31-.6,1.45-.66,2.23-.23,2.81.29,5.64-.64,8.45-.36,1.08.14,2.38,2.08,2.86-.89-2.39,5.35-4.3-.47-6.56a26.26,26.26,0,0,0,7.15-6.16h0c1.92.46,3.47-.82,5.21-1.44a1.7,1.7,0,0,1-1,2.18c-.68.43-1.47.76-1.39,1.77.65,1.21,2.26-.65,2.7.79.67,2.17-2.7.87-2.49,3.22H449c-.63,3,1.22,5.62,1.63,8.48.28,1.92,2.62,1.83,3.89.49s2.24-1.94,3.46-.1a1.66,1.66,0,0,0,2.49.45c3.74-2.25,3.93-.5,3.24,2.69-.49,2.29,2.62,5.23-1.54,6.68,1.28,1.23,2.67-.72,3.67.88-.4,2.67-5,1.16-5,4.4,1.42.71,2.08-1.76,3.95.17-3.64,1.58-6.56,3.81-7.21,8,1,.78,2.37-1.06,3.3.42-.48,1.5-2.07.82-3,1.48-2.51,1.7-3.5,6.19-1.44,7.34-.57,1.14-2.66.5-2.87,2.56,2.49-.22,6.22.09,6.3-1.94.16-4.12,2.35-7.34,3.72-10.71,2.56-6.29,5.31-12.59,6.14-19.21.27-2.17,3.24-3.12,1.76-5.29-.88-1.29-.36-2.24-.24-3.55.38-4,1.49-8,.71-12.11a17,17,0,0,1-.41-4.38c.3-4.35,1.82-8.49.05-13.09-1.06-2.75-1.1-6.15-1.53-9.18-.81-5.67-3.22-10.79-4.21-16.33-.38-2.11-4-3-2.4-6.08.19-.36-.81-.44-1.34-.3-.77.19-1.18.24-1.12-.89.21-4.1-2.39-7.41-3.62-11.07-.94-2.78-3.57-5.15-5.05-8a59.7,59.7,0,0,0-7.58-11c-3.25-3.9-5-9.23-11.2-9.76-.84-.07-.7-1-.76-1.67-.09-.84-.18-1.71-1.2-1.86-3-.46-4.41-3-6.47-4.67-5.89-4.87-10.89-11.1-19.13-12.63a17.08,17.08,0,0,0,1.33,9.58c1.11-.57,1.9-3.53,3.4-.62s3,5.75,4.39,8.67c1.94,4,4,7.88,7.34,11.07,3.15,3,8.08,1.77,11,5.09.44.5,1.24.33,1.88-.08s1.26-.92,1.46.29c.64,3.78,2.11.12,2.88.26,1.23,1.53-.53,3.1.14,4.46,1.45.13.78-1.94,2.28-1.48.62,1.65-1.43,3.11-.59,4.75,1.58.57,1.53-2,3.21-1.32-.34,1.65-1.14,3.7,1.92,3.41h0a12,12,0,0,0,1.71,5.68c4.14,6.63,8.14,13.35,12.39,19.9,2.11,3.27,1.63,7.87,3.95,10.35,3.5,3.75,2.49,7.87.48,10.06-2.66,2.92-.34,2.54.95,3.39,1,.65,1.91,1.39,2.92,2.13-1.88,1.3-3.06,3-4.91,4.1-2.25,1.34-4.38-.38-6.55.24.22,1.52,2.4,1.24,2.1,2.85Zm-204.8,79.9a7.91,7.91,0,0,0-5,3.36c-.6.84,0,1.52.55,2.12,1.94,2,4,4,5.8,6.13,4,4.71,10.2,6.78,14.1,11.48,2.85,3.44,7,4.41,10.48,6.68,1.42.93,2.72.71,2.24-1.93-.73-4.06-4.21-5.64-6.78-7.54-6.39-4.72-12.9-9.06-16.55-16.53C258.67,287,257.15,285.18,254.76,285.06Zm25.52-172.31c8.21-.69,5.62-7.3,6.55-12C282.79,103.79,279.45,107.24,280.28,112.75ZM398.39,239c-8.78,0-17,2.54-25.27,5.31C382.14,245.65,390,241,398.39,239ZM222.45,266.87c.12,5.88.12,5.88,3.47,8Zm74.17-27.68.28-.18c-.08-.07-.2-.22-.24-.2a1.74,1.74,0,0,0-.34.28Z"/><path class="cls-2" d="M289.17,334c-.28-5.11-.27-5.17,6.36-4.11a291.81,291.81,0,0,0,46,3.37c13.42,0,26.83-.47,40.23-1a79.11,79.11,0,0,0,12.81-1.68c2.67-.54,4.26-.19,4.63,2.69.2,1.59,1.45,1.31,2.46,1.51a6,6,0,0,1-4.06.85c.16-2.23-.85-2.27-2.73-1.81-8.08,2-16.35,2-24.59,1.73-5.45-.19-10.65,1.64-16.05,1.65-1.52,0-3.13-.14-3.18,2.09-19.23.37-38.41-.09-57.37-3.78C292.17,335.22,290.48,335.09,289.17,334Z"/><path class="cls-2" d="M224.7,310.36c2.44-.25,2.69-2,2.5-3.86a101.37,101.37,0,0,1-.42-15.69c.15-2.74-.7-6.15-1.11-9.25-.15-1.18-.82-3,.91-3.55s1.57,1.53,2.13,2.42c6.67,10.66,13.22,21.4,23.36,29.29.52.4,1.18.81.78,1.62s-1.14.61-1.79.61c-3.26,0-6.51,0-9.77,0-4.31-1.59-8.81-.38-13.2-.84C226.92,311,225.63,311.56,224.7,310.36Z"/><path class="cls-2" d="M241.77,338.82c2.47,1.62,3.93,1.12,4.47-1.93.15-.86.76-2.13,1.42-2.32,4.41-1.3,6.81-4.6,8.45-8.53,3.29,1.6.28,6.47,4.47,7.1a.84.84,0,0,1,.12.67v1.13a.72.72,0,0,1-.14.66,2.09,2.09,0,0,0-2,2.48c.1,1,1.23.69,2,.76.09,3.74.17,7.48.27,11.22.05,1.59-.51,2.56-2.28,2.54-5-.05-9.93,0-14.9-.1-1.43,0-2.37-.59-1.83-2.27,4.55-1.57,9.08-.19,13.63,0,1.24.05,3.48.9,3.36-1.5-.1-2-2.17-1.95-3.56-1.66-4.42.89-8.89.61-13.34.73A28.25,28.25,0,0,1,241.77,338.82Z"/><path class="cls-2" d="M430.32,348c0-5.87-1-11.85,1.87-17.43a2,2,0,0,0,.14-1.15c-.24-1.25-1.32-3,.66-3.33,1.74-.32,2.81,1.41,3.49,2.88.44.93.28,2.13.61,3.14.48,1.45,2.17,2.73,3,1.47,2.6-4.12,5.62-2.2,8.69-1.25.39,5.19-.32,10.34-.63,15.5Z"/><path class="cls-3" d="M340.62,93.36a2.91,2.91,0,0,0-.05-.72c0-1.89,0-3.79-.05-5.68.21-1.9.87-3.81,0-5.71l12.21,0c0,1.66,0,3.31,0,5l.09,5.74c0,.5-.07,1-.1,1.5Z"/><path class="cls-1" d="M351.09,339.3c.05-2.23,1.66-2.08,3.18-2.09,5.4,0,10.6-1.84,16.05-1.65,8.24.28,16.51.27,24.59-1.73,1.88-.46,2.89-.42,2.73,1.81h0l-.78.2a7.12,7.12,0,0,1-4,.63,2.46,2.46,0,0,0-2.56.51l-3.24.26a2.61,2.61,0,0,0-2.43.4l-5.69.43c-1.4-.08-2.83-.49-4.11.46l-9.73.36a45.22,45.22,0,0,0-9.59.16C354.06,339.79,352.57,339.47,351.09,339.3Z"/><path class="cls-3" d="M430.32,348l17.8-.17c.17,1.17.34,2.33-.5,3.34-6,.9-12.05.64-18.09.72A5.54,5.54,0,0,1,430.32,348Z"/><path class="cls-3" d="M241.91,347.81c4.45-.12,8.92.16,13.34-.73,1.39-.29,3.46-.32,3.56,1.66.12,2.4-2.12,1.55-3.36,1.5-4.55-.2-9.08-1.58-13.63,0A2.68,2.68,0,0,1,241.91,347.81Z"/><path class="cls-2" d="M429.53,351.87c6-.08,12.09.18,18.09-.72-.26,2-1.55,2.57-3.38,2.53-4.94-.09-9.89-.14-14.84-.21l-.69-1.63Z"/><path class="cls-3" d="M462.15,310.92c0,.43,0,.86,0,1.29-4.11,1-8.31-.08-12.43.55-2.39-1.26-5-.13-7.42-.61-1.89-.37-1.11-.91,0-1.37Z"/><path class="cls-2" d="M355.49,339.05a45.22,45.22,0,0,1,9.59-.16C361.89,339.27,358.7,339.77,355.49,339.05Z"/><path class="cls-1" d="M260.56,338.84c-.76-.07-1.89.25-2-.76a2.09,2.09,0,0,1,2-2.48Z"/><path class="cls-2" d="M374.81,338.53c1.28-.95,2.71-.54,4.11-.46A7.5,7.5,0,0,1,374.81,338.53Z"/><path class="cls-3" d="M428.71,351.84l.69,1.63c-1.33.24-1.48-.65-1.54-1.62Z"/><path class="cls-2" d="M390.28,337a2.46,2.46,0,0,1,2.56-.51A3.32,3.32,0,0,1,390.28,337Z"/><path class="cls-2" d="M384.61,337.64a2.61,2.61,0,0,1,2.43-.4A3.06,3.06,0,0,1,384.61,337.64Z"/><path class="cls-2" d="M403.33,334.47a1.43,1.43,0,0,1,1.55-.53Z"/><path class="cls-3" d="M463.6,312.22a.63.63,0,0,1,1-.15C464.31,312.42,464,312.61,463.6,312.22Z"/><path class="cls-1" d="M260.7,334.94v-1.13C261.58,334.19,261.56,334.56,260.7,334.94Z"/><path class="cls-2" d="M396.88,335.84l.78-.2Z"/><path class="cls-2" d="M286.76,333.14l.71.27Z"/><path class="cls-3" d="M424.55,234.54c-3.07.14-6.25.56-7.52-3.34-3.14-2.89-6.67-.43-10-.71-1.26-.1-2.79-.25-2.8,1.91,0,1.92.79,3.17,2.61,3.48,2.26.38,4.56.49,6.84.72l-.59,2c-4,.3-8,.87-10-3.91-.49-1.16-1.58-.92-2.47-.89-6,.26-12,.17-17.84,1-4.26.61-6.77,4.75-10.29,7-6,3.81-8.12,9.29-7.43,16.32.66,6.76-1.12,13.52-.49,20.32l-.36,9.82-1.51.45a20.54,20.54,0,0,0-6.73,0,76.72,76.72,0,0,0-13.64.14,41.74,41.74,0,0,0-10-.22l-1.55-.31a52.61,52.61,0,0,0-1-9.85c.37-9.7-.7-19.33-1.54-29-.22-2.62-2.14-3.89-4.08-5.15a4,4,0,0,0-2.48-2.13c-6.88-7.82-15.87-8.8-25.47-7.95-2.15.19-4.34,0-6.51,0-.94-1.06,0-3.45-1.93-3.6-3.66-.28-7.34-1.71-11-.21-2.17.79-1.12,5.08-5.09,4.27-2.12-.43-3.29-.65-3-3,.6-4.69.71-9.49,1.83-14.05,1.2-4.87,1.5-9.87,2.75-14.72a8.31,8.31,0,0,1,11.28-5.27l2.16,1v-.06a1.53,1.53,0,0,0,1.67.84l-.05,0c0,1.13.62,1.59,1.66,1.65l0,0a4.26,4.26,0,0,0,4.36,2.41c5.34-.86,10.08-3.06,13.64-7.34l0,0a3.6,3.6,0,0,0,4.11-1.66l0,0,.85-.85,0,0,1.58-.29c1.51,0,2.46-2,4.19-1.27l.19,1.53a8.74,8.74,0,0,0-2.7,4.8c-1.62.39-1.9,1.78-2.2,3.08-3.16,13.77-2.2,26,9.33,36.54,19.22,17.52,51.11,8.61,57.16-16.68,1.9-7.94,1.68-15.86-3.08-23-.09-2-1.24-3.33-2.55-4.61-.22-.83-1.11-1.44-.81-2.45,3.8.55,6.31,3.73,9.85,4.79l12.11,6.5c1.92,1,3.84,1.29,5.76,0,4.72-3.24,9.07-7.62,15.66-5l2.34,1c.72,4.38,1.53,8.74,2.12,13.13C422.76,219.34,423.62,226.94,424.55,234.54Zm-124-15.69c.62-.82,2.44-.1,2.35-1.66-.07-1.41-1.44-.76-2.22-1-1.11-.39-2.14-1.15-3.43-.8-1.69-.52-.23-2.6-2.16-3.57-.17,2.9-1.38,5.89.57,8s4.88.78,7.62.79C302.58,219.29,301,220,300.56,218.85ZM396,212.5c-.18-.5-.21-1.14-.55-1.47-1.17-1.15-2.65-2.29-4.28-1.78-2,.63-.88,2.52-.87,3.87,0,2.14.18,4.29.28,6.44-.74.78-1.32,1.68.32,1.89a30.74,30.74,0,0,0,4.8.06c2,0,3.12-1.33,2.72-3.13C397.93,216.33,400.45,212.89,396,212.5Zm-48.89,61.91c4.62,0,8.53-3.66,8.59-8s-4.18-8.24-8.88-8.1-8.49,3.89-8.33,8.19A8.25,8.25,0,0,0,347.08,274.41Zm-44-63.36c.12-1.3.14-2.71-1.73-2.33-1.7.34-4,.95-4,2.86s2.61,1.22,4,1.79C303.19,214.12,302.91,212.16,303.11,211.05Z"/><path class="cls-2" d="M449,222.29h-4.33c-.21-2.35,3.16-1,2.49-3.22-.44-1.44-2.05.42-2.7-.79-.08-1,.71-1.34,1.39-1.77a1.7,1.7,0,0,0,1-2.18c-1.74.62-3.29,1.9-5.21,1.44.66-.65,1.36-1.27,2-2s.5-1.7-.09-1.64a20.05,20.05,0,0,0-4.08,1.28c-.59.21-.9.62-.6,1.22.59,1.2,1.74,1.07,2.81,1.1a26.26,26.26,0,0,1-7.15,6.16c5.82,2.26-.42,4.17.47,6.56-1.94-.48-2.44-1.78-2.08-2.86.93-2.81.41-5.64.64-8.45.06-.78.16-1.92.66-2.23,4.84-3-.07-5.22-1.15-6.16-2-1.71-3.66-3.72-5.7-5.36-.81-.65-1.73-1.66-.62-2.72.88-.83,1.69,0,2.47.57,4.38,3,9.45,4.95,14.13,7.23,3,1.49,9,2,12.6-2.13,1-1.2,2.31-1.22,3.67-1.21.11,1.31.59,2.32,2.1,2.29.26,0,.77-.51.73-.66-.35-1.2-1.46-1.31-2.45-1.58a1.67,1.67,0,0,0-.39,0c.3-1.61-1.88-1.33-2.1-2.85,2.17-.62,4.3,1.1,6.55-.24,1.85-1.1,3-2.8,4.91-4.1-1-.74-1.94-1.48-2.92-2.13-1.29-.85-3.61-.47-.95-3.39,2-2.19,3-6.31-.48-10.06-2.32-2.48-1.84-7.08-3.95-10.35-4.25-6.55-8.25-13.27-12.39-19.9a12,12,0,0,1-1.71-5.68l.19-.35-.19.35c-3.06.29-2.26-1.76-1.92-3.41-1.68-.66-1.63,1.89-3.21,1.32-.84-1.64,1.21-3.1.59-4.75-1.5-.46-.83,1.61-2.28,1.48-.67-1.36,1.09-2.93-.14-4.46-.77-.14-2.24,3.52-2.88-.26-.2-1.21-.92-.64-1.46-.29s-1.44.58-1.88.08c-2.93-3.32-7.86-2.05-11-5.09-3.32-3.19-5.4-7-7.34-11.07-1.4-2.92-2.91-5.79-4.39-8.67s-2.29.05-3.4.62a17.08,17.08,0,0,1-1.33-9.58c8.24,1.53,13.24,7.76,19.13,12.63,2.06,1.7,3.49,4.21,6.47,4.67,1,.15,1.11,1,1.2,1.86.06.64-.08,1.6.76,1.67,6.17.53,7.95,5.86,11.2,9.76a59.7,59.7,0,0,1,7.58,11c1.48,2.89,4.11,5.26,5.05,8,1.23,3.66,3.83,7,3.62,11.07-.06,1.13.35,1.08,1.12.89.53-.14,1.53-.06,1.34.3-1.57,3.06,2,4,2.4,6.08,1,5.54,3.4,10.66,4.21,16.33.43,3,.47,6.43,1.53,9.18,1.77,4.6.25,8.74-.05,13.09a17,17,0,0,0,.41,4.38c.78,4.1-.33,8.1-.71,12.11-.12,1.31-.64,2.26.24,3.55,1.48,2.17-1.49,3.12-1.76,5.29-.83,6.62-3.58,12.92-6.14,19.21-1.37,3.37-3.56,6.59-3.72,10.71-.08,2-3.81,1.72-6.3,1.94.21-2.06,2.3-1.42,2.87-2.56-2.06-1.15-1.07-5.64,1.44-7.34,1-.66,2.56,0,3-1.48-.93-1.48-2.31.36-3.3-.42.65-4.15,3.57-6.38,7.21-8-1.87-1.93-2.53.54-3.95-.17,0-3.24,4.64-1.73,5-4.4-1-1.6-2.39.35-3.67-.88,4.16-1.45,1.05-4.39,1.54-6.68.69-3.19.5-4.94-3.24-2.69a1.66,1.66,0,0,1-2.49-.45c-1.22-1.84-2.14-1.29-3.46.1s-3.61,1.43-3.89-.49c-.41-2.86-2.26-5.45-1.63-8.48.6-.1,1.29-.07,1.24-1a.38.38,0,0,0-.25-.26C449,221,449.06,221.69,449,222.29Zm9.63-13.95c-.48-.27-.77-.57-1.08-.58-.55,0-1,.33-.77.93.09.22.64.39,1,.36S458.2,208.67,458.59,208.34Zm-5.25,2.75c.23.1.51.33.67.26s.21-.42.31-.64c-.23-.1-.5-.33-.66-.26S453.44,210.86,453.34,211.09Z"/><path class="cls-2" d="M247.61,286.69c1.51-3.78.72-5.18-3.31-5.87-.38-.06-1-.13-1.08-.32-1.37-4.9-6.48-7.12-8.22-12s-5.35-9.06-6.16-14.21c-.83-5.33-5-9.1-5.41-14.73-.5-7-2.45-13.78-2.3-21,.1-4.42-.47-9.12-.27-13.58.5-10.81.6-21.76,6.45-31.67,1.59-2.71.42-6.82,2.27-9.92a20.37,20.37,0,0,0,2.88-8.24c.3-2.38,3.56-3.92,4.5-6.76,1.87-5.65,6.83-9.35,9.67-14.58A34.09,34.09,0,0,1,258.84,121c3-1.84,4.81-5,8.06-6.87s6.77-3.33,9.52-6.08c1.41-1.42,2.82-.89,2.93,1.31a16.06,16.06,0,0,1-.23,4c-1.21,5.77-1.33,5.81-5.71,2.27-.61,2.64,1.91,4,2.17,6.28s.69,3.91-2.46,3c-1.52-.44-2.57-.11-2.34,1.58.19,1.33,1,3.55,0,3.73-2.85.52-3.62,3.86-6.65,4.07-3.27.23-4.84,3.84-8.36,4.58-2,.42-6.11,5.48-7.24,6.73-2.61,2.9-5.53,5.5-7,9.47-1.52,4.2-4,8-6.13,12-3,5.65-4.13,12.3-8.82,17.09,1.63,2.9-3,5.13-.84,8.14a2.3,2.3,0,0,1-.5,3.3c-3.45,2.39-.9,3.65,1,4.29s2.13,1.56,2.8,3.19c1,2.4,1.94,5.84,6.45,4,2.34-.95,4.22,2.43,8,2.49-5.07,2.53-2.1,3.36,1.07,4.77-4.85.06-3.1,4.1-5.4,5.5-.42.25,1.49,1.14,2.31,1.75,1.56,1.18,2.88,2,.11,3.68-1.14.67-3.72,1.83-1.82,4.76.82,1.26-1.12.95-2.06.53s-2.26-2.57-2.71-1c-.52,1.86-5.54.79-2.75,4.79.62.9-1.38,4.29-.44,6.73,2.37,6.15,4.94,12.24,7,18.49,1.65,5,5.28,9,6.18,14.44.24,1.45,1.25,4.67,4.29,5.83,4.81,1.84,4.71,2.61.5,5.75a11.14,11.14,0,0,1-2.16,1Z"/><path class="cls-2" d="M364.16,288.25l.36-9.82h51.31c-3-1.81-3.19-4-1.49-6.53,2.08-3.12,1.93-7,3.38-10.36,1-2.24,2.17-3,3.86-1.69,4.62,3.56,10.59,3.53,15.58,6.23,2.32,1.26,2.11,2.2,1.09,3.55-7.32,9.68-14.22,19.68-24.33,26.91a69.48,69.48,0,0,1-20.72,10.28c-6.58,2-12.53,2.71-18.76.19a9.07,9.07,0,0,1-6-8C368.26,294.76,366.24,291.57,364.16,288.25Zm52.43-12.88c.17.89.5,2.1,1.75,2.17,3,.18,6,.66,8.81-.31.77-.27,3.44-1,2.43-2.33-2.1-2.87-2.41-7-5.87-8.82-1.4-.73-3.6-2.66-4.72.15S417.39,272.18,416.59,275.37Z"/><path class="cls-2" d="M329.78,278.47a52.61,52.61,0,0,1,1,9.85c-3.24.83-4.66,3.41-4.79,6.26-.28,6.47-4,10.56-8.75,14.15a4.6,4.6,0,0,1-3.07.76,51.18,51.18,0,0,1-34.36-13c-5.16-4.54-10.5-8.84-14.5-14.52-.71-1-1.83-1.93-1.15-3.2s2-.26,2.93-.22c7.59.33,15.11-1.53,22.68-.8C303.06,279.05,316.43,278.33,329.78,278.47Z"/><path class="cls-3" d="M440.41,190.26c-4.28-12.17-11.25-22.7-20-32.1-3.29-3.55-5.26-3.69-9.41-.84-3.14,2.16-2.06,4.61-.89,7.41,4.22.89,6.75,4.38,9.23,7.82,1.42,2,3.36,4.27,5,6.82,2.4,2,2.93,5.67,5,8,2.34,2.57,2.6,6.16,2.42,9.63,3.22,2,6.21.91,8.92-1a6.67,6.67,0,0,1,3.51-1.5C442,193.94,441.11,192.27,440.41,190.26Z"/><path class="cls-2" d="M340.52,87c0,1.89,0,3.79.05,5.68-1.74,3.49-4.6,4.38-8.35,4.17-10.55-.6-20,3.86-29.62,7.12A52.09,52.09,0,0,0,288.76,111a16.75,16.75,0,0,1,1.58-12.22c1.37-2.68,5.29-4,8.33-4.25,4.93-.38,8.71-3.68,13.51-4.24,3.42-.4,6.71-1.88,10.13-2.42,2.87-.45,5.55-.44,8.43-2S337.19,86.69,340.52,87Z"/><path class="cls-2" d="M352.82,91.91l-.09-5.74c2.43-1.35,4.47,0,6.77.68,4.59,1.44,9.5,1.18,14.23,2.43,9.31,2.45,18.6,5,27.13,9.41,3,1.55,2.26,6,3.21,9.11a13.48,13.48,0,0,1,.06,3.72A68.51,68.51,0,0,0,375.6,99.18c-6.74-1.2-13.39-3-20.27-3.27C352.55,95.79,354.35,92.81,352.82,91.91Z"/><path class="cls-3" d="M250.84,192.86a111.18,111.18,0,0,1,14.37-27.19,45.15,45.15,0,0,1,7-8.21c2.86-2.42,5.57-2.31,9,.62,2.69,2.32,1,4.55-.66,6.23-3.52,3.62-6.69,7.68-11.35,10.07a5.53,5.53,0,0,0-2.18,2.31c-2.73,5.22-5.48,10.45-7.93,15.81-.79,1.73-1.44,3.8-.5,5.83C253.77,199,251.45,197.32,250.84,192.86Z"/><path class="cls-2" d="M377.22,171.74c-3.46,1.3-6.88,2.71-10.39,3.84a9.15,9.15,0,0,1-5.55-.33c-9.95-3.1-19.95-2.59-29.9,0a11.56,11.56,0,0,1-7.46-.27c-3.18-1.24-6.2-2.61-9.78.22-2,1.59-5.81.48-7.92,3.06l-2.37-.8h0c-2.87-5.42-8.71-7.1-13.61-3.94-1.33.85-2.75,1.58-4.12,2.37-.14-1.44-.41-2.81-1.89-3.53,6.1-5.31,6.86-7.57,15.35-3.68,5.06,2.32,10.9,1.15,16.17,2.87.74.25,1-.69,1.12-1.37,2.64.55,5.3,1,7.91,1.67a20.06,20.06,0,0,0,10.81-.4c6.09-1.8,12.41-2.39,18.46-.65,7.38,2.12,14.41,1.16,21.56-.57Z"/><path class="cls-2" d="M462.15,310.92l-19.8-.14c1.41-3.25,4.73-4.75,6.78-7.4,3.73-4.79,7.81-9.31,11-14.51a11,11,0,0,1,3.25-3.19C461.77,294.1,463.79,302.58,462.15,310.92Z"/><path class="cls-2" d="M254.76,285.06c2.39.12,3.91,1.94,4.8,3.77,3.65,7.47,10.16,11.81,16.55,16.53,2.57,1.9,6.05,3.48,6.78,7.54.48,2.64-.82,2.86-2.24,1.93-3.45-2.27-7.63-3.24-10.48-6.68-3.9-4.7-10.09-6.77-14.1-11.48-1.82-2.14-3.86-4.09-5.8-6.13-.58-.6-1.15-1.28-.55-2.12A7.91,7.91,0,0,1,254.76,285.06Z"/><path class="cls-2" d="M413.09,238.59c.2-.66.39-1.33.59-2,.81-1.06,2.44-1.36,2.72-2.91.61.52,1.23,1.5,1.82,1.48,7.15-.19,12.06,5.52,18.68,7,4.58,1,4.67,2.34,2.71,6.85a10.44,10.44,0,0,1-1.41,1.91l-.65.74h0c-.63.67-1.3,1.93-1.87,1.88-1.22-.09-1.26-1.51-1.44-2.52a4.48,4.48,0,0,0-1.27-2.45c-3.07-3.12-7.08-4.86-10.62-7.29-.59-.4-2-1.23-2.5-.19-1.13,2.5-1.85-.35-2.75,0C416.22,239.45,415.74,237.24,413.09,238.59Z"/><path class="cls-3" d="M284.24,172.35c1.48.72,1.75,2.09,1.89,3.53-5,5.11-5.91,10.5-1.05,16.25l-.75,3.37c-2.33-.54-4.52.17-6.76.66-2.93.64-4.18-.44-4.05-3.6C273.88,184.07,277.28,177.29,284.24,172.35Z"/><path class="cls-4" d="M416.38,175.83c1-.68,1.11-2.55,2.46-2.36,1.51.21,1.71,1.83,2,3.15.1.5.29,1.36.56,1.41,5.17.93,5.2,6.29,7.95,9.3,2.34,2.57,2.6,6.16,2.42,9.63-2.69.44-5.11-1.28-7.86-.87-1.46.22-1.28-1.47-1.5-2.4-.95-4-1.91-8.05-2.64-12.11A9.65,9.65,0,0,0,416.38,175.83Z"/><path class="cls-3" d="M417.09,241c.9-.31,1.62,2.54,2.75,0,.47-1,1.91-.21,2.5.19,3.54,2.43,7.55,4.17,10.62,7.29a4.48,4.48,0,0,1,1.27,2.45c.18,1,.22,2.43,1.44,2.52.57.05,1.24-1.21,1.87-1.88-.67,4.76-2.29,6.07-6.26,5.09-1.69-4.17-4.54-5.87-8.47-5.06C418.19,249.58,416.89,245.7,417.09,241Z"/><path class="cls-3" d="M276.07,276.86c-5-.54-10.21,1.33-15-1.47a13.06,13.06,0,0,1-1.28-.93c1.23-.95,2.74-1.47,3.26-3.31,1.36-4.74,5.4-5.91,9.6-6.79,1-.21,1.57-.13,1.73,1Q275.23,271.1,276.07,276.86Z"/><path class="cls-2" d="M276.07,276.86q-.82-5.78-1.66-11.54c-.16-1.09-.76-1.17-1.73-1-4.2.88-8.24,2.05-9.6,6.79-.52,1.84-2,2.36-3.26,3.31a2.48,2.48,0,0,1-.37-.17c-2.16-1.68-4.75-3.71-4-6.47.64-2.24,3.73-2.82,6.15-3.15,3.44-.46,6.31-2.91,10-2.52,2.48.26,4.25.52,4.7,3.69.28,1.94,2.13,3.63,3.11,5.52C282.13,276.54,281.85,277,276.07,276.86Z"/><path class="cls-2" d="M257.14,255.7c-3.26-2-3-5.87-4.38-8.85C252,245.2,254,244.62,255,244c5-3.27,10.63-5.45,16.1-7.88.07,1-.6,1.71-1.18,2.48-3.11,4.1-7.52,7.19-9.34,12.3C259.94,252.76,260.11,255.4,257.14,255.7Z"/><path class="cls-3" d="M352.84,107.94l-12.43-.12a30.35,30.35,0,0,0,.82-10.31c3.75-1.1,7.56-.86,11.38-.56Q352.73,102.44,352.84,107.94Z"/><path class="cls-3" d="M257.14,255.7c3-.3,2.8-2.94,3.47-4.83,1.82-5.11,6.23-8.2,9.34-12.3.58-.77,1.25-1.43,1.18-2.48,1.41-.28,2.83-1.73,4.21.07,1.47,6.61-4.18,9.9-6.84,14.58-.1.19-.46.26-.71.34-3,.91-4.41,3.45-6,5.86C259.87,258.08,258.53,256.8,257.14,255.7Z"/><path class="cls-3" d="M385.65,194.81c-.7-2.13,2.53-1.72,2.29-3.55a12.53,12.53,0,0,0,5.53-2.4c.55.82,1.83,1.13,1.69,2.44,0,.54,0,1.09,0,1.64-1.47,2.82-1.33,5.3,2.05,6.39,3.64,1.18,5.37-.07,6.11-3.94l.9-.92c1.31,2.33,2.78,2.38,5.23,1.24,3-1.4,6.25,0,9.36.54l-1.51,1.4c-6.59-2.6-10.94,1.78-15.66,5A48.55,48.55,0,0,1,385.65,194.81Z"/><path class="cls-2" d="M424.55,234.54c-.93-7.6-1.79-15.2-2.8-22.78-.59-4.39-1.4-8.75-2.12-13.13,2.44.29,2.86,2.21,3.2,4.09,1.52,8.3,2.52,16.69,3.78,25C427.09,230.92,426.83,232.73,424.55,234.54Z"/><path class="cls-2" d="M284.33,195.5l.75-3.37c1,.87,2.07,1.72,3.07,2.62,5.14,4.69,7.85,4.94,13.58,1.26.89-.57,1.61-1.51,2.84-1.43a1.48,1.48,0,0,1,1.73,1.6c-5,3-9.82,6.89-16.36,4.94l0,0a1.45,1.45,0,0,0-1.66-1.65l.05,0a1.56,1.56,0,0,0-1.67-.84v.06C287,196.89,285.16,196.55,284.33,195.5Z"/><path class="cls-4" d="M261.84,256.94c1.54-2.41,2.93-4.95,6-5.86.25-.08.61-.15.71-.34,2.66-4.68,8.31-8,6.84-14.58a2.76,2.76,0,0,0,.64.1l1.16,1.59C276.48,247.78,270.15,253.15,261.84,256.94Z"/><path class="cls-4" d="M416.4,233.69c-.28,1.55-1.91,1.85-2.72,2.91-2.28-.23-4.58-.34-6.84-.72-1.82-.31-2.62-1.56-2.61-3.48,0-2.16,1.54-2,2.8-1.91,3.33.28,6.86-2.18,10,.71C416.53,232,416,232.7,416.4,233.69Zm-4.53.7c.83-.34,2.5.71,2.42-1.09-.16-3.35-2.52.09-3.58-1s-1.42.09-1.45.77C409.17,235.23,410.88,234.11,411.87,234.39Z"/><path class="cls-4" d="M276.73,230.5c3.7-1.5,7.38-.07,11,.21,1.92.15,1,2.54,1.93,3.6a.49.49,0,0,0-.08.56c-4.19.51-8.48,3.07-12.44-.64Zm3.48,3.19a1.08,1.08,0,0,0,.16.3s.16,0,.25,0l-.47-.22-.12-1.84c-.11.07-.3.12-.31.2C279.59,232.73,279.39,233.38,280.21,233.69Zm4.27-2.21c-.55.49-2.05-.9-2,.9.05,1.47.94,2,2.39,2,1.12,0,1.83-.31,1.86-1.51C286.78,231.19,285.61,231.39,284.48,231.48Z"/><path class="cls-2" d="M280.28,112.75c-.83-5.51,2.51-9,6.55-12C285.9,105.45,288.49,112.06,280.28,112.75Z"/><path class="cls-3" d="M398.39,239c-8.41,2-16.25,6.63-25.27,5.31C381.35,241.56,389.61,239,398.39,239Z"/><path class="cls-2" d="M352.61,97c-3.82-.3-7.63-.54-11.38.56-1.18-1.24-.56-2.74-.61-4.15l12.1,0C352.68,94.59,352.65,95.77,352.61,97Z"/><path class="cls-2" d="M389.53,170.18c-1.62,3.26-4.88,3.81-7.9,4.46-1.87.4-2-1.76-2.79-2.86C381.93,168.09,385.83,169.77,389.53,170.18Z"/><path class="cls-2" d="M449,184.57a138.44,138.44,0,0,0-4.37-16c1.28-.13,2.24,0,2.8,1.53C449.15,174.83,451.15,179.46,449,184.57Z"/><path class="cls-3" d="M277.18,234.23c4,3.71,8.25,1.15,12.44.64.73,1.8-.38,2.26-1.79,2.88a13.55,13.55,0,0,1-10.69.1L276,236.26C276.79,235.83,276.9,235,277.18,234.23Z"/><path class="cls-3" d="M321.82,244.39l-1.63,0-5,.08c-5.65-.07-10.46-2.87-15.6-4.66,7.71-.58,14.43,4.58,22.18,3.65Z"/><path class="cls-4" d="M422.81,251.66c3.93-.81,6.78.89,8.47,5.06Z"/><path class="cls-2" d="M332.29,288.63a41.74,41.74,0,0,1,10,.22c-.2.63-.2,1.62-.94,1.65q-4.15.12-8.3-.14C332.76,290.35,332.54,289.24,332.29,288.63Z"/><path class="cls-2" d="M249.47,167.62c-1.18,2.73-2.35,5.47-3.53,8.2-2-.34-1.89-1.81-1.21-3C245.93,170.81,245.52,167.19,249.47,167.62Z"/><path class="cls-2" d="M355.92,288.71a20.54,20.54,0,0,1,6.73,0C360.86,291.63,357.73,291.63,355.92,288.71Z"/><path class="cls-2" d="M222.45,266.87l3.47,8C222.57,272.75,222.57,272.75,222.45,266.87Z"/><path class="cls-2" d="M315.21,244.49l5-.08C318.57,246.8,316.91,246.71,315.21,244.49Z"/><path class="cls-2" d="M447.23,191.26c.58-1.61,1.16-3.23,1.75-4.84C450.14,188.66,449.68,190.32,447.23,191.26Z"/><path class="cls-2" d="M251.4,164.38,249.92,166c-.72,0-2,.07-1.81-.73C248.58,163.66,250.27,164.66,251.4,164.38Z"/><path class="cls-2" d="M321.82,244.39l0-.91c0-.42-.07-.84-.11-1.26a4,4,0,0,1,2.48,2.13C323.38,244.52,322.62,245.55,321.82,244.39Z"/><path class="cls-2" d="M244.84,183.94l.13,3.31C242.78,186.23,242.83,185.12,244.84,183.94Z"/><path class="cls-2" d="M245.2,179.9l-.11,1.63c-.41-.23-1.12-.41-1.16-.69C243.8,180,244.61,180,245.2,179.9Z"/><path class="cls-3" d="M296.62,239.19l-.3-.1a1.74,1.74,0,0,1,.34-.28s.16.13.24.2Z"/><path class="cls-2" d="M444.06,167.68c-.48-.08-.69-.33-.55-.82Z"/><path class="cls-2" d="M440.86,162.51l-.49-.53A.64.64,0,0,1,440.86,162.51Z"/><path class="cls-2" d="M247.6,286.68l-.19.34.2-.33Z"/><path class="cls-3" d="M437.55,251.62l.65-.74Z"/><path class="cls-3" d="M247.31,193.49a.82.82,0,0,1,1.17-.35A.78.78,0,0,1,247.31,193.49Z"/><path class="cls-3" d="M336.61,108.27l-1,.39A.68.68,0,0,1,336.61,108.27Z"/><path class="cls-2" d="M312.84,168.83l.91.42Z"/><path class="cls-2" d="M310.41,168.1l.81.37Z"/><path class="cls-2" d="M374,194.56l.75-.75c1.31,1.29,2.46,2.66,2.55,4.62-1.46,3.2.22,6.26.33,9.38.14,4.24,2.63,9.08-2.31,12.48-.81.55-.21,1.4.1,2.16,2,4.74,1.07,6.13-4,6.3l-.77-1.45a4.48,4.48,0,0,0,1.71-4.25c.57.07,1.39.88,1.51-.49-1.39-4.54-4.53-2.24-7.18-1.83l-.15-.15,1.11-9.94c3.18.68,5.41.59,3.14-3.6a16,16,0,0,1-1-3.45c1.43-.09,2.89-.14,3.28-2,.56-1.93,2.06-4-.78-5.44l0,0c-.54-1-1.48-.79-2.34-.82a1.68,1.68,0,0,1-.93-1.64h4.12l-.05,0C373.32,194.09,372.78,195.17,374,194.56Z"/><path class="cls-1" d="M347.08,274.41a8.25,8.25,0,0,1-8.62-7.86c-.16-4.3,3.67-8.06,8.33-8.19s8.95,3.74,8.88,8.1S351.7,274.37,347.08,274.41Zm2.41-13.05c-.41-1.87-1.41-1.82-2.7-.82h-1.21c-4.41,2-4.92,3.27-2.65,6.53l.05.05c2,3.65,4.52,3.91,8.22.83a1.44,1.44,0,0,0,1.63-1.43c-.12-2.32.69-5.25-3.28-5.1Z"/><path class="cls-2" d="M318.76,193.73c2.29-1.06,4.72-.87,7.14-.77l0,2.43h-4.81l-.87,1.06a.92.92,0,0,1-.06.57c-4,2.71-.17,4.38.85,6.42l-1.89.08h-1.38c0-1.83-2.15-3-1.65-5A8.74,8.74,0,0,1,318.76,193.73Z"/><path class="cls-4" d="M390.55,219.56c-.1-2.15-.28-4.3-.28-6.44,0-1.35-1.1-3.24.87-3.87,1.63-.51,3.11.63,4.28,1.78.34.33.37,1,.55,1.47h0c-.66,0-1.32.08-2,.08-1.32,0-2.77-.24-2.71,1.86.05,1.94,1.31,1.95,2.74,1.93a20.72,20.72,0,0,1,2.72.28C396,220.37,392.69,218.75,390.55,219.56Z"/><path class="cls-1" d="M385.65,194.81a48.55,48.55,0,0,0,16,7.86c-1.92,1.28-3.84,1-5.76,0l-12.11-6.5c0-.53,0-1.06,0-1.59Z"/><path class="cls-1" d="M289.94,201.12c6.54,1.95,11.33-1.91,16.36-4.94h1.64c-3.56,4.28-8.3,6.48-13.64,7.34A4.26,4.26,0,0,1,289.94,201.12Z"/><path class="cls-2" d="M390.55,219.56c2.14-.81,5.42.81,6.19-2.91,0-.59,0-1.17,0-1.76l-.8-1.13,0-1.26h0c4.48.39,2,3.83,2.42,5.88.4,1.8-.69,3.08-2.72,3.13a30.74,30.74,0,0,1-4.8-.06C389.23,221.24,389.81,220.34,390.55,219.56Z"/><path class="cls-2" d="M300.56,218.85c.43,1.18,2,.44,2.73,1.76-2.74,0-5.75,1.28-7.62-.79s-.74-5.14-.57-8c1.93,1,.47,3.05,2.16,3.57C296.07,218.68,298.75,218.35,300.56,218.85Z"/><path class="cls-2" d="M383.74,194.57c0,.53,0,1.06,0,1.59-3.54-1.06-6.05-4.24-9.85-4.79v-.08c.43-.87.23-1.42-.78-1.56l0,0,.06-1.64,0,0Z"/><path class="cls-4" d="M303.1,211.05c-.19,1.11.09,3.07-1.71,2.32-1.36-.57-3.95.17-4-1.79s2.26-2.52,4-2.86C303.25,208.34,303.23,209.75,303.1,211.05Z"/><path class="cls-4" d="M300.56,218.85c-1.81-.5-4.49-.17-3.3-3.5,1.29-.35,2.32.41,3.43.8.78.28,2.15-.37,2.22,1C303,218.75,301.18,218,300.56,218.85Z"/><path class="cls-2" d="M314.41,192.74c1.81-1.7,3.06-4.05,5.72-4.72l0,0,0,1.62-.06.06q-.87-.12-.75.75l0,.06c-.93.18-1.25.66-.77,1.54v.11c-1.73-.69-2.68,1.23-4.19,1.27A4.41,4.41,0,0,0,314.41,192.74Z"/><path class="cls-1" d="M307.92,196.21c.83-1.9,2.47-1.78,4.11-1.66A3.6,3.6,0,0,1,307.92,196.21Z"/><path class="cls-1" d="M288.3,199.5a1.45,1.45,0,0,1,1.66,1.65C288.92,201.09,288.27,200.63,288.3,199.5Z"/><path class="cls-1" d="M314.41,192.74a4.41,4.41,0,0,1,0,.73l-1.58.29C313.06,193,313.77,192.92,314.41,192.74Z"/><path class="cls-1" d="M286.68,198.68a1.56,1.56,0,0,1,1.67.84A1.53,1.53,0,0,1,286.68,198.68Z"/><path class="cls-1" d="M312,194.59c0-.55.35-.78.85-.85Z"/><path class="cls-1" d="M441.62,215.76c-1.07,0-2.22.1-2.81-1.1-.3-.6,0-1,.6-1.22a20.05,20.05,0,0,1,4.08-1.28c.59-.06.59,1.08.09,1.64s-1.31,1.32-2,2Z"/><path class="cls-1" d="M459.55,205.17a1.67,1.67,0,0,1,.39,0c1,.27,2.1.38,2.45,1.58,0,.15-.47.65-.73.66-1.51,0-2-1-2.1-2.29Z"/><path class="cls-1" d="M458.59,208.34c-.39.33-.62.68-.89.71s-.87-.14-1-.36c-.23-.6.22-.95.77-.93C457.82,207.77,458.11,208.07,458.59,208.34Z"/><path class="cls-1" d="M453.34,211.09c.1-.23.15-.58.32-.64s.43.16.66.26c-.1.22-.15.58-.31.64S453.57,211.19,453.34,211.09Z"/><path class="cls-1" d="M449,222.29c.1-.6.07-1.29,1-1.24a.38.38,0,0,1,.25.26c.05.9-.64.87-1.24,1Z"/><path class="cls-1" d="M446.51,146.47l.19-.35-.19.35Z"/><path class="cls-3" d="M416.59,275.37c.8-3.19,1.26-6.3,2.4-9.14s3.32-.88,4.72-.15c3.46,1.8,3.77,5.95,5.87,8.82,1,1.37-1.66,2.06-2.43,2.33-2.81,1-5.86.49-8.81.31C417.09,277.47,416.76,276.26,416.59,275.37Z"/><path class="cls-2" d="M323.45,187.63a.58.58,0,0,1-.46.45c-.93-.67-1.88-.14-2.82,0l0,0c.55-2.68,2.76-3.89,4.78-5.18,12.16-7.79,24.87-9,38.13-3,1.14.52,2.75.72,2.75,2.55l0,0c-1.24-.54-2.47-1.09-3.72-1.61-12.69-5.29-24.85-4.47-36.37,3.22C324.49,184.77,322.56,185.4,323.45,187.63Z"/><path class="cls-2" d="M367.43,183.17c3.16.16,4.83,2.06,5.7,4.89l0,0-1.64.06-.05,0c.05-1.79-.89-2.09-2.37-1.59l-.07-.05c.77-1.71-1.2-2.1-1.58-3.27Z"/><path class="cls-2" d="M365.79,182.35c.68,0,1.37,0,1.64.82v0l-1.63-.81Z"/><path class="cls-4" d="M415,170.87l-.57.76c-.16-.17-.46-.38-.43-.52a3.38,3.38,0,0,1,.45-.86Z"/><path class="cls-3" d="M411.87,234.39c-1-.28-2.7.84-2.61-1.33,0-.68.41-1.85,1.45-.77s3.42-2.34,3.58,1C414.37,235.1,412.7,234.05,411.87,234.39Z"/><path class="cls-3" d="M284.48,231.48c1.13-.09,2.3-.29,2.27,1.38,0,1.2-.74,1.49-1.86,1.51-1.45,0-2.34-.52-2.39-2C282.43,230.58,283.93,232,284.48,231.48Z"/><path class="cls-3" d="M280.21,233.69c-.82-.31-.62-1-.49-1.57,0-.08.2-.13.31-.2l.12,1.84Z"/><path class="cls-3" d="M280.15,233.76l.47.22c-.09,0-.21.05-.25,0a1.08,1.08,0,0,1-.16-.3Z"/><path class="cls-3" d="M325.87,195.39l0-2.43c4.46-3.81,9.71-6.2,15.28-8.5.27,2.86,1.12,5.56,4.53,6s5.39-1.21,6.2-4.46c.39-1.54,1.35-.88,2.19-.51,4.08,1.75,8.56,2.92,11.63,6.33,2.21,2.46,5.4-.2,7.45,2h-4.11c-4.19.87-4.28,4-4.1,7.35l0,0c-1.43-1.29-2.16-3.24-4-4.19-5.63-5.81-15.37-7.24-23.28-3.89-3.89,1.65-6.12,5.13-9.48,7.29l0-2.43c0-1-.41-1.71-1.58-1.66h0a.81.81,0,0,0-.83-.82Z"/><path class="cls-2" d="M327.54,221.47c1.91.78,2.56,2.73,3.64,4.19,3.25,4.39,8.27,5.63,13.38,7.72-2.6,1.53-2.68,4.49-4.79,6l-13.71-8.15-1,.85h.08c-2.7.15-5.11-.28-6.53-3.52,2.81.63,5.52,4,8,.15h0c3.34-2.4,1.4-4.89.11-7.36Z"/><path class="cls-3" d="M319.09,203.52l1.89-.08c2.46.47,4.73.26,6.53-1.75v1.86c-2.75,5.58-1.58,11.35-.84,17.1h0c-1.9-.86-3.81-.34-5.73-.07l-1.51-.1-.68-.87a55.17,55.17,0,0,1,.39-14.52Z"/><path class="cls-2" d="M354.54,238c-3-.66-3.51-5.47-7.69-4.57,6.25-1.15,11.71-3.26,15.73-8.22.79-1,1.85-1.88,2.51.31,1.14,3.74,3.8,5.2,8.49,4.3-2.18,2.14-4,1.18-5.55,1.53-1.56-.23-2.44.83-3.5,1.7C361.6,235.42,358.6,237.77,354.54,238Z"/><path class="cls-3" d="M354.54,238c4.06-.19,7.06-2.54,10-5,1.06-.87,1.94-1.93,3.5-1.7.4,1.26.84,2.35-.53,3.54a28,28,0,0,1-11.25,6.08C353.12,241.76,354.81,239.15,354.54,238Z"/><path class="cls-3" d="M326.06,231.27l13.71,8.15c-.2.83-.52,1.48-1.56,1.52-3.46.14-11.5-5.26-13.07-8.82h-.08Z"/><path class="cls-2" d="M319.15,205.09a55.17,55.17,0,0,0-.39,14.52c-.58.19-1.16.91-1.78.2-2.6-3-2.13-12.86.73-16.28C317.74,204.47,318.11,205.09,319.15,205.09Z"/><path class="cls-3" d="M369.8,203.59a16,16,0,0,0,1,3.45c2.27,4.19,0,4.28-3.14,3.6l-1.11-7,.2-.2Z"/><path class="cls-3" d="M325.86,223.12c2.44,1.58.44,3.76.76,5.63h0c-2-.35-4.31.88-6.2-1.62,2.84-.19,6.14.21,5.47-4.06Z"/><path class="cls-3" d="M345.4,236.12c-1.41,1.82-.5,3.41,1,5.13-2.13.4-2.92-.76-3.12-1.94-.25-1.49.27-2.89,2.15-3.15Z"/><path class="cls-3" d="M373.87,222.56c-.12,1.37-.94.56-1.51.49a6,6,0,0,0-4.13.85l0,0C369.22,219.73,371.76,222,373.87,222.56Z"/><path class="cls-2" d="M318,222.55a3.1,3.1,0,0,1-.21,3.61C316.57,225,316.67,224,318,222.55Z"/><path class="cls-3" d="M370.65,227.3l.77,1.45c-1.6-.07-3.11-.25-3.21-2.36l.07-.06Z"/><path class="cls-3" d="M325.89,223.07h-4.3c1.47-.81,3-1.33,4.27.05Z"/><path class="cls-3" d="M345.44,236.16c.74-1,1.61-1.06,3.1,0H345.4Z"/><path class="cls-3" d="M368.21,226.39c-1-.85-1.15-1.67.06-2.46l0,0c0,.81,0,1.62,0,2.43Z"/><path class="cls-3" d="M366.54,203.61a1.7,1.7,0,0,1-.71-1.72l0,0a1.53,1.53,0,0,1,.95,1.49Z"/><path class="cls-2" d="M319.44,220.48l1.51.1C320.39,221.47,319.87,221.64,319.44,220.48Z"/><path class="cls-2" d="M365.85,221.5l-.37,1.07c-.1-.08-.3-.21-.29-.22.18-.32.38-.62.58-.92Z"/><path class="cls-2" d="M365.77,221.43l.77-.84.15.14-.84.77Z"/><path class="cls-3" d="M327.54,221.47l-.81-.08a3.64,3.64,0,0,1-.05-.74h0Z"/><path class="cls-3" d="M365.83,201.89c-.27-.28-.55-.55-.83-.82l0,0,.82.81Z"/><path class="cls-3" d="M365.81,182.33l1.63.81c.38,1.17,2.35,1.56,1.58,3.27-2.88-.51-4.84-2.77-7.41-3.88-3.37-1.44-6.75-2.79-10.48-2.89l-1.7-.33c-9.92-1.18-18.25,2.63-26,8.32-.89-2.23,1-2.86,2.27-3.69,11.52-7.69,23.68-8.51,36.37-3.22C363.34,181.24,364.57,181.79,365.81,182.33Z"/><path class="cls-3" d="M343.3,184.24c1.51,2.49,3.25,3,5.37,3.6C344.74,189.29,344.47,189.13,343.3,184.24Z"/><path class="cls-3" d="M349.44,182.37c-.27.6.76,2.41-.83,1.6-1.3-.66-2.4-.47-4.53,0,2.1-2.3,3.88-1.31,5.39-1.54Z"/><path class="cls-2" d="M349.43,179.31l1.7.33c0,1.25.13,2.59-1.69,2.73l0,0C349.46,181.37,349.45,180.34,349.43,179.31Z"/><path class="cls-3" d="M320.17,188.06c.94-.12,1.89-.65,2.82,0-.74.85-1.1,2.37-2.78,1.6C320.2,189.14,320.18,188.6,320.17,188.06Z"/><path class="cls-3" d="M369.09,186.46c1.48-.5,2.42-.2,2.37,1.59C369.94,188.6,369.37,187.76,369.09,186.46Z"/><path class="cls-3" d="M371.51,188.1l1.64-.06-.06,1.64C371.63,190.08,371.16,189.5,371.51,188.1Z"/><path class="cls-3" d="M373.13,189.73c1,.14,1.21.69.78,1.56C373,191.11,372.57,190.67,373.13,189.73Z"/><path class="cls-3" d="M374,194.56c-1.19.61-.65-.47-.83-.85C373.41,194,373.69,194.28,374,194.56Z"/><path class="cls-3" d="M318.58,192.09c-.48-.88-.16-1.36.77-1.54C320.07,191.55,319.7,192,318.58,192.09Z"/><path class="cls-3" d="M319.4,190.49q-.12-.87.75-.75C320.44,190.53,320.21,190.8,319.4,190.49Z"/><path class="cls-1" d="M365.79,201.92l-.82-.81c-.18-3.31-.09-6.48,4.1-7.35a1.69,1.69,0,0,0,.92,1.64c.5,1.08,1.44.92,2.35.82l0,0c.66,3.54-.46,5.42-5.06,4,2.18,2.32,4,1.7,5.84,1.45-.39,1.82-1.85,1.87-3.28,2l-3.06-.18A1.53,1.53,0,0,0,365.79,201.92Z"/><path class="cls-3" d="M373.08,201.63c-1.8.25-3.66.87-5.84-1.45,4.6,1.43,5.72-.45,5.06-4C375.14,197.64,373.64,199.7,373.08,201.63Z"/><path class="cls-1" d="M368.28,226.33c0-.81,0-1.62,0-2.43a6,6,0,0,1,4.13-.85,4.48,4.48,0,0,1-1.71,4.25Z"/><path class="cls-3" d="M372.34,196.22c-.91.1-1.85.26-2.35-.82C370.86,195.43,371.8,195.24,372.34,196.22Z"/><path class="cls-4" d="M351.2,267.94c-3.7,3.08-6.26,2.82-8.22-.83,1.54-.39,2-1.79,2.78-2.92l.06,0C349.52,262.69,349.34,266.8,351.2,267.94Z"/><path class="cls-2" d="M351.2,267.94c-1.86-1.14-1.68-5.25-5.38-3.71l-.24-3.7h1.22c.59,1.28,1.61,1.14,2.69.82l.06.05a4.71,4.71,0,0,0,3.28,5.1A1.44,1.44,0,0,1,351.2,267.94Z"/><path class="cls-3" d="M345.58,260.53l.24,3.7-.06,0c-2.48-.56-2.39,1.42-2.83,2.87C340.66,263.8,341.17,262.54,345.58,260.53Z"/><path class="cls-3" d="M352.83,266.51a4.71,4.71,0,0,1-3.28-5.1C353.52,261.26,352.71,264.19,352.83,266.51Z"/><path class="cls-2" d="M342.93,267.06c.44-1.45.35-3.43,2.83-2.87-.77,1.13-1.24,2.53-2.78,2.92Z"/><path class="cls-3" d="M349.49,261.36c-1.08.32-2.1.46-2.69-.82C348.08,259.54,349.08,259.49,349.49,261.36Z"/><path class="cls-1" d="M327.54,201a2.66,2.66,0,0,0,0,.69c-1.8,2-4.07,2.21-6.53,1.74-1-2-4.86-3.71-.85-6.42.27,1.24-.68,3.1,1.67,3.27l0,0c0,1.55.94,1.71,2.18,1.35,1.86-.55,3-1.64,2.92-3.72l1.38,0,0,2.43.05,0Z"/><path class="cls-3" d="M326.87,197.89c.09,2.08-1.06,3.17-2.92,3.72-1.24.36-2.14.2-2.18-1.35a10.1,10.1,0,0,0,2.41-.13,1.86,1.86,0,0,0,1.5-2.11,2,2,0,0,0-1.9-1.78,2,2,0,0,0-2.36,1.71,7.29,7.29,0,0,0,.38,2.34c-2.35-.17-1.4-2-1.67-3.27a.92.92,0,0,0,.06-.57l.87-1.06h4.79l.83.82h0Z"/><path class="cls-1" d="M319.15,205.09c-1,0-1.41-.62-1.44-1.56h1.38Z"/><path class="cls-1" d="M321.06,195.39l-.87,1.06Z"/><path class="cls-3" d="M396.75,214.89c0,.59,0,1.17,0,1.76a20.72,20.72,0,0,0-2.72-.28c-1.43,0-2.69,0-2.74-1.93-.06-2.1,1.39-1.85,2.71-1.86.66,0,1.32-.05,2-.08,0,.42,0,.84,0,1.26S396,214.86,396.75,214.89Zm-2.57-1.14-.28-.14,0,.21Z"/><path class="cls-4" d="M396.75,214.89c-.76,0-.69-.65-.8-1.13Z"/><path class="cls-3" d="M392.9,183.16c.16,2.28.3,4.64-2.88,4.84-4.35.27-4.07-2.73-3.81-5.65C388.58,181.49,390.85,181.44,392.9,183.16Z"/><path class="cls-3" d="M396,172.56c1.08,0,2.16,0,3.22-.11,2.06-.27,3.07.84,3.32,2.63s-1.09,2.71-2.53,3.17c-1.88.61-3.2-.54-3.81-2.12a11.72,11.72,0,0,1-.19-3.58Z"/><path class="cls-3" d="M395.17,180.7l-.35-.18.32.21Z"/><path class="cls-3" d="M402.84,195.46c-1.49,2.8-4.09,1.19-6.19,1.54-.15-1.42,0-2.92-1-4.14.09-.26.19-.52.28-.79,2.5-1.07,5-2.1,6.95.89.07.6.14,1.19.2,1.78A.65.65,0,0,0,402.84,195.46Z"/><path class="cls-2" d="M402.84,195.46a.65.65,0,0,1,.25-.72,1.19,1.19,0,0,1,.21.64Z"/><path class="cls-3" d="M389.53,170.18c2.19,0,3.56-1.71,5.31-2.61,3.63-1.87,6.82-2,10,1.06a111.18,111.18,0,0,0,8.55,7.36c5.87,4.63,5.48,11.61,6.84,17.93.18.84-.56,1.76-1.39,2.33-3.11-.58-6.38-1.94-9.36-.54-2.45,1.14-3.92,1.09-5.23-1.23,0-.78-.08-1.56-.13-2.33-1.64-3.19-5.57-3.64-8.13-.93l-.79.07c.14-1.3-1.14-1.61-1.69-2.43,2.2-1.62,1-3.73.86-5.7,1-.58.83-1.55.84-2.46l0,0a19.43,19.43,0,0,0,3.59.52,5.36,5.36,0,0,0,5.31-4.18,5.71,5.71,0,0,0-3.22-7.11c-1.62-.69-3.95.37-4.86,2.6h0c-4.11.58-.94,5.41-3.32,6.21s-5.4.28-6.48,3.54c-1.64.06-2.19,1-2.45,2.55-.59,3.52,2.15,4.72,4.22,6.41.24,1.83-3,1.42-2.29,3.55l-1.91-.24-10.61-6.51c-.87-2.83-2.54-4.73-5.7-4.89-.27-.84-1-.81-1.64-.82,0-1.83-1.61-2-2.75-2.55-13.26-6-26-4.75-38.13,3-2,1.29-4.23,2.5-4.78,5.18-2.66.67-3.91,3-5.72,4.72-.64.18-1.35.25-1.61,1l0,0c-.5.07-.84.3-.85.85l0,0c-1.64-.12-3.28-.24-4.11,1.66l0,0H306.3a1.48,1.48,0,0,0-1.73-1.6c4.5-5.05,6.16-10.38,1.65-16.34,2.11-2.58,5.91-1.47,7.92-3.06,3.58-2.83,6.6-1.46,9.78-.22a11.56,11.56,0,0,0,7.46.27c9.95-2.57,19.95-3.08,29.9,0a9.15,9.15,0,0,0,5.55.33c3.51-1.13,6.93-2.54,10.39-3.84l1.62,0c.81,1.1.92,3.26,2.79,2.86C384.65,174,387.91,173.44,389.53,170.18Zm15.06,11.88c-2,2.82-1.15,4.62.27,6.13a5.15,5.15,0,0,0,6,1.21c2.23-1,3.63-2.77,2.74-5.73-1,2.49-2.38,4.06-5.18,3.66C405.76,187,404.86,185.22,404.59,182.06Zm6.34-2c-2.39-.17-3.73-.52-4.61,1.12Zm-24.76,2.26c1.08-3.26,4-2.7,6.48-3.54s-.79-5.63,3.32-6.21a11.72,11.72,0,0,0,.19,3.58c.61,1.58,1.93,2.73,3.81,2.12,1.44-.46,2.78-1.38,2.53-3.17s-1.26-2.9-3.32-2.63c-1.06.13-2.14.08-3.22.11.91-2.23,3.24-3.29,4.86-2.6a5.71,5.71,0,0,1,3.22,7.11,5.36,5.36,0,0,1-5.31,4.18,19.43,19.43,0,0,1-3.59-.52l-.32-.21.35.18c0,.91.14,1.88-.84,2.46H392.9c-2-1.72-4.32-1.67-6.69-.81ZM390,188c-4.35.27-4.07-2.73-3.81-5.65l0,0c-1.64.06-2.19,1-2.45,2.55-.59,3.52,2.15,4.72,4.22,6.41a12.53,12.53,0,0,0,5.53-2.4c2.2-1.62,1-3.73.86-5.7H392.9C393.06,185.44,393.2,187.8,390,188Zm14.84.19a5.15,5.15,0,0,0,6,1.21c2.23-1,3.63-2.77,2.74-5.73-1,2.49-2.38,4.06-5.18,3.66-2.64-.37-3.54-2.11-3.81-5.27C402.63,184.88,403.44,186.68,404.86,188.19Zm-8.92,3.88c2.5-1.07,5-2.1,6.95.89l1.19-.81c-1.64-3.19-5.57-3.64-8.13-.93Zm10.38-10.91,4.61-1.12C408.54,179.87,407.2,179.52,406.32,181.16Zm-3.23,13.58a1.19,1.19,0,0,1,.21.64h0l.9-.91c0-.78-.08-1.56-.13-2.33l-1.19.81Zm-7.93-3.44c0,.54,0,1.09,0,1.64h0l.51-.08c.09-.26.19-.52.28-.79s0-.56,0-.85C395.69,191.24,395.42,191.26,395.16,191.3Zm8.14,4.08-.46.08c-1.49,2.8-4.09,1.19-6.19,1.54a5,5,0,0,1-1.5-4.06h0c-1.47,2.82-1.33,5.3,2.05,6.39,3.64,1.18,5.37-.07,6.11-3.94Zm-8.15-2.44a5,5,0,0,0,1.5,4.06c-.15-1.42,0-2.92-1-4.14Z"/><path class="cls-2" d="M326.87,197.89l-.2-1.7c1.17-.05,1.58.61,1.58,1.66Z"/><path class="cls-2" d="M326.68,196.2l-.83-.82A.81.81,0,0,1,326.68,196.2Z"/><path class="cls-1" d="M326.06,231.27l-1,.85Z"/><path class="cls-3" d="M327.54,201l.79-.77Z"/><path class="cls-1" d="M321.8,200.29a7.29,7.29,0,0,1-.38-2.34,2,2,0,0,1,2.36-1.71,2,2,0,0,1,1.9,1.78,1.86,1.86,0,0,1-1.5,2.11,10.1,10.1,0,0,1-2.41.13Z"/><polygon class="cls-4" points="394.18 213.75 393.88 213.82 393.9 213.61 394.18 213.75"/><path class="cls-5" d="M346.55,217.87v4.72a11.37,11.37,0,0,1-9.33-4.86,11.22,11.22,0,0,1-.45-12.37,11.33,11.33,0,0,1,9.78-5.49v4.68a6.65,6.65,0,0,0-5.22,2.55,6.66,6.66,0,0,0,.56,8.85A6.59,6.59,0,0,0,346.55,217.87Zm5.6-3.76v5c0,.16,0,.22.21.21h4.28c.17,0,.21-.05.21-.21v-10H346.67v4.67h5.48Z"/><circle class="cls-1" cx="295.32" cy="184.89" r="14.58"/><rect class="cls-2" x="283.65" y="181.54" width="23.33" height="7.37" rx="2.65"/><rect class="cls-2" x="283.65" y="181.54" width="23.33" height="7.37" rx="2.92" transform="translate(110.09 480.54) rotate(-90)"/><circle class="cls-1" cx="399.66" cy="194.16" r="4.66"/><path class="cls-6" d="M400.79,195.35h-2.38l-.45,1.1h-1.21l2.28-5.12h1.17l2.29,5.12h-1.24Zm-.37-.9-.81-2-.81,2Z"/><circle class="cls-1" cx="408.95" cy="185.24" r="4.66"/><path class="cls-7" d="M411.16,185.33a1.31,1.31,0,0,1,.25.8,1.2,1.2,0,0,1-.53,1,2.64,2.64,0,0,1-1.52.36h-2.65v-5.12h2.5a2.43,2.43,0,0,1,1.44.36,1.14,1.14,0,0,1,.5,1,1.21,1.21,0,0,1-.18.66,1.26,1.26,0,0,1-.5.47A1.34,1.34,0,0,1,411.16,185.33Zm-3.27-2v1.21h1.18a1.11,1.11,0,0,0,.66-.16.56.56,0,0,0,0-.9,1.19,1.19,0,0,0-.66-.15Zm2.09,3.18a.52.52,0,0,0,.24-.47c0-.43-.32-.64-1-.64h-1.38v1.27h1.38A1.36,1.36,0,0,0,410,186.48Z"/><circle class="cls-1" cx="400.17" cy="175.5" r="4.66"/><path class="cls-8" d="M400.29,176.43v1.81h-1.18v-1.83l-2-3.29h1.26l1.37,2.27,1.37-2.27h1.16Z"/><circle class="cls-1" cx="389.22" cy="184.89" r="4.66"/><path class="cls-9" d="M390.21,187.18,389,185.4l-1.21,1.78H386.4l1.89-2.61-1.8-2.51h1.35l1.18,1.66,1.15-1.66h1.28l-1.78,2.47,1.91,2.65Z"/><polyline class="cls-10" points="405.71 193.63 605.93 193.63 605.93 110"/><polyline class="cls-10" points="434.67 180.02 592.89 180.02 593.15 110.22"/><path class="cls-6" d="M420.82,83a7.08,7.08,0,0,1-2.34-1.1l1-2.29a7.25,7.25,0,0,0,2,1,7.33,7.33,0,0,0,2.33.38,3.68,3.68,0,0,0,1.92-.39,1.13,1.13,0,0,0,.62-1,1,1,0,0,0-.36-.78,2.89,2.89,0,0,0-.94-.5c-.39-.12-.9-.26-1.56-.41a21.45,21.45,0,0,1-2.46-.72,4,4,0,0,1-1.64-1.14,3.1,3.1,0,0,1-.69-2.11,3.68,3.68,0,0,1,.62-2.07,4.21,4.21,0,0,1,1.87-1.48,7.72,7.72,0,0,1,3.06-.54,10.1,10.1,0,0,1,2.46.3,7.4,7.4,0,0,1,2.1.86l-.94,2.31a7.3,7.3,0,0,0-3.64-1,3.49,3.49,0,0,0-1.89.41,1.26,1.26,0,0,0-.61,1.09,1.07,1.07,0,0,0,.7,1,11.6,11.6,0,0,0,2.15.65,19.5,19.5,0,0,1,2.47.71,4.14,4.14,0,0,1,1.64,1.13,3,3,0,0,1,.69,2.08,3.58,3.58,0,0,1-.63,2.06,4.22,4.22,0,0,1-1.89,1.48,7.76,7.76,0,0,1-3.06.54A10.85,10.85,0,0,1,420.82,83Z"/><path class="cls-6" d="M434,72.56h-4.21V70.08H441.3v2.48h-4.21V83.24h-3Z"/><path class="cls-6" d="M450.94,80.42h-6.11l-1.17,2.82h-3.12l5.87-13.16h3l5.88,13.16h-3.2Zm-1-2.31-2.09-5-2.08,5Z"/><path class="cls-6" d="M465.05,83.24l-2.53-3.67h-2.81v3.67h-3V70.08h5.69a7.46,7.46,0,0,1,3,.58,4.53,4.53,0,0,1,0,8.35l2.95,4.23Zm-.77-10.09a3.2,3.2,0,0,0-2.08-.59h-2.49v4.59h2.49a3.15,3.15,0,0,0,2.08-.6,2.37,2.37,0,0,0,0-3.4Z"/><path class="cls-6" d="M473,72.56h-4.21V70.08h11.47v2.48h-4.21V83.24H473Z"/><path class="cls-6" d="M496,70.66a4.39,4.39,0,0,1,2.68,4.2,4.5,4.5,0,0,1-.7,2.52A4.39,4.39,0,0,1,496,79a7.45,7.45,0,0,1-3,.57h-2.65v3.63h-3V70.08h5.7A7.44,7.44,0,0,1,496,70.66Zm-1.12,5.88a2.07,2.07,0,0,0,.72-1.68,2.1,2.1,0,0,0-.72-1.71,3.2,3.2,0,0,0-2.08-.59h-2.48v4.57h2.48A3.2,3.2,0,0,0,494.84,76.54Z"/><path class="cls-6" d="M502.2,81.9a6,6,0,0,1-1.57-4.45V70.08h3.05v7.26c0,2.35,1,3.53,2.93,3.53a2.72,2.72,0,0,0,2.18-.86,4,4,0,0,0,.75-2.67V70.08h3v7.37A6.23,6.23,0,0,1,502.2,81.9Z"/><path class="cls-6" d="M527,77.59a3.27,3.27,0,0,1,.64,2.06,3.05,3.05,0,0,1-1.34,2.66,6.9,6.9,0,0,1-3.92.93h-6.81V70.08H522a6.34,6.34,0,0,1,3.7.92A2.94,2.94,0,0,1,527,73.5a3.19,3.19,0,0,1-1.74,2.9A3.37,3.37,0,0,1,527,77.59Zm-8.4-5.22v3.11h3a3.08,3.08,0,0,0,1.71-.4,1.45,1.45,0,0,0,0-2.32,3.09,3.09,0,0,0-1.71-.39ZM524,80.55a1.36,1.36,0,0,0,.61-1.22c0-1.09-.81-1.64-2.43-1.64h-3.55v3.25h3.55A3.42,3.42,0,0,0,524,80.55Z"/><path class="cls-6" d="M529.93,70.08H533V80.76h6.59v2.48h-9.64Z"/><path class="cls-6" d="M541.28,70.08h3.05V83.24h-3.05Z"/><path class="cls-6" d="M548.76,83a6.89,6.89,0,0,1-2.34-1.1l1-2.29a7,7,0,0,0,2,1,7.29,7.29,0,0,0,2.33.38,3.7,3.7,0,0,0,1.92-.39,1.15,1.15,0,0,0,.62-1,1,1,0,0,0-.37-.78,2.79,2.79,0,0,0-.94-.5c-.38-.12-.9-.26-1.55-.41A21.45,21.45,0,0,1,549,77.2a4,4,0,0,1-1.65-1.14,3.15,3.15,0,0,1-.68-2.11,3.68,3.68,0,0,1,.62-2.07,4.16,4.16,0,0,1,1.87-1.48,7.67,7.67,0,0,1,3.05-.54,10.25,10.25,0,0,1,2.47.3,7.4,7.4,0,0,1,2.1.86l-.94,2.31a7.31,7.31,0,0,0-3.65-1,3.43,3.43,0,0,0-1.88.41,1.27,1.27,0,0,0-.62,1.09,1.08,1.08,0,0,0,.71,1,11.6,11.6,0,0,0,2.15.65,19.79,19.79,0,0,1,2.46.71,4.17,4.17,0,0,1,1.65,1.13,3,3,0,0,1,.68,2.08,3.58,3.58,0,0,1-.63,2.06,4.19,4.19,0,0,1-1.88,1.48,7.77,7.77,0,0,1-3.07.54A10.78,10.78,0,0,1,548.76,83Z"/><path class="cls-6" d="M571.51,70.08V83.24h-3v-5.4h-6v5.4h-3V70.08h3v5.19h6V70.08Z"/><path class="cls-6" d="M574.63,70.08h3V83.24h-3Z"/><path class="cls-6" d="M592.86,70.08V83.24h-2.5l-6.56-8v8h-3V70.08h2.52l6.54,8v-8Z"/><path class="cls-6" d="M604.87,76.45h2.78v5.34A7.91,7.91,0,0,1,605.17,83a9.59,9.59,0,0,1-2.84.43,7.69,7.69,0,0,1-3.68-.87,6.51,6.51,0,0,1-2.57-2.42,7.09,7.09,0,0,1,0-7,6.44,6.44,0,0,1,2.59-2.42,7.85,7.85,0,0,1,3.72-.87,8.13,8.13,0,0,1,3.14.58,6.2,6.2,0,0,1,2.36,1.69l-1.95,1.8a4.52,4.52,0,0,0-3.4-1.48,4.66,4.66,0,0,0-2.24.53,3.74,3.74,0,0,0-1.52,1.48,4.64,4.64,0,0,0,0,4.38,3.8,3.8,0,0,0,1.51,1.49,4.47,4.47,0,0,0,2.21.54,5,5,0,0,0,2.37-.56Z"/><polyline class="cls-11" points="83.7 111 83.7 161.98 266.23 161.98"/><polyline class="cls-11" points="98.04 110.67 98.04 146.13 409.26 147.56 409.26 177.29"/><path class="cls-7" d="M81.3,83.8A7.28,7.28,0,0,1,79,82.7l1-2.3a7,7,0,0,0,2,1,7.61,7.61,0,0,0,2.33.37,3.69,3.69,0,0,0,1.92-.38,1.17,1.17,0,0,0,.62-1,1,1,0,0,0-.37-.78,2.54,2.54,0,0,0-.94-.5A15.69,15.69,0,0,0,84,78.67,19.79,19.79,0,0,1,81.55,78a3.92,3.92,0,0,1-1.64-1.15,3.07,3.07,0,0,1-.69-2.1,3.68,3.68,0,0,1,.62-2.08,4.2,4.2,0,0,1,1.87-1.47,7.54,7.54,0,0,1,3.06-.55,10.16,10.16,0,0,1,2.46.3,7.13,7.13,0,0,1,2.1.87l-.94,2.31a7.31,7.31,0,0,0-3.64-1,3.35,3.35,0,0,0-1.89.42,1.25,1.25,0,0,0-.61,1.09,1.06,1.06,0,0,0,.7,1,10.87,10.87,0,0,0,2.15.65,21.1,21.1,0,0,1,2.47.72,4,4,0,0,1,1.64,1.12,3,3,0,0,1,.69,2.09,3.6,3.6,0,0,1-.63,2.06,4.2,4.2,0,0,1-1.89,1.47,7.59,7.59,0,0,1-3.07.55A10.78,10.78,0,0,1,81.3,83.8Z"/><path class="cls-7" d="M94.52,73.32H90.31V70.84h11.46v2.48H97.56V84h-3Z"/><path class="cls-7" d="M105.9,83.33a6.47,6.47,0,0,1-2.57-2.43,7,7,0,0,1,0-7,6.5,6.5,0,0,1,2.57-2.44,8.18,8.18,0,0,1,7.38,0,6.71,6.71,0,0,1,0,11.84,8.09,8.09,0,0,1-7.38,0Zm5.8-2.24a3.79,3.79,0,0,0,1.47-1.5,4.32,4.32,0,0,0,.54-2.18,4.38,4.38,0,0,0-.54-2.18,3.76,3.76,0,0,0-1.47-1.49,4.37,4.37,0,0,0-4.21,0A3.85,3.85,0,0,0,106,75.23a4.48,4.48,0,0,0-.53,2.18,4.43,4.43,0,0,0,.53,2.18,3.88,3.88,0,0,0,1.48,1.5,4.45,4.45,0,0,0,4.21,0Z"/><path class="cls-7" d="M127.82,71.42a4.33,4.33,0,0,1,2.67,4.19,4.61,4.61,0,0,1-.69,2.53,4.43,4.43,0,0,1-2,1.65,7.46,7.46,0,0,1-3,.58h-2.65V84h-3V70.84h5.69A7.3,7.3,0,0,1,127.82,71.42Zm-1.12,5.87a2.06,2.06,0,0,0,.71-1.68,2.09,2.09,0,0,0-.71-1.7,3.18,3.18,0,0,0-2.09-.59h-2.48v4.56h2.48A3.18,3.18,0,0,0,126.7,77.29Z"/><path class="cls-7" d="M146.89,71.42a4.73,4.73,0,0,1,2,6.72,4.46,4.46,0,0,1-2,1.65,7.44,7.44,0,0,1-3,.58h-2.65V84h-3.05V70.84h5.7A7.28,7.28,0,0,1,146.89,71.42Zm-1.12,5.87a2,2,0,0,0,.72-1.68,2.07,2.07,0,0,0-.72-1.7,3.15,3.15,0,0,0-2.08-.59h-2.48v4.56h2.48A3.15,3.15,0,0,0,145.77,77.29Z"/><path class="cls-7" d="M153.13,82.66a6,6,0,0,1-1.57-4.46V70.84h3.05v7.25c0,2.36,1,3.53,2.93,3.53a2.75,2.75,0,0,0,2.18-.85,4,4,0,0,0,.75-2.68V70.84h3V78.2a6.23,6.23,0,0,1-10.35,4.46Z"/><path class="cls-7" d="M177.91,78.34a3.29,3.29,0,0,1,.64,2.06,3,3,0,0,1-1.34,2.66,6.88,6.88,0,0,1-3.92.93h-6.8V70.84h6.42a6.26,6.26,0,0,1,3.7.92,2.89,2.89,0,0,1,1.28,2.5,3.16,3.16,0,0,1-1.74,2.89A3.49,3.49,0,0,1,177.91,78.34Zm-8.4-5.21v3.1h3a3.09,3.09,0,0,0,1.71-.39,1.33,1.33,0,0,0,.58-1.17,1.3,1.3,0,0,0-.58-1.16,3.19,3.19,0,0,0-1.71-.38Zm5.37,8.17a1.34,1.34,0,0,0,.61-1.22c0-1.09-.81-1.63-2.43-1.63h-3.55V81.7h3.55A3.32,3.32,0,0,0,174.88,81.3Z"/><path class="cls-7" d="M180.86,70.84h3V81.51h6.6V84h-9.65Z"/><path class="cls-7" d="M192.22,70.84h3V84h-3Z"/><path class="cls-7" d="M199.69,83.8a7.28,7.28,0,0,1-2.34-1.1l1-2.3a6.75,6.75,0,0,0,2,1,7.61,7.61,0,0,0,2.33.37,3.69,3.69,0,0,0,1.92-.38,1.17,1.17,0,0,0,.62-1,1,1,0,0,0-.37-.78,2.54,2.54,0,0,0-.94-.5c-.38-.13-.9-.27-1.55-.42a19.79,19.79,0,0,1-2.46-.71,3.92,3.92,0,0,1-1.64-1.15,3.07,3.07,0,0,1-.69-2.1,3.68,3.68,0,0,1,.62-2.08,4.14,4.14,0,0,1,1.87-1.47,7.49,7.49,0,0,1,3.05-.55,10.25,10.25,0,0,1,2.47.3,7.13,7.13,0,0,1,2.1.87l-.94,2.31a7.31,7.31,0,0,0-3.64-1,3.35,3.35,0,0,0-1.89.42,1.25,1.25,0,0,0-.61,1.09,1.06,1.06,0,0,0,.7,1,10.87,10.87,0,0,0,2.15.65,21.1,21.1,0,0,1,2.47.72,4.08,4.08,0,0,1,1.64,1.12,3,3,0,0,1,.69,2.09,3.6,3.6,0,0,1-.63,2.06,4.2,4.2,0,0,1-1.89,1.47,7.59,7.59,0,0,1-3.07.55A10.78,10.78,0,0,1,199.69,83.8Z"/><path class="cls-7" d="M222.44,70.84V84h-3.05V78.6h-6V84h-3V70.84h3V76h6V70.84Z"/><path class="cls-7" d="M225.56,70.84h3V84h-3Z"/><path class="cls-7" d="M243.79,70.84V84h-2.5l-6.56-8v8h-3V70.84h2.52l6.54,8v-8Z"/><path class="cls-7" d="M255.8,77.21h2.78v5.34a8.12,8.12,0,0,1-2.48,1.24,9.93,9.93,0,0,1-2.84.43,7.61,7.61,0,0,1-3.68-.88A6.51,6.51,0,0,1,247,80.92a7.07,7.07,0,0,1,0-7,6.53,6.53,0,0,1,2.59-2.43,7.85,7.85,0,0,1,3.72-.87,8.13,8.13,0,0,1,3.14.58,6.23,6.23,0,0,1,2.36,1.69l-1.95,1.81a4.52,4.52,0,0,0-3.4-1.49,4.66,4.66,0,0,0-2.24.53,3.76,3.76,0,0,0-1.52,1.49,4.62,4.62,0,0,0,0,4.37,3.89,3.89,0,0,0,1.51,1.5,4.46,4.46,0,0,0,2.21.53,4.88,4.88,0,0,0,2.37-.56Z"/><path class="cls-7" d="M91.75,97.67a3.25,3.25,0,0,1,.63,2,3,3,0,0,1-1.32,2.62,6.79,6.79,0,0,1-3.86.92H80.49v-13h6.34a6.12,6.12,0,0,1,3.63.91,2.85,2.85,0,0,1,1.27,2.46,3.15,3.15,0,0,1-.45,1.68A3.19,3.19,0,0,1,90,96.5,3.44,3.44,0,0,1,91.75,97.67Zm-8.27-5.13v3h3a3,3,0,0,0,1.68-.39,1.3,1.3,0,0,0,.58-1.14,1.28,1.28,0,0,0-.58-1.14,3,3,0,0,0-1.68-.38Zm5.28,8a1.33,1.33,0,0,0,.6-1.2c0-1.08-.79-1.61-2.39-1.61H83.48V101H87A3.33,3.33,0,0,0,88.76,100.59Z"/><path class="cls-7" d="M103.08,97.89H99.86V101H97.47V97.89h-3.2V95.63h3.2V92.48h2.39v3.15h3.22Z"/><path class="cls-7" d="M105.75,90.28h3v10.51h6.49v2.45h-9.49Z"/><path class="cls-7" d="M128.19,97.67a3.25,3.25,0,0,1,.63,2,3,3,0,0,1-1.33,2.62,6.77,6.77,0,0,1-3.86.92h-6.7v-13h6.33a6.17,6.17,0,0,1,3.64.91,2.87,2.87,0,0,1,1.27,2.46,3.07,3.07,0,0,1-.46,1.68,3.17,3.17,0,0,1-1.26,1.17A3.44,3.44,0,0,1,128.19,97.67Zm-8.28-5.13v3h3a3,3,0,0,0,1.69-.39,1.29,1.29,0,0,0,.57-1.14,1.27,1.27,0,0,0-.57-1.14,3,3,0,0,0-1.69-.38Zm5.29,8a1.33,1.33,0,0,0,.6-1.2c0-1.08-.8-1.61-2.39-1.61h-3.5V101h3.5A3.35,3.35,0,0,0,125.2,100.59Z"/><path class="cls-6" d="M567.43,101h-6l-1.15,2.77h-3.07l5.77-13h3l5.79,13h-3.15Zm-.95-2.28-2.05-5-2.06,5Z"/><path class="cls-6" d="M581.07,98.37h-3.22v3.15h-2.39V98.37h-3.2V96.11h3.2V93h2.39v3.14h3.22Z"/><path class="cls-6" d="M592,103.72l-2.5-3.61h-2.75v3.61h-3v-13h5.61a7.12,7.12,0,0,1,3,.58A4.42,4.42,0,0,1,594.29,93a4.51,4.51,0,0,1,.68,2.49,4.21,4.21,0,0,1-2.66,4.1l2.9,4.16Zm-.76-9.93a3.13,3.13,0,0,0-2.05-.58h-2.44v4.51h2.44a3.08,3.08,0,0,0,2.05-.59,2.32,2.32,0,0,0,0-3.34Z"/><path class="cls-6" d="M608.6,98.16a3.23,3.23,0,0,1,.63,2,3,3,0,0,1-1.33,2.62,6.74,6.74,0,0,1-3.85.91h-6.71v-13h6.33a6.23,6.23,0,0,1,3.64.91,2.86,2.86,0,0,1,1.27,2.46A3.08,3.08,0,0,1,606.86,97,3.46,3.46,0,0,1,608.6,98.16ZM600.32,93v3.06h3a3,3,0,0,0,1.69-.39,1.3,1.3,0,0,0,.57-1.15A1.27,1.27,0,0,0,605,93.4,3.09,3.09,0,0,0,603.3,93Zm5.29,8a1.32,1.32,0,0,0,.6-1.2c0-1.07-.8-1.61-2.39-1.61h-3.5v3.2h3.5A3.33,3.33,0,0,0,605.61,101.07Z"/></svg>